<?xml version="1.0" encoding="UTF-8"?>
<svg xmlns="http://www.w3.org/2000/svg" xmlns:xlink="http://www.w3.org/1999/xlink" width="41px" height="41px" viewBox="0 0 41 41" version="1.1">
<g id="surface1">
<path style=" stroke:none;fill-rule:evenodd;fill:rgb(1.568627%,83.921569%,68.235294%);fill-opacity:1;" d="M 37.390625 13.328125 C 37.390625 13.398438 37.429688 13.433594 37.472656 13.40625 C 37.519531 13.378906 37.554688 13.320312 37.554688 13.277344 C 37.554688 13.238281 37.519531 13.203125 37.472656 13.203125 C 37.429688 13.203125 37.390625 13.257812 37.390625 13.328125 M 35.769531 13.382812 C 35.714844 13.4375 35.671875 13.519531 35.671875 13.5625 C 35.671875 13.855469 32.132812 16.851562 31.351562 17.21875 C 31.011719 17.378906 30.824219 17.546875 30.992188 17.546875 C 31.164062 17.546875 31.074219 17.785156 30.839844 17.953125 C 30.488281 18.203125 30.382812 18.160156 30.59375 17.855469 L 30.777344 17.589844 L 30.519531 17.828125 C 30.375 17.960938 30.257812 18.113281 30.257812 18.164062 C 30.257812 18.3125 29.714844 18.792969 29.578125 18.761719 C 29.511719 18.75 29.128906 18.984375 28.730469 19.285156 C 28.0625 19.785156 26.0625 20.992188 25.894531 20.992188 C 25.855469 20.992188 25.6875 21.0625 25.519531 21.144531 C 25.351562 21.230469 25.011719 21.324219 24.765625 21.355469 C 24.519531 21.386719 24.070312 21.519531 23.769531 21.652344 C 23.222656 21.894531 22.878906 21.957031 22.878906 21.824219 C 22.878906 21.785156 23.054688 21.6875 23.265625 21.609375 C 23.480469 21.527344 23.898438 21.339844 24.191406 21.191406 C 24.484375 21.039062 25 20.800781 25.335938 20.65625 C 26.554688 20.140625 28.207031 19.191406 28.207031 19.007812 C 28.207031 18.96875 28.058594 19.015625 27.878906 19.105469 C 27.609375 19.242188 27.550781 19.25 27.550781 19.152344 C 27.550781 19.085938 27.617188 18.984375 27.691406 18.925781 C 27.769531 18.867188 28.140625 18.503906 28.515625 18.121094 C 28.890625 17.738281 29.242188 17.421875 29.296875 17.417969 C 29.558594 17.394531 29.59375 17.375 29.644531 17.222656 C 29.671875 17.132812 29.859375 16.855469 30.058594 16.613281 C 30.257812 16.367188 30.421875 16.121094 30.421875 16.0625 C 30.421875 16.007812 30.511719 15.808594 30.621094 15.621094 C 30.746094 15.410156 30.804688 15.210938 30.777344 15.101562 C 30.710938 14.851562 30.628906 14.878906 30.433594 15.207031 C 30.191406 15.621094 29.171875 16.96875 28.742188 17.445312 C 27.53125 18.796875 25.402344 20.140625 23.042969 21.050781 C 21.742188 21.554688 21.789062 21.539062 20.066406 21.816406 C 18.210938 22.113281 16.898438 22.246094 16.777344 22.152344 C 16.726562 22.113281 16.261719 22.054688 15.742188 22.027344 C 14.730469 21.972656 13.613281 21.8125 13.613281 21.726562 C 13.613281 21.695312 13.757812 21.605469 13.933594 21.527344 C 14.332031 21.347656 14.699219 20.992188 14.488281 20.992188 C 14.410156 20.992188 14.351562 20.9375 14.351562 20.867188 C 14.351562 20.753906 14.375 20.753906 14.585938 20.863281 C 14.800781 20.972656 14.878906 20.972656 15.304688 20.863281 C 15.707031 20.757812 15.871094 20.753906 16.308594 20.835938 C 16.773438 20.921875 18.003906 20.894531 18.101562 20.792969 C 18.171875 20.722656 18.027344 20.417969 17.945312 20.464844 C 17.902344 20.492188 17.820312 20.460938 17.769531 20.390625 C 17.714844 20.320312 17.542969 20.25 17.382812 20.238281 L 17.097656 20.210938 L 17.425781 20.039062 C 17.605469 19.941406 18.03125 19.800781 18.367188 19.726562 C 18.707031 19.652344 19.09375 19.558594 19.230469 19.515625 C 19.363281 19.476562 19.691406 19.460938 19.960938 19.480469 C 20.417969 19.511719 20.664062 19.4375 20.664062 19.261719 C 20.664062 19.21875 20.535156 19.1875 20.378906 19.1875 C 20.175781 19.1875 20.089844 19.152344 20.089844 19.066406 C 20.089844 18.910156 20.019531 18.910156 19.652344 19.0625 C 19.480469 19.136719 19.257812 19.164062 19.109375 19.136719 C 18.929688 19.097656 18.859375 19.117188 18.859375 19.199219 C 18.859375 19.285156 18.710938 19.3125 18.222656 19.308594 C 17.746094 19.308594 17.539062 19.34375 17.394531 19.453125 C 17.285156 19.53125 17.085938 19.597656 16.953125 19.597656 C 16.71875 19.597656 16.710938 19.589844 16.832031 19.414062 C 16.898438 19.3125 17.023438 19.214844 17.105469 19.199219 C 17.191406 19.183594 17.351562 19.105469 17.464844 19.027344 C 17.703125 18.863281 18.726562 18.449219 18.890625 18.449219 C 19.0625 18.449219 19.8125 18.101562 20.726562 17.597656 C 21.179688 17.34375 21.613281 17.136719 21.683594 17.136719 C 21.753906 17.136719 21.8125 17.109375 21.8125 17.070312 C 21.8125 17.035156 22.125 16.84375 22.507812 16.644531 C 23.144531 16.320312 23.683594 15.90625 23.476562 15.90625 C 23.429688 15.90625 23.082031 16.109375 22.703125 16.359375 C 22.324219 16.605469 21.921875 16.808594 21.804688 16.808594 C 21.6875 16.808594 21.445312 16.910156 21.265625 17.035156 C 20.769531 17.382812 20.582031 17.476562 20.496094 17.421875 C 20.453125 17.394531 20.417969 17.414062 20.417969 17.460938 C 20.417969 17.507812 20.359375 17.546875 20.285156 17.546875 C 20.214844 17.546875 20.046875 17.640625 19.910156 17.753906 C 19.777344 17.867188 19.59375 17.957031 19.507812 17.957031 C 19.417969 17.957031 19.328125 18.011719 19.300781 18.074219 C 19.277344 18.140625 19.183594 18.179688 19.085938 18.160156 C 18.992188 18.140625 18.871094 18.160156 18.820312 18.203125 C 18.765625 18.246094 18.480469 18.359375 18.179688 18.449219 C 17.882812 18.542969 17.589844 18.664062 17.53125 18.71875 C 17.421875 18.824219 16.714844 19.027344 16.285156 19.078125 C 16.15625 19.09375 16.007812 19.140625 15.957031 19.179688 C 15.785156 19.324219 14.800781 19.5 13.835938 19.554688 C 12.554688 19.632812 11.230469 19.484375 10.835938 19.214844 C 10.53125 19.007812 10.28125 18.96875 10.230469 19.121094 C 10.207031 19.195312 10.074219 19.183594 9.710938 19.089844 C 9.445312 19.015625 9.113281 18.933594 8.980469 18.910156 L 8.734375 18.859375 L 8.957031 18.984375 C 9.195312 19.117188 9.257812 19.269531 9.078125 19.269531 C 9.019531 19.269531 8.929688 19.230469 8.882812 19.183594 C 8.835938 19.136719 8.660156 19.082031 8.488281 19.066406 C 8.265625 19.046875 8.207031 19.0625 8.273438 19.128906 C 8.324219 19.179688 8.363281 19.246094 8.363281 19.28125 C 8.363281 19.367188 7.871094 19.214844 7.71875 19.078125 C 7.589844 18.964844 7.265625 18.828125 7.09375 18.816406 C 6.972656 18.804688 6.007812 18.304688 5.632812 18.054688 C 5.421875 17.917969 5.222656 17.847656 5.066406 17.863281 C 4.9375 17.878906 4.738281 17.832031 4.628906 17.757812 C 4.519531 17.6875 4.402344 17.625 4.367188 17.621094 C 4.332031 17.617188 4.210938 17.546875 4.101562 17.46875 C 3.710938 17.203125 3.667969 17.199219 3.851562 17.445312 C 3.953125 17.582031 4.144531 17.773438 4.28125 17.875 C 4.683594 18.171875 4.484375 18.148438 3.90625 17.832031 L 3.363281 17.53125 L 3.363281 18.082031 C 3.363281 18.542969 3.390625 18.652344 3.539062 18.773438 C 3.679688 18.886719 3.71875 19.011719 3.726562 19.335938 L 3.730469 19.753906 L 3.546875 19.578125 C 3.203125 19.257812 3.351562 19.601562 3.773438 20.105469 C 3.996094 20.375 4.183594 20.628906 4.183594 20.671875 C 4.183594 20.710938 4.21875 20.746094 4.265625 20.746094 C 4.378906 20.746094 4.839844 21.085938 4.839844 21.171875 C 4.839844 21.324219 4.570312 21.21875 4.265625 20.941406 C 4.082031 20.777344 3.9375 20.691406 3.9375 20.75 C 3.9375 20.804688 4.148438 21.050781 4.40625 21.289062 C 4.667969 21.53125 4.832031 21.726562 4.769531 21.730469 C 4.695312 21.730469 4.714844 21.796875 4.832031 21.945312 C 5.085938 22.269531 5.035156 22.367188 4.757812 22.097656 C 4.621094 21.96875 4.511719 21.796875 4.511719 21.714844 C 4.511719 21.539062 4.402344 21.523438 4.273438 21.679688 C 4.199219 21.765625 4.261719 21.855469 4.570312 22.101562 C 5.191406 22.597656 5.175781 22.589844 5.113281 22.425781 C 5.074219 22.324219 5.089844 22.292969 5.171875 22.320312 C 5.234375 22.339844 5.304688 22.445312 5.328125 22.550781 C 5.355469 22.660156 5.546875 22.855469 5.78125 23.011719 C 6.007812 23.160156 6.355469 23.40625 6.558594 23.558594 C 7.230469 24.054688 8.644531 24.894531 9.144531 25.089844 C 9.414062 25.195312 9.949219 25.4375 10.332031 25.628906 C 10.714844 25.820312 11.175781 26.019531 11.355469 26.078125 C 11.539062 26.132812 11.792969 26.234375 11.921875 26.300781 C 12.097656 26.390625 12.171875 26.394531 12.21875 26.324219 C 12.257812 26.253906 12.292969 26.265625 12.328125 26.363281 C 12.359375 26.4375 12.414062 26.476562 12.457031 26.449219 C 12.496094 26.425781 12.78125 26.515625 13.089844 26.65625 C 13.398438 26.792969 13.9375 26.960938 14.285156 27.027344 C 14.632812 27.09375 15.078125 27.199219 15.269531 27.265625 C 15.59375 27.378906 15.609375 27.375 15.457031 27.253906 C 15.296875 27.125 15.296875 27.121094 15.496094 27.171875 C 15.609375 27.199219 15.796875 27.222656 15.910156 27.222656 C 16.023438 27.222656 16.308594 27.347656 16.542969 27.496094 C 16.859375 27.699219 17.03125 27.761719 17.21875 27.734375 C 17.425781 27.703125 17.460938 27.667969 17.421875 27.535156 C 17.382812 27.421875 17.414062 27.363281 17.535156 27.332031 C 17.625 27.308594 17.71875 27.203125 17.746094 27.09375 C 17.792969 26.917969 17.84375 26.894531 18.207031 26.894531 C 18.589844 26.894531 18.613281 26.882812 18.535156 26.738281 C 18.429688 26.539062 18.496094 26.496094 18.972656 26.46875 C 19.207031 26.453125 19.351562 26.40625 19.351562 26.34375 C 19.351562 26.175781 19.835938 26.222656 20.101562 26.414062 C 20.234375 26.507812 20.367188 26.566406 20.390625 26.539062 C 20.417969 26.511719 20.34375 26.449219 20.222656 26.394531 C 20.058594 26.316406 20.03125 26.273438 20.101562 26.1875 C 20.152344 26.125 20.289062 26.074219 20.40625 26.074219 C 20.527344 26.074219 20.734375 25.980469 20.867188 25.863281 C 21.003906 25.75 21.070312 25.675781 21.019531 25.703125 C 20.839844 25.789062 19.730469 25.902344 19.5 25.855469 C 18.917969 25.738281 19.449219 25.4375 20.417969 25.335938 C 21.296875 25.242188 22.25 25 22.386719 24.835938 C 22.457031 24.746094 22.710938 24.648438 23 24.59375 C 23.273438 24.542969 23.695312 24.402344 23.945312 24.277344 C 24.191406 24.152344 24.984375 23.761719 25.707031 23.414062 C 26.429688 23.0625 27.074219 22.742188 27.140625 22.703125 C 27.210938 22.660156 27.375 22.578125 27.511719 22.511719 C 27.644531 22.449219 27.800781 22.324219 27.855469 22.238281 C 27.90625 22.148438 28.074219 22.054688 28.222656 22.027344 C 28.371094 22 28.734375 21.792969 29.027344 21.566406 C 29.320312 21.34375 29.707031 21.117188 29.890625 21.066406 C 30.25 20.964844 30.945312 20.585938 30.882812 20.523438 C 30.859375 20.5 30.691406 20.566406 30.511719 20.671875 C 29.96875 20.972656 30.039062 20.796875 30.65625 20.304688 C 31.25 19.828125 31.425781 19.644531 31.207031 19.730469 C 31.035156 19.796875 31.042969 19.691406 31.222656 19.488281 C 31.359375 19.335938 31.359375 19.332031 31.199219 19.414062 C 31.105469 19.464844 30.90625 19.632812 30.746094 19.796875 C 30.503906 20.046875 29.25 20.746094 29.042969 20.746094 C 29.003906 20.746094 28.890625 20.835938 28.785156 20.949219 C 28.679688 21.058594 28.5625 21.132812 28.523438 21.105469 C 28.484375 21.082031 28.347656 21.140625 28.214844 21.234375 C 27.945312 21.425781 27.824219 21.445312 27.777344 21.304688 C 27.753906 21.234375 27.652344 21.257812 27.4375 21.386719 C 27.171875 21.542969 26.257812 21.894531 26.117188 21.894531 C 26.09375 21.894531 26.15625 21.765625 26.257812 21.609375 C 26.363281 21.449219 26.503906 21.320312 26.578125 21.320312 C 26.648438 21.320312 26.816406 21.238281 26.941406 21.136719 C 27.070312 21.035156 27.277344 20.898438 27.398438 20.828125 C 27.523438 20.761719 27.941406 20.445312 28.332031 20.132812 C 28.726562 19.816406 29.199219 19.464844 29.386719 19.351562 C 29.570312 19.238281 29.835938 19.035156 29.976562 18.902344 C 30.113281 18.765625 30.421875 18.507812 30.664062 18.328125 C 30.902344 18.148438 31.480469 17.703125 31.949219 17.34375 C 32.414062 16.980469 32.972656 16.578125 33.1875 16.441406 C 33.402344 16.304688 33.671875 16.136719 33.785156 16.066406 C 34.066406 15.886719 35.140625 14.839844 35.25 14.636719 C 35.296875 14.546875 35.339844 14.523438 35.339844 14.582031 C 35.34375 14.804688 36.347656 14.085938 36.589844 13.683594 C 36.769531 13.390625 36.628906 13.375 36.367188 13.660156 C 36.109375 13.941406 35.929688 13.886719 36.15625 13.597656 C 36.25 13.476562 36.324219 13.359375 36.324219 13.332031 C 36.324219 13.242188 35.867188 13.285156 35.769531 13.382812 M 37.0625 14.765625 C 36.976562 14.921875 36.984375 14.929688 37.136719 14.847656 C 37.355469 14.730469 37.429688 14.597656 37.277344 14.597656 C 37.207031 14.597656 37.109375 14.671875 37.0625 14.765625 M 21.628906 15.238281 C 21.386719 15.421875 21.238281 15.601562 21.242188 15.703125 C 21.242188 15.851562 21.261719 15.84375 21.441406 15.640625 C 21.550781 15.515625 21.675781 15.414062 21.71875 15.414062 C 21.765625 15.414062 21.878906 15.304688 21.976562 15.171875 C 22.203125 14.851562 22.109375 14.871094 21.628906 15.238281 M 34.132812 17.179688 C 33.984375 17.242188 33.867188 17.332031 33.867188 17.378906 C 33.867188 17.515625 33.976562 17.484375 34.277344 17.261719 C 34.585938 17.03125 34.535156 17.003906 34.132812 17.179688 M 23.867188 17.335938 C 23.738281 17.492188 23.777344 17.570312 23.9375 17.472656 C 23.996094 17.433594 24.03125 17.359375 24.011719 17.300781 C 23.988281 17.230469 23.945312 17.242188 23.867188 17.335938 M 34.277344 17.464844 C 34.203125 17.515625 34.191406 17.546875 34.25 17.546875 C 34.304688 17.546875 34.371094 17.511719 34.398438 17.464844 C 34.460938 17.363281 34.433594 17.363281 34.277344 17.464844 M 33.914062 17.765625 C 33.871094 17.878906 33.882812 17.882812 33.988281 17.796875 C 34.128906 17.675781 34.144531 17.628906 34.039062 17.628906 C 34 17.628906 33.941406 17.691406 33.914062 17.765625 M 33.210938 17.917969 C 33.152344 17.984375 33.144531 18.039062 33.191406 18.039062 C 33.234375 18.039062 33.316406 17.984375 33.375 17.917969 C 33.429688 17.847656 33.441406 17.792969 33.394531 17.792969 C 33.347656 17.792969 33.265625 17.847656 33.210938 17.917969 M 33.292969 18.246094 C 33.234375 18.316406 33.226562 18.367188 33.273438 18.367188 C 33.320312 18.367188 33.378906 18.3125 33.402344 18.246094 C 33.429688 18.175781 33.4375 18.121094 33.421875 18.121094 C 33.40625 18.121094 33.347656 18.175781 33.292969 18.246094 M 32.144531 18.613281 L 31.855469 18.855469 L 32.207031 18.722656 C 32.398438 18.648438 32.554688 18.539062 32.554688 18.480469 C 32.554688 18.316406 32.464844 18.34375 32.144531 18.613281 M 3.363281 18.933594 C 3.363281 18.976562 3.398438 19.039062 3.445312 19.066406 C 3.488281 19.09375 3.527344 19.078125 3.527344 19.035156 C 3.527344 18.988281 3.488281 18.929688 3.445312 18.902344 C 3.398438 18.875 3.363281 18.886719 3.363281 18.933594 M 31.523438 19.058594 C 31.4375 19.121094 31.386719 19.195312 31.414062 19.222656 C 31.441406 19.25 31.527344 19.195312 31.609375 19.105469 C 31.785156 18.914062 31.75 18.894531 31.523438 19.058594 M 5 21.890625 C 5.089844 22.058594 5.332031 22.222656 5.492188 22.222656 C 5.542969 22.222656 5.457031 22.109375 5.300781 21.976562 C 4.976562 21.691406 4.878906 21.664062 5 21.890625 M 16.277344 27.550781 C 16.359375 27.640625 16.4375 27.714844 16.457031 27.714844 C 16.472656 27.714844 16.449219 27.640625 16.398438 27.550781 C 16.351562 27.460938 16.269531 27.386719 16.21875 27.386719 C 16.167969 27.386719 16.195312 27.460938 16.277344 27.550781 "/>
</g>
</svg>
