<?xml version="1.0" encoding="UTF-8"?>
<svg xmlns="http://www.w3.org/2000/svg" xmlns:xlink="http://www.w3.org/1999/xlink" width="172px" height="90px" viewBox="0 0 172 90" version="1.1">
<g id="surface1">
<path style=" stroke:none;fill-rule:evenodd;fill:rgb(100%,100%,100%);fill-opacity:1;" d="M 101.042969 23.5625 C 100.929688 23.773438 100.960938 24.410156 101.128906 25.457031 C 101.667969 28.777344 101.628906 37.097656 101.003906 50.722656 C 100.640625 58.667969 100.421875 61.277344 99.894531 63.84375 C 99.449219 66.019531 99.5 65.960938 97.917969 66.210938 C 94.234375 66.792969 92.671875 67.328125 91.578125 68.382812 C 91.125 68.820312 91.007812 69.078125 91.007812 69.621094 C 91.007812 70.527344 91.46875 71.140625 92.621094 71.777344 C 93.4375 72.226562 93.730469 72.289062 94.960938 72.285156 C 96.015625 72.28125 96.5625 72.1875 97.160156 71.910156 C 98.238281 71.402344 99.351562 70.226562 99.996094 68.917969 C 100.292969 68.320312 100.664062 67.710938 100.820312 67.566406 C 101.058594 67.351562 102.253906 67.285156 107.785156 67.1875 C 114 67.078125 118.535156 67.195312 124.5625 67.613281 C 125.578125 67.683594 126.546875 67.707031 126.714844 67.667969 C 127.191406 67.550781 127.082031 66.996094 126.539062 66.769531 C 125.039062 66.152344 107.222656 65.425781 103.25 65.824219 C 101.351562 66.011719 101.058594 65.882812 101.332031 64.976562 C 101.433594 64.644531 101.601562 63.878906 101.707031 63.273438 C 101.8125 62.667969 101.980469 61.714844 102.078125 61.160156 C 102.347656 59.640625 102.605469 56.730469 102.703125 54.160156 C 102.75 52.898438 102.871094 50.679688 102.972656 49.226562 C 103.074219 47.773438 103.152344 42.292969 103.148438 37.046875 C 103.136719 27.683594 103.039062 25.722656 102.5 24.21875 C 102.175781 23.308594 101.371094 22.949219 101.042969 23.5625 M 48.488281 23.914062 C 47.269531 24.515625 47.015625 24.703125 45.746094 25.894531 C 44.46875 27.09375 42.917969 28.871094 41.488281 30.78125 C 40.382812 32.257812 38.476562 35.132812 38.476562 35.328125 C 38.476562 35.386719 38.328125 35.644531 38.144531 35.902344 C 37.007812 37.511719 33.085938 45.46875 31.1875 50.019531 C 30.722656 51.132812 30.242188 52.28125 30.121094 52.574219 C 29.789062 53.363281 28.859375 55.863281 28.730469 56.308594 C 28.667969 56.523438 28.394531 56.886719 28.121094 57.117188 C 27.703125 57.46875 27.296875 57.570312 25.617188 57.742188 C 24.511719 57.851562 23.0625 57.949219 22.390625 57.957031 C 20.386719 57.976562 17.480469 58.363281 17.5 58.609375 C 17.507812 58.730469 17.527344 58.90625 17.542969 59.003906 C 17.574219 59.222656 20.011719 59.230469 21.878906 59.015625 C 22.648438 58.925781 24.207031 58.804688 25.347656 58.746094 C 27.171875 58.648438 27.425781 58.667969 27.523438 58.925781 C 27.585938 59.085938 27.339844 60.140625 26.972656 61.269531 C 26.152344 63.804688 26.09375 64.003906 25.582031 65.957031 C 24.605469 69.691406 24.332031 71.113281 24.332031 72.476562 C 24.332031 73.667969 24.347656 73.707031 24.765625 73.707031 C 25.332031 73.707031 25.871094 72.902344 26.140625 71.664062 C 26.253906 71.140625 26.59375 69.605469 26.898438 68.25 C 27.203125 66.890625 27.511719 65.503906 27.589844 65.167969 C 27.664062 64.828125 27.933594 63.796875 28.191406 62.875 C 28.449219 61.957031 28.722656 60.957031 28.800781 60.652344 C 28.878906 60.351562 29.121094 59.742188 29.339844 59.300781 C 29.804688 58.371094 29.570312 58.429688 34.171875 58.125 C 37.421875 57.910156 40.765625 57.671875 44.011719 57.425781 C 49.359375 57.015625 52.691406 56.847656 53.128906 56.957031 C 54.03125 57.183594 54.085938 57.863281 53.933594 66.683594 C 53.867188 70.390625 53.898438 71.335938 54.09375 71.570312 C 54.222656 71.730469 54.378906 71.859375 54.441406 71.855469 C 55.074219 71.839844 55.261719 70.695312 55.515625 65.34375 C 55.933594 56.59375 55.875 56.972656 56.910156 56.542969 C 57.5625 56.269531 57.601562 56.050781 57.019531 55.90625 C 56.78125 55.847656 56.496094 55.6875 56.382812 55.550781 C 56.230469 55.367188 56.183594 53.035156 56.207031 46.714844 C 56.246094 36.652344 56.019531 33.277344 55.042969 29.238281 C 54.292969 26.140625 53.289062 24.355469 51.933594 23.707031 C 51.003906 23.265625 49.625 23.347656 48.488281 23.914062 M 48.699219 24.855469 C 46.679688 25.859375 42.492188 31.199219 39.75 36.28125 C 38.335938 38.898438 34.960938 45.777344 34.960938 46.039062 C 34.960938 46.082031 34.695312 46.699219 34.367188 47.414062 C 33.726562 48.804688 31.699219 53.871094 31.128906 55.515625 C 30.867188 56.265625 30.828125 56.5625 30.980469 56.6875 C 31.109375 56.796875 32.242188 56.800781 34.082031 56.695312 C 35.679688 56.605469 38.484375 56.457031 40.320312 56.367188 C 42.15625 56.273438 45.636719 56.078125 48.050781 55.929688 C 50.46875 55.78125 52.683594 55.660156 52.980469 55.660156 C 53.277344 55.65625 53.660156 55.550781 53.832031 55.425781 C 54.125 55.210938 54.144531 54.710938 54.140625 47.984375 C 54.132812 33.160156 53.304688 27.027344 51.035156 25.03125 C 50.292969 24.378906 49.746094 24.335938 48.699219 24.855469 M 62.984375 53.601562 C 62.421875 53.859375 61.769531 54.449219 60.804688 55.574219 L 60.203125 56.273438 L 60.050781 55.691406 C 59.867188 55.003906 59.210938 54.664062 58.652344 54.96875 C 58.308594 55.148438 58.296875 55.289062 58.355469 57.933594 C 58.421875 60.890625 58.53125 61.292969 59.289062 61.292969 C 59.867188 61.292969 60.167969 60.839844 60.683594 59.179688 C 61.488281 56.597656 62.488281 54.980469 63.125 55.226562 C 63.367188 55.320312 63.949219 56.84375 63.949219 57.382812 C 63.949219 57.480469 64.164062 57.96875 64.421875 58.472656 C 65.203125 59.976562 66.46875 60.765625 68.101562 60.761719 C 69.265625 60.757812 70.464844 60.300781 72.734375 59 L 73.351562 58.644531 L 73.476562 59.738281 C 73.640625 61.195312 74.097656 61.671875 75.429688 61.78125 C 76.648438 61.882812 77.640625 61.417969 78.894531 60.160156 L 79.785156 59.265625 L 80.144531 59.757812 C 81.527344 61.644531 86.671875 60.726562 90.035156 57.984375 C 91.164062 57.066406 91.988281 56.09375 91.753906 55.949219 C 91.671875 55.898438 91.332031 56.109375 91 56.417969 C 89.890625 57.445312 89.03125 57.910156 86.542969 58.84375 C 85.402344 59.273438 83.371094 59.421875 82.582031 59.132812 C 82.226562 59.003906 81.839844 58.679688 81.648438 58.347656 C 81.347656 57.828125 81.339844 57.667969 81.539062 56.46875 C 81.71875 55.394531 81.71875 55.101562 81.53125 54.875 C 81.230469 54.515625 80.492188 54.523438 80.082031 54.890625 C 79.820312 55.128906 79.679688 55.148438 79.316406 54.980469 C 78.597656 54.652344 77.210938 54.734375 76.292969 55.15625 C 75.832031 55.367188 74.824219 56.066406 74.054688 56.707031 C 73.28125 57.347656 72.332031 58.054688 71.945312 58.28125 C 70.503906 59.121094 68.097656 59.445312 67.324219 58.902344 C 66.859375 58.574219 66.5625 57.894531 66.246094 56.449219 C 65.90625 54.863281 65.730469 54.375 65.347656 53.917969 C 64.921875 53.40625 63.753906 53.25 62.984375 53.601562 M 124.335938 54.316406 C 123.835938 54.78125 123.589844 55.707031 123.761719 56.488281 C 123.894531 57.09375 123.65625 57.347656 122.367188 57.988281 C 120.492188 58.921875 119.289062 59.242188 117.585938 59.253906 C 116.121094 59.265625 115.925781 59.226562 115.566406 58.863281 C 115.191406 58.488281 115.167969 58.332031 115.210938 56.628906 C 115.253906 55.046875 115.21875 54.773438 114.957031 54.628906 C 114.625 54.441406 113.851562 54.660156 113.640625 55 C 113.546875 55.15625 113.367188 55.152344 112.921875 54.988281 C 110.273438 54.03125 107.171875 56.527344 107.171875 59.621094 C 107.171875 60.433594 107.25 60.671875 107.683594 61.15625 C 108.160156 61.691406 108.269531 61.730469 109.308594 61.726562 C 110.597656 61.71875 111.347656 61.328125 112.617188 59.988281 C 113.414062 59.152344 113.671875 59.011719 113.671875 59.410156 C 113.671875 59.707031 114.316406 60.28125 114.953125 60.554688 C 115.832031 60.929688 118.308594 60.738281 119.335938 60.214844 C 119.503906 60.128906 119.71875 60.058594 119.8125 60.058594 C 120.316406 60.058594 123.554688 58.277344 124.164062 57.664062 C 124.460938 57.367188 126.242188 57.324219 126.417969 57.609375 C 126.484375 57.714844 126.433594 58.554688 126.308594 59.480469 C 126.089844 61.054688 126.097656 61.195312 126.417969 61.792969 C 127.070312 63.007812 128.402344 62.949219 129.878906 61.644531 C 130.675781 60.941406 131.0625 60.773438 131.0625 61.125 C 131.0625 61.390625 132.183594 61.820312 132.859375 61.816406 C 133.773438 61.808594 134.875 61.203125 135.917969 60.132812 C 136.449219 59.585938 136.90625 59.167969 136.9375 59.203125 C 136.964844 59.238281 137.085938 59.453125 137.203125 59.675781 C 137.683594 60.601562 139.6875 61.007812 141.558594 60.566406 C 142.8125 60.265625 144.898438 59.402344 146.085938 58.683594 C 147.414062 57.878906 148.808594 56.589844 148.808594 56.160156 C 148.808594 55.703125 148.742188 55.734375 147.886719 56.582031 C 147.070312 57.386719 145.933594 58.019531 143.976562 58.757812 C 142.523438 59.308594 140.066406 59.445312 139.269531 59.019531 C 138.566406 58.644531 138.371094 57.828125 138.628906 56.363281 C 138.804688 55.378906 138.804688 55.085938 138.625 54.871094 C 138.332031 54.515625 137.828125 54.527344 137.207031 54.894531 C 136.792969 55.140625 136.625 55.15625 136.25 54.984375 C 134.347656 54.117188 131.542969 55.796875 130.816406 58.242188 C 130.300781 59.96875 130.164062 60.226562 129.425781 60.859375 C 128.640625 61.535156 128.402344 61.59375 128.074219 61.199219 C 127.902344 60.988281 127.894531 60.570312 128.046875 59.238281 C 128.203125 57.835938 128.195312 57.4375 127.984375 56.933594 C 127.738281 56.347656 127.699219 56.328125 126.980469 56.414062 C 126.570312 56.460938 126.074219 56.527344 125.882812 56.5625 C 125.5 56.628906 125.492188 56.550781 125.71875 55.144531 C 125.824219 54.5 125.792969 54.328125 125.523438 54.132812 C 125.070312 53.800781 124.855469 53.832031 124.335938 54.316406 M 77.390625 56.039062 C 76.371094 56.601562 75.84375 57.457031 75.628906 58.890625 C 75.464844 59.992188 75.632812 60.410156 76.242188 60.410156 C 77.140625 60.410156 79.234375 57.695312 79.234375 56.535156 C 79.234375 55.945312 78.105469 55.640625 77.390625 56.039062 M 110.6875 56.226562 C 109.671875 56.929688 108.9375 58.730469 109.195312 59.898438 C 109.289062 60.339844 109.386719 60.410156 109.890625 60.410156 C 110.371094 60.410156 110.617188 60.253906 111.257812 59.539062 C 112.089844 58.613281 112.96875 57.003906 112.96875 56.40625 C 112.96875 55.738281 111.558594 55.628906 110.6875 56.226562 M 134.195312 56.132812 C 133.613281 56.53125 132.996094 57.300781 132.996094 57.628906 C 132.996094 57.765625 132.914062 57.957031 132.8125 58.058594 C 132.710938 58.164062 132.652344 58.714844 132.679688 59.285156 C 132.734375 60.308594 132.742188 60.324219 133.289062 60.378906 C 133.746094 60.421875 133.972656 60.296875 134.578125 59.671875 C 135.65625 58.554688 136.621094 56.644531 136.335938 56.183594 C 136.101562 55.808594 134.722656 55.773438 134.195312 56.132812 M 96.453125 67.570312 C 95.578125 67.667969 93.640625 68.175781 93.074219 68.457031 C 92.460938 68.761719 92.28125 69.429688 92.660156 70.007812 C 93.113281 70.703125 93.949219 71.039062 95.25 71.054688 C 96.304688 71.066406 96.488281 71.011719 97.089844 70.523438 C 97.777344 69.964844 98.523438 68.703125 98.605469 67.960938 C 98.644531 67.582031 98.582031 67.542969 97.859375 67.523438 C 97.425781 67.511719 96.792969 67.535156 96.453125 67.570312 M 63.191406 79.046875 C 62.683594 79.578125 62.582031 79.960938 62.949219 79.960938 C 63.253906 79.960938 64.34375 78.828125 64.1875 78.671875 C 63.960938 78.441406 63.664062 78.554688 63.191406 79.046875 M 43.605469 78.9375 C 43.457031 79.089844 43.394531 80.085938 43.394531 82.296875 C 43.394531 85.203125 43.417969 85.441406 43.703125 85.386719 C 43.949219 85.339844 44.019531 85.113281 44.0625 84.230469 L 44.113281 83.132812 L 45.164062 83.132812 C 46.113281 83.132812 46.273438 83.074219 46.867188 82.527344 C 47.472656 81.972656 47.523438 81.847656 47.523438 80.960938 C 47.523438 79.871094 47.203125 79.371094 46.257812 78.96875 C 45.558594 78.671875 43.890625 78.652344 43.605469 78.9375 M 90.027344 79.058594 C 89.238281 79.542969 88.96875 80.300781 89.332031 81.007812 C 89.660156 81.640625 90.550781 82.25 91.152344 82.25 C 91.957031 82.25 92.925781 83.046875 92.9375 83.710938 C 92.9375 83.886719 92.734375 84.230469 92.488281 84.480469 C 92.089844 84.878906 91.925781 84.925781 91.160156 84.851562 C 90.53125 84.789062 90.152344 84.636719 89.804688 84.300781 C 89.234375 83.753906 89.074219 83.722656 89.074219 84.15625 C 89.074219 84.96875 90.507812 85.710938 91.75 85.542969 C 92.816406 85.398438 93.46875 84.6875 93.46875 83.660156 C 93.46875 82.621094 92.890625 82.03125 91.582031 81.726562 C 90.550781 81.484375 89.777344 80.96875 89.777344 80.515625 C 89.777344 80.351562 89.902344 80.039062 90.050781 79.824219 C 90.429688 79.28125 92.023438 79.257812 92.5 79.785156 C 92.675781 79.976562 92.96875 80.136719 93.148438 80.136719 C 93.425781 80.136719 93.449219 80.082031 93.285156 79.773438 C 92.769531 78.808594 91.054688 78.429688 90.027344 79.058594 M 66.527344 79.023438 C 66.464844 79.085938 66.410156 80.277344 66.410156 81.671875 C 66.410156 83.585938 66.476562 84.332031 66.675781 84.71875 C 66.964844 85.277344 67.542969 85.675781 67.820312 85.507812 C 68.039062 85.371094 68.046875 84.890625 67.828125 84.890625 C 67.738281 84.890625 67.542969 84.769531 67.390625 84.617188 C 67.164062 84.386719 67.113281 83.855469 67.113281 81.621094 C 67.113281 79.472656 67.0625 78.902344 66.878906 78.902344 C 66.75 78.902344 66.59375 78.957031 66.527344 79.023438 M 53.3125 79.273438 C 53.144531 79.539062 53.507812 79.851562 53.835938 79.726562 C 53.988281 79.667969 54.113281 79.5 54.113281 79.351562 C 54.113281 79.042969 53.492188 78.980469 53.3125 79.273438 M 106.644531 79.433594 C 106.644531 79.722656 106.734375 79.796875 107.039062 79.753906 C 107.257812 79.722656 107.433594 79.578125 107.433594 79.433594 C 107.433594 79.289062 107.257812 79.144531 107.039062 79.113281 C 106.734375 79.070312 106.644531 79.144531 106.644531 79.433594 M 122.457031 79.433594 C 122.457031 79.667969 122.574219 79.785156 122.808594 79.785156 C 123.042969 79.785156 123.160156 79.667969 123.160156 79.433594 C 123.160156 79.199219 123.042969 79.082031 122.808594 79.082031 C 122.574219 79.082031 122.457031 79.199219 122.457031 79.433594 M 44.136719 80.886719 L 44.1875 82.339844 L 45.074219 82.390625 C 46.289062 82.460938 46.910156 81.992188 46.910156 80.996094 C 46.910156 79.929688 46.324219 79.433594 45.066406 79.433594 L 44.082031 79.433594 L 44.136719 80.886719 M 109.246094 80.171875 C 109.199219 80.804688 109.125 80.9375 108.796875 80.984375 C 108.273438 81.058594 108.292969 81.335938 108.839844 81.546875 C 109.253906 81.703125 109.277344 81.785156 109.277344 83.042969 C 109.277344 84.566406 109.53125 85.113281 110.363281 85.40625 C 111.335938 85.746094 111.582031 85.117188 110.640625 84.703125 C 110.070312 84.453125 110.070312 84.449219 110.019531 83.011719 L 109.96875 81.570312 L 110.546875 81.511719 C 111.261719 81.445312 111.285156 81.136719 110.585938 81.015625 C 110.136719 80.9375 110.058594 80.839844 109.980469 80.226562 C 109.921875 79.753906 109.796875 79.503906 109.597656 79.46875 C 109.363281 79.421875 109.289062 79.566406 109.246094 80.171875 M 49.382812 80.964844 C 48.15625 81.609375 48.1875 82.515625 49.453125 83.109375 C 49.886719 83.316406 50.390625 83.484375 50.570312 83.484375 C 51.015625 83.484375 51.511719 84.066406 51.375 84.429688 C 51.3125 84.589844 51.070312 84.769531 50.832031 84.828125 C 50.285156 84.964844 49.125 84.78125 49.046875 84.542969 C 48.941406 84.226562 48.492188 84.351562 48.492188 84.695312 C 48.492188 85.050781 49.574219 85.597656 50.269531 85.597656 C 50.984375 85.597656 51.800781 85.0625 51.921875 84.519531 C 52.101562 83.691406 51.644531 83.179688 50.421875 82.839844 C 49.324219 82.53125 48.96875 82.121094 49.375 81.625 C 49.648438 81.296875 50.609375 81.296875 51.046875 81.628906 C 51.234375 81.769531 51.488281 81.890625 51.609375 81.894531 C 51.976562 81.902344 51.855469 81.394531 51.425781 81.113281 C 50.753906 80.671875 50.039062 80.621094 49.382812 80.964844 M 56.839844 80.960938 C 55.917969 81.464844 55.519531 82.117188 55.519531 83.132812 C 55.519531 84.164062 55.925781 84.816406 56.878906 85.308594 C 57.5625 85.664062 57.988281 85.671875 58.773438 85.339844 C 59.53125 85.023438 59.636719 84.460938 58.898438 84.667969 C 58.632812 84.742188 58.074219 84.800781 57.65625 84.800781 C 57.058594 84.796875 56.824219 84.703125 56.5625 84.359375 C 56.113281 83.773438 56.117188 82.476562 56.570312 81.933594 C 57.019531 81.394531 58.011719 81.234375 58.582031 81.613281 C 59.050781 81.917969 59.558594 81.992188 59.558594 81.75 C 59.558594 81.394531 58.265625 80.65625 57.660156 80.671875 C 57.496094 80.675781 57.128906 80.808594 56.839844 80.960938 M 62.078125 80.9375 C 59.753906 81.957031 60.511719 85.535156 63.042969 85.496094 C 64.046875 85.480469 64.699219 85.082031 65.097656 84.242188 C 65.710938 82.945312 65.148438 81.472656 63.824219 80.90625 C 63.140625 80.613281 62.800781 80.621094 62.078125 80.9375 M 70.363281 80.992188 C 69.539062 81.367188 69.347656 81.582031 69.035156 82.460938 C 68.613281 83.660156 69.429688 85.09375 70.773438 85.503906 C 71.476562 85.71875 72.355469 85.4375 73 84.789062 C 73.539062 84.253906 73.613281 84.066406 73.613281 83.292969 C 73.613281 82.101562 73.226562 81.417969 72.328125 81.007812 C 71.417969 80.59375 71.242188 80.59375 70.363281 80.992188 M 76.089844 80.980469 C 75.148438 81.453125 74.765625 82.105469 74.78125 83.203125 C 74.796875 84.347656 75.179688 84.9375 76.152344 85.339844 C 76.96875 85.671875 77.78125 85.570312 78.316406 85.066406 C 78.523438 84.875 78.738281 84.792969 78.792969 84.886719 C 78.957031 85.148438 78.421875 86.253906 78.03125 86.464844 C 77.425781 86.789062 76.167969 86.699219 75.808594 86.300781 C 75.46875 85.925781 75.019531 85.828125 75.019531 86.132812 C 75.019531 86.503906 75.875 87.160156 76.511719 87.28125 C 77.503906 87.46875 78.453125 87.105469 78.96875 86.34375 C 79.359375 85.769531 79.410156 85.507812 79.410156 84.128906 C 79.410156 82.175781 79.140625 81.523438 78.109375 81.023438 C 77.222656 80.59375 76.878906 80.585938 76.089844 80.980469 M 81.910156 81.015625 C 81.335938 81.277344 81.074219 81.535156 80.816406 82.113281 C 80.386719 83.0625 80.382812 83.335938 80.808594 84.167969 C 81.425781 85.386719 82.496094 85.808594 83.742188 85.332031 C 84.378906 85.089844 84.574219 85.070312 84.683594 85.25 C 84.761719 85.371094 84.949219 85.421875 85.105469 85.363281 C 85.324219 85.277344 85.386719 84.988281 85.386719 84.011719 C 85.386719 82.367188 84.953125 81.476562 83.925781 81.007812 C 83.007812 80.589844 82.839844 80.589844 81.910156 81.015625 M 95.910156 81.015625 C 95.011719 81.492188 94.695312 82.0625 94.695312 83.199219 C 94.695312 84.046875 94.765625 84.238281 95.273438 84.777344 C 96.042969 85.59375 96.898438 85.761719 97.867188 85.28125 C 98.457031 84.988281 98.601562 84.96875 98.679688 85.171875 C 98.808594 85.507812 99.203125 85.488281 99.332031 85.140625 C 99.390625 84.988281 99.441406 84.417969 99.441406 83.875 C 99.441406 82.480469 98.929688 81.496094 97.96875 81.027344 C 97.058594 80.585938 96.722656 80.582031 95.910156 81.015625 M 101.988281 80.925781 C 101.632812 81.085938 101.390625 81.105469 101.25 80.984375 C 100.789062 80.605469 100.671875 81.066406 100.671875 83.242188 C 100.671875 85.246094 100.699219 85.441406 100.976562 85.386719 C 101.234375 85.339844 101.300781 85.070312 101.371094 83.707031 C 101.476562 81.769531 101.683594 81.457031 102.855469 81.457031 C 104.132812 81.457031 104.359375 81.808594 104.359375 83.789062 C 104.359375 85.273438 104.390625 85.441406 104.667969 85.386719 C 104.925781 85.339844 104.984375 85.097656 105.027344 83.882812 C 105.085938 82.210938 104.839844 81.550781 103.957031 81.011719 C 103.3125 80.617188 102.742188 80.59375 101.988281 80.925781 M 113.933594 80.878906 C 112.777344 81.28125 112.136719 82.390625 112.347656 83.621094 C 112.492188 84.445312 112.945312 85.003906 113.742188 85.335938 C 114.5625 85.679688 114.867188 85.664062 115.65625 85.242188 C 116.226562 84.933594 116.328125 84.921875 116.417969 85.152344 C 116.472656 85.300781 116.636719 85.421875 116.78125 85.421875 C 117 85.421875 117.03125 85.140625 116.980469 83.761719 C 116.929688 82.277344 116.875 82.050781 116.480469 81.632812 C 116.054688 81.171875 115.054688 80.652344 114.660156 80.679688 C 114.550781 80.6875 114.222656 80.777344 113.933594 80.878906 M 119.589844 80.949219 C 119.230469 81.144531 119.03125 81.164062 118.867188 81.027344 C 118.386719 80.628906 118.226562 81.257812 118.277344 83.332031 C 118.320312 85.070312 118.367188 85.335938 118.632812 85.386719 C 118.910156 85.441406 118.941406 85.273438 118.941406 83.773438 C 118.941406 82.175781 118.960938 82.082031 119.40625 81.734375 C 119.671875 81.523438 120.125 81.371094 120.476562 81.371094 C 120.960938 81.371094 121.066406 81.3125 120.980469 81.089844 C 120.921875 80.9375 120.875 80.78125 120.875 80.738281 C 120.875 80.566406 120.042969 80.699219 119.589844 80.949219 M 126.140625 80.898438 C 124.925781 81.464844 124.5625 82.011719 124.5625 83.289062 C 124.5625 84.066406 124.640625 84.25 125.175781 84.789062 C 125.96875 85.585938 126.828125 85.761719 127.703125 85.316406 C 128.054688 85.136719 128.398438 84.960938 128.472656 84.925781 C 128.546875 84.890625 128.605469 84.996094 128.605469 85.15625 C 128.605469 85.339844 128.71875 85.425781 128.914062 85.386719 C 129.175781 85.335938 129.21875 85.117188 129.21875 83.921875 C 129.214844 82.167969 128.949219 81.589844 127.910156 81.0625 C 127.039062 80.621094 126.789062 80.597656 126.140625 80.898438 M 53.410156 83.117188 C 53.410156 85.066406 53.449219 85.421875 53.679688 85.421875 C 53.90625 85.421875 53.941406 85.097656 53.898438 83.191406 C 53.863281 81.597656 53.785156 80.9375 53.628906 80.886719 C 53.460938 80.828125 53.410156 81.351562 53.410156 83.117188 M 106.753906 81.113281 C 106.691406 81.269531 106.644531 82.203125 106.644531 83.191406 C 106.648438 85.011719 106.8125 85.675781 107.167969 85.316406 C 107.429688 85.054688 107.328125 80.980469 107.058594 80.890625 C 106.953125 80.855469 106.8125 80.957031 106.753906 81.113281 M 122.574219 80.957031 C 122.507812 81.023438 122.457031 82.054688 122.457031 83.25 C 122.457031 84.988281 122.503906 85.421875 122.699219 85.421875 C 123.078125 85.421875 123.160156 85.011719 123.160156 83.132812 C 123.160156 81.074219 123.007812 80.519531 122.574219 80.957031 M 62.199219 81.597656 C 61.582031 81.90625 61.285156 82.566406 61.386719 83.394531 C 61.589844 85.105469 63.816406 85.480469 64.550781 83.929688 C 64.941406 83.105469 64.789062 82.394531 64.101562 81.816406 C 63.523438 81.328125 62.875 81.253906 62.199219 81.597656 M 70.503906 81.539062 C 70.03125 81.742188 69.574219 82.589844 69.574219 83.253906 C 69.574219 84.378906 70.929688 85.175781 72.085938 84.730469 C 73.054688 84.359375 73.320312 82.777344 72.558594 81.898438 C 72.1875 81.46875 71.109375 81.28125 70.503906 81.539062 M 75.882812 81.882812 C 74.40625 83.367188 76.199219 85.671875 78.003906 84.601562 C 78.714844 84.179688 79.011719 83.183594 78.640625 82.464844 C 78.019531 81.261719 76.765625 81 75.882812 81.882812 M 81.832031 81.882812 C 81.320312 82.339844 81.261719 82.492188 81.289062 83.230469 C 81.332031 84.375 81.773438 84.804688 82.910156 84.804688 C 83.929688 84.804688 84.421875 84.441406 84.585938 83.558594 C 84.726562 82.796875 84.304688 81.847656 83.699219 81.570312 C 82.988281 81.246094 82.441406 81.335938 81.832031 81.882812 M 96.28125 81.5 C 95.273438 81.894531 94.917969 83.710938 95.710938 84.40625 C 96.53125 85.128906 97.871094 84.996094 98.394531 84.132812 C 98.789062 83.488281 98.824219 82.988281 98.527344 82.332031 C 98.1875 81.585938 97.097656 81.179688 96.28125 81.5 M 113.910156 81.542969 C 112.867188 81.964844 112.632812 83.527344 113.480469 84.378906 C 114.390625 85.289062 115.777344 84.9375 116.304688 83.664062 C 116.859375 82.320312 115.335938 80.96875 113.910156 81.542969 M 125.917969 81.671875 C 125.222656 82.117188 124.976562 83.046875 125.328125 83.890625 C 126.019531 85.550781 128.605469 84.980469 128.605469 83.164062 C 128.601562 81.777344 127.078125 80.929688 125.917969 81.671875 "/>
<path style=" stroke:none;fill-rule:evenodd;fill:rgb(1.568627%,83.921569%,68.235294%);fill-opacity:1;" d="M 169.480469 1 C 169.308594 1.171875 169.339844 1.902344 169.527344 2.019531 C 169.710938 2.132812 170.242188 1.453125 170.242188 1.105469 C 170.242188 0.871094 169.6875 0.792969 169.480469 1 M 162.113281 1.1875 C 161.710938 1.246094 161.519531 1.472656 161.015625 2.472656 C 160.507812 3.484375 160.234375 3.800781 159.394531 4.359375 C 158.839844 4.726562 158.285156 5.230469 158.167969 5.480469 C 157.914062 6.007812 153.957031 9.722656 151.617188 11.625 C 150.726562 12.351562 149.90625 13.027344 149.796875 13.132812 C 146.941406 15.820312 140.652344 20.421875 139.363281 20.773438 C 138.683594 20.953125 137.390625 21.988281 137.390625 22.347656 C 137.390625 22.457031 137.585938 22.542969 137.828125 22.542969 C 138.070312 22.542969 138.269531 22.632812 138.269531 22.738281 C 138.269531 23.167969 137.652344 23.921875 136.859375 24.464844 C 135.328125 25.511719 134.867188 25.195312 135.972656 23.855469 C 136.359375 23.386719 136.628906 22.960938 136.570312 22.90625 C 136.511719 22.851562 136.425781 22.90625 136.382812 23.027344 C 136.339844 23.148438 136.214844 23.25 136.101562 23.253906 C 135.675781 23.269531 134.753906 24.261719 134.382812 25.097656 C 133.964844 26.050781 132.492188 27.714844 131.710938 28.121094 C 131.40625 28.28125 131.015625 28.335938 130.699219 28.265625 C 130.285156 28.171875 130.039062 28.265625 129.4375 28.734375 C 129.027344 29.054688 128.652344 29.363281 128.605469 29.421875 C 128.554688 29.476562 128.082031 29.84375 127.550781 30.238281 C 127.019531 30.628906 126.234375 31.242188 125.804688 31.601562 C 125.0625 32.226562 121.691406 34.519531 121.519531 34.519531 C 121.472656 34.519531 120.933594 34.824219 120.320312 35.199219 C 119.707031 35.570312 118.511719 36.214844 117.667969 36.636719 C 116.824219 37.054688 116.128906 37.464844 116.128906 37.554688 C 116.128906 37.640625 115.675781 37.910156 115.121094 38.15625 C 114.566406 38.402344 114.070312 38.65625 114.023438 38.71875 C 113.738281 39.09375 113.226562 39.332031 112.59375 39.382812 C 112.195312 39.417969 111.78125 39.519531 111.671875 39.605469 C 111.5625 39.695312 110.992188 40.015625 110.402344 40.3125 C 109.585938 40.726562 108.933594 40.902344 107.679688 41.039062 C 106.769531 41.136719 105.710938 41.300781 105.324219 41.402344 C 103.628906 41.847656 103.40625 41.890625 103.269531 41.808594 C 103.191406 41.761719 103.128906 42.890625 103.128906 44.320312 C 103.128906 45.75 103.050781 47.992188 102.957031 49.304688 C 102.75 52.183594 102.636719 56.324219 102.773438 55.929688 C 102.828125 55.773438 103.109375 55.515625 103.398438 55.359375 C 104.96875 54.488281 105.511719 54.246094 105.890625 54.246094 C 106.121094 54.246094 106.601562 54.101562 106.960938 53.925781 C 107.941406 53.441406 110.363281 52.113281 110.859375 51.789062 C 111.101562 51.632812 111.496094 51.421875 111.738281 51.324219 C 112.324219 51.082031 113.707031 50.371094 114.925781 49.6875 C 115.472656 49.382812 116.597656 48.894531 117.429688 48.609375 C 118.257812 48.320312 119.300781 47.804688 119.742188 47.464844 C 120.1875 47.128906 120.761719 46.804688 121.019531 46.746094 C 121.851562 46.5625 121.914062 46.519531 122.160156 45.933594 C 122.457031 45.21875 122.695312 45.019531 123.597656 44.734375 C 123.984375 44.609375 124.539062 44.429688 124.828125 44.335938 C 125.601562 44.074219 127.972656 42.527344 129.484375 41.296875 C 130.566406 40.414062 131.042969 40.152344 132.164062 39.832031 C 133.796875 39.363281 133.890625 39.324219 135.882812 38.261719 C 136.746094 37.796875 137.480469 37.324219 137.523438 37.203125 C 137.671875 36.753906 136.671875 37.003906 135.59375 37.6875 C 134.4375 38.425781 133.574219 38.628906 133.769531 38.117188 C 133.828125 37.964844 133.875 37.808594 133.875 37.777344 C 133.875 37.742188 134.566406 37.21875 135.414062 36.613281 C 137.96875 34.777344 139.476562 33.464844 139.492188 33.066406 C 139.496094 32.996094 139.300781 32.933594 139.058594 32.933594 C 138.5 32.933594 138.464844 32.386719 138.984375 31.863281 C 139.582031 31.261719 139.230469 31.273438 138.347656 31.882812 C 137.503906 32.464844 136.34375 33.554688 135.71875 34.351562 C 135.445312 34.703125 132.910156 36.105469 132.550781 36.105469 C 132.511719 36.105469 132.042969 36.382812 131.515625 36.722656 C 130.988281 37.0625 130.464844 37.339844 130.351562 37.339844 C 130.238281 37.339844 129.753906 37.535156 129.273438 37.777344 C 128.792969 38.019531 128.300781 38.21875 128.183594 38.21875 C 128.0625 38.21875 127.59375 38.574219 127.140625 39.011719 C 126.542969 39.585938 126.171875 39.804688 125.796875 39.804688 C 125.480469 39.804688 124.800781 40.113281 124.054688 40.597656 C 122.699219 41.476562 122.355469 41.558594 122.191406 41.039062 C 122.042969 40.5625 121.476562 40.59375 120.609375 41.121094 C 119.144531 42.011719 118.199219 42.464844 117.484375 42.613281 C 117.078125 42.695312 116.140625 42.992188 115.398438 43.265625 C 114.65625 43.539062 113.996094 43.710938 113.933594 43.648438 C 113.785156 43.5 115.523438 41.105469 115.882812 40.96875 C 116.035156 40.910156 116.324219 40.859375 116.523438 40.859375 C 116.996094 40.859375 118.359375 40.0625 118.574219 39.65625 C 118.664062 39.488281 119.160156 39.132812 119.675781 38.871094 C 120.464844 38.472656 123.050781 36.644531 123.335938 36.285156 C 123.382812 36.226562 123.738281 35.941406 124.125 35.65625 C 124.511719 35.371094 124.867188 35.097656 124.914062 35.050781 C 124.964844 35 125.464844 34.613281 126.03125 34.191406 C 126.597656 33.769531 127.191406 33.269531 127.347656 33.082031 C 127.804688 32.535156 129.183594 31.59375 130.484375 30.933594 C 131.292969 30.523438 131.941406 30.023438 132.488281 29.386719 C 132.933594 28.867188 133.761719 28.128906 134.332031 27.742188 C 134.902344 27.355469 135.410156 27 135.457031 26.949219 C 135.894531 26.488281 137.9375 24.882812 139.117188 24.058594 C 139.925781 23.5 140.753906 22.898438 140.964844 22.726562 C 141.171875 22.550781 141.855469 21.980469 142.484375 21.457031 C 144.648438 19.65625 146.617188 18.214844 147.492188 17.785156 C 147.972656 17.550781 148.726562 17.078125 149.160156 16.738281 C 149.59375 16.394531 150.027344 16.054688 150.125 15.980469 C 150.222656 15.90625 150.65625 15.570312 151.09375 15.234375 C 151.527344 14.898438 152.027344 14.621094 152.207031 14.621094 C 152.382812 14.617188 153.015625 14.09375 153.609375 13.449219 C 154.207031 12.808594 155.40625 11.679688 156.277344 10.945312 C 158.125 9.378906 158.1875 9.308594 158.648438 8.300781 C 158.9375 7.660156 159.042969 7.566406 159.253906 7.742188 C 159.566406 8.003906 160.125 7.84375 160.859375 7.285156 C 161.160156 7.054688 161.460938 6.867188 161.53125 6.867188 C 162.078125 6.867188 165.324219 3.988281 165.324219 3.5 C 165.324219 3.3125 165.460938 2.949219 165.625 2.695312 L 165.929688 2.230469 L 165.40625 2.355469 C 165.113281 2.421875 164.578125 2.820312 164.183594 3.265625 C 163.390625 4.152344 162.863281 4.296875 162.863281 3.621094 C 162.863281 3.347656 163.15625 2.894531 163.664062 2.375 C 164.242188 1.792969 164.417969 1.5 164.292969 1.347656 C 164.113281 1.132812 163.027344 1.054688 162.113281 1.1875 M 168.460938 7.792969 C 168.167969 8.03125 167.433594 9.058594 167.433594 9.230469 C 167.433594 9.445312 167.746094 9.320312 168.542969 8.789062 C 169.390625 8.226562 169.570312 7.867188 169.085938 7.679688 C 168.734375 7.542969 168.773438 7.535156 168.460938 7.792969 M 135.820312 9.5 C 135.621094 9.699219 135.457031 9.949219 135.457031 10.054688 C 135.457031 10.238281 133.738281 12.980469 133.335938 13.441406 C 133.234375 13.554688 132.121094 15.035156 130.859375 16.730469 C 129.597656 18.425781 128.515625 19.855469 128.453125 19.902344 C 128.390625 19.949219 127.90625 20.503906 127.375 21.128906 C 125.5 23.335938 122.398438 26.230469 120.273438 27.753906 C 119.859375 28.050781 119.328125 28.476562 119.097656 28.695312 C 118.355469 29.40625 117.65625 29.890625 116.042969 30.828125 C 115.171875 31.335938 114.25 31.875 113.988281 32.035156 C 110.703125 34.007812 109.421875 34.730469 106.753906 36.09375 C 105.039062 36.972656 103.5625 37.691406 103.476562 37.691406 C 103.390625 37.691406 103.292969 37.035156 103.261719 36.238281 C 103.230469 35.4375 103.207031 36.222656 103.210938 37.980469 C 103.214844 39.742188 103.269531 41.097656 103.332031 40.996094 C 103.578125 40.59375 106.5 39.085938 107.699219 38.742188 C 108.132812 38.617188 108.84375 38.335938 109.277344 38.121094 C 109.714844 37.90625 110.582031 37.519531 111.210938 37.257812 C 112.851562 36.570312 113.253906 36.371094 114.726562 35.511719 C 115.449219 35.089844 117.109375 34.199219 118.414062 33.53125 C 119.71875 32.867188 120.824219 32.277344 120.875 32.222656 C 120.921875 32.167969 121.398438 31.863281 121.929688 31.542969 C 123.058594 30.863281 124.035156 29.976562 124.035156 29.628906 C 124.035156 29.324219 123.589844 29.457031 122.242188 30.15625 C 120.894531 30.851562 120.519531 30.59375 121.183594 29.425781 C 121.351562 29.125 121.726562 28.804688 122.027344 28.707031 C 122.511719 28.542969 124.125 26.972656 127.9375 22.941406 C 128.859375 21.96875 129.058594 21.839844 129.644531 21.839844 C 130.46875 21.839844 131.058594 21.332031 131.558594 20.199219 C 131.757812 19.75 132.386719 18.835938 132.957031 18.171875 C 134.191406 16.734375 135.105469 15.4375 135.109375 15.113281 C 135.113281 14.617188 135.578125 13.585938 136.378906 12.300781 C 137.261719 10.878906 137.375 10.492188 136.949219 10.328125 C 136.804688 10.273438 136.6875 10.074219 136.6875 9.890625 C 136.6875 9.707031 136.574219 9.460938 136.433594 9.34375 C 136.234375 9.179688 136.109375 9.210938 135.820312 9.5 M 92.238281 10.503906 C 91.414062 11.128906 90.5625 11.773438 90.335938 11.9375 C 90.105469 12.109375 89.863281 12.546875 89.773438 12.945312 C 89.476562 14.300781 90.128906 14.121094 91.210938 12.550781 C 91.550781 12.054688 91.859375 11.800781 92.113281 11.796875 C 92.640625 11.792969 92.785156 11.667969 93.386719 10.699219 C 93.671875 10.238281 93.964844 9.863281 94.039062 9.863281 C 94.109375 9.863281 94.167969 9.742188 94.167969 9.597656 C 94.167969 9.148438 93.785156 9.328125 92.238281 10.503906 M 99.328125 14.886719 C 98.832031 15.214844 98.1875 15.625 97.894531 15.800781 C 97.601562 15.972656 96.664062 16.589844 95.8125 17.171875 C 93.777344 18.554688 93.546875 18.667969 92.769531 18.667969 C 91.746094 18.667969 91.03125 18.988281 89.527344 20.113281 C 88.46875 20.90625 88.039062 21.132812 87.730469 21.054688 C 87.410156 20.976562 87.273438 21.0625 87.054688 21.484375 C 86.777344 22.019531 86.382812 22.171875 86.167969 21.828125 C 86.09375 21.707031 85.929688 21.769531 85.710938 22.003906 C 85.523438 22.203125 85.15625 22.367188 84.890625 22.367188 C 84.589844 22.367188 84.09375 22.632812 83.558594 23.074219 C 82.585938 23.882812 81.835938 24.265625 81.085938 24.339844 C 80.609375 24.390625 80.324219 24.695312 80.058594 25.449219 C 80.019531 25.558594 79.894531 25.542969 79.734375 25.410156 C 79.550781 25.257812 79.417969 25.25 79.289062 25.378906 C 79.15625 25.511719 79 25.503906 78.753906 25.351562 C 78.457031 25.164062 78.273438 25.222656 77.441406 25.777344 C 76.851562 26.167969 76.265625 26.417969 75.933594 26.417969 C 75.632812 26.417969 75.167969 26.507812 74.894531 26.617188 C 74.625 26.726562 74.246094 26.875 74.054688 26.945312 C 72.914062 27.371094 71.71875 27.976562 71.1875 28.398438 C 70.820312 28.691406 70.359375 28.886719 70.03125 28.886719 C 69.730469 28.886719 69.132812 29.011719 68.699219 29.164062 C 68.269531 29.3125 67.28125 29.519531 66.503906 29.617188 C 65.558594 29.742188 64.6875 29.992188 63.863281 30.386719 C 63.175781 30.714844 62.089844 31.054688 61.402344 31.160156 C 60.726562 31.261719 59.660156 31.507812 59.03125 31.699219 C 57.773438 32.089844 56.671875 32.152344 55.949219 31.875 C 55.546875 31.722656 55.492188 31.738281 55.585938 31.980469 C 55.644531 32.136719 55.773438 33.1875 55.871094 34.316406 C 56.183594 37.949219 56.265625 38.5625 56.414062 38.472656 C 56.492188 38.421875 56.875 38.582031 57.265625 38.828125 C 58.09375 39.355469 59.03125 39.40625 60.019531 38.984375 C 60.890625 38.613281 62.617188 38.242188 63.21875 38.300781 C 63.476562 38.324219 64.75 38.484375 66.050781 38.65625 C 68.335938 38.957031 70.070312 38.957031 72.910156 38.65625 C 74.632812 38.472656 74.714844 38.433594 74.589844 37.929688 C 74.527344 37.679688 74.347656 37.28125 74.191406 37.039062 C 73.960938 36.691406 73.804688 36.621094 73.40625 36.703125 C 73.042969 36.773438 72.910156 36.734375 72.910156 36.542969 C 72.910156 36.398438 72.761719 36.132812 72.578125 35.949219 C 72.296875 35.664062 72.066406 35.628906 71.085938 35.707031 C 70.125 35.785156 69.925781 35.753906 69.925781 35.535156 C 69.925781 35.1875 70.113281 35.050781 71.59375 34.300781 C 73.105469 33.539062 75.3125 32.972656 78.707031 32.476562 C 79.144531 32.414062 79.882812 32.175781 80.347656 31.945312 C 81.347656 31.453125 81.730469 31.425781 82.3125 31.808594 C 82.550781 31.964844 83.074219 32.082031 83.492188 32.074219 C 83.90625 32.066406 84.625 32.058594 85.09375 32.054688 C 86.136719 32.054688 86.964844 31.539062 86.964844 30.898438 C 86.964844 30.484375 86.917969 30.46875 85.773438 30.46875 C 84.488281 30.46875 84.15625 30.296875 84.15625 29.640625 C 84.15625 29.039062 83.375 29.113281 81.746094 29.863281 C 80.625 30.382812 80.320312 30.460938 79.980469 30.304688 C 79.753906 30.203125 79.277344 30.117188 78.914062 30.117188 C 78.34375 30.117188 78.230469 30.1875 78.054688 30.65625 C 77.878906 31.125 77.804688 31.171875 77.5 31.011719 C 77.054688 30.769531 75.765625 30.769531 74.035156 31.011719 C 73.035156 31.152344 72.578125 31.148438 72.300781 31 C 71.980469 30.828125 71.84375 30.882812 71.3125 31.382812 C 70.664062 31.996094 69.496094 32.40625 68.417969 32.40625 C 67.851562 32.40625 67.804688 32.367188 67.90625 32.011719 C 68.0625 31.445312 69.203125 30.46875 69.703125 30.46875 C 69.9375 30.46875 70.558594 30.160156 71.089844 29.777344 C 72.527344 28.746094 77.671875 26.769531 78.921875 26.769531 C 79.125 26.769531 79.535156 26.585938 79.835938 26.355469 C 80.355469 25.957031 81.117188 25.652344 82.046875 25.460938 C 82.289062 25.410156 83.160156 24.964844 83.980469 24.472656 C 85.648438 23.464844 86.617188 22.917969 88.546875 21.886719 C 89.273438 21.5 90.222656 20.972656 90.65625 20.71875 C 91.089844 20.464844 91.628906 20.257812 91.851562 20.257812 C 92.089844 20.253906 92.503906 19.996094 92.839844 19.636719 C 93.203125 19.253906 93.585938 19.023438 93.859375 19.023438 C 94.101562 19.023438 94.488281 18.878906 94.71875 18.699219 C 94.949219 18.523438 96.125 17.886719 97.332031 17.28125 C 98.730469 16.578125 99.765625 15.933594 100.1875 15.496094 C 101.398438 14.230469 100.878906 13.863281 99.328125 14.886719 M 84.902344 17.007812 C 84.78125 17.136719 84.683594 17.34375 84.683594 17.46875 C 84.683594 17.589844 84.808594 17.507812 84.964844 17.289062 C 85.28125 16.835938 85.238281 16.640625 84.902344 17.007812 M 153.621094 20.3125 C 152.574219 20.757812 152.148438 21.082031 152.148438 21.425781 C 152.148438 22.027344 152.925781 21.867188 153.921875 21.066406 C 154.175781 20.863281 154.550781 20.578125 154.757812 20.4375 C 155.652344 19.820312 154.960938 19.746094 153.621094 20.3125 M 3.515625 20.941406 C 3.515625 21.019531 3.675781 21.226562 3.875 21.40625 C 4.070312 21.585938 4.390625 22.015625 4.585938 22.359375 C 4.777344 22.703125 5.367188 23.285156 5.894531 23.65625 C 6.5 24.082031 6.851562 24.453125 6.851562 24.671875 C 6.851562 25.011719 6.839844 25.011719 6.191406 24.65625 C 3.84375 23.363281 1.941406 22.417969 1.855469 22.503906 C 1.800781 22.558594 1.757812 23.777344 1.757812 25.210938 L 1.757812 27.820312 L 2.238281 28.121094 C 3.34375 28.816406 3.402344 28.960938 3.421875 31.027344 C 3.429688 32.074219 3.386719 32.933594 3.324219 32.933594 C 3.261719 32.933594 2.902344 32.644531 2.527344 32.289062 L 1.84375 31.640625 L 1.789062 32.117188 C 1.746094 32.476562 1.925781 32.808594 2.535156 33.488281 C 2.976562 33.980469 3.339844 34.457031 3.339844 34.550781 C 3.339844 34.644531 3.8125 35.171875 4.390625 35.726562 C 5.082031 36.382812 5.445312 36.871094 5.445312 37.132812 C 5.445312 37.746094 5.78125 38.261719 6.097656 38.140625 C 6.269531 38.074219 6.796875 38.355469 7.480469 38.875 C 8.839844 39.910156 9.101562 40.511719 8.183594 40.507812 C 7.773438 40.503906 6.761719 39.738281 5.679688 38.617188 C 5.035156 37.945312 4.566406 37.675781 4.566406 37.976562 C 4.566406 38.351562 5.605469 39.882812 6.132812 40.28125 C 7.179688 41.074219 8.609375 42.484375 8.609375 42.722656 C 8.609375 42.84375 8.519531 42.976562 8.40625 43.011719 C 8.289062 43.050781 8.507812 43.523438 8.949219 44.171875 C 9.359375 44.769531 9.664062 45.34375 9.632812 45.445312 C 9.597656 45.546875 9.117188 45.183594 8.5625 44.636719 C 7.816406 43.898438 7.554688 43.515625 7.554688 43.152344 C 7.554688 42.613281 6.886719 41.695312 6.742188 42.035156 C 6.695312 42.144531 6.503906 42.414062 6.316406 42.632812 C 6.128906 42.851562 5.972656 43.085938 5.972656 43.152344 C 5.972656 43.429688 6.746094 44.238281 7.515625 44.769531 C 7.964844 45.078125 8.617188 45.589844 8.964844 45.90625 C 9.664062 46.539062 10.777344 47.082031 10.371094 46.59375 C 10.085938 46.246094 10.265625 45.765625 10.628906 45.90625 C 10.960938 46.03125 11.417969 46.875 11.417969 47.355469 C 11.417969 47.730469 14.066406 49.839844 15.371094 50.507812 C 15.757812 50.707031 16.710938 51.371094 17.488281 51.984375 C 18.265625 52.597656 19.570312 53.523438 20.386719 54.039062 C 21.203125 54.554688 22.546875 55.410156 23.367188 55.941406 C 24.1875 56.472656 25.039062 56.980469 25.253906 57.070312 C 25.691406 57.25 25.769531 57.511719 25.429688 57.660156 C 25.308594 57.710938 25.726562 57.710938 26.351562 57.65625 C 28.136719 57.503906 28.371094 57.265625 29.351562 54.597656 C 29.652344 53.777344 30 52.863281 30.121094 52.574219 C 30.242188 52.28125 30.722656 51.132812 31.1875 50.019531 C 33.042969 45.570312 36.941406 37.640625 38.117188 35.929688 C 38.28125 35.6875 38.464844 35.371094 38.519531 35.226562 C 38.574219 35.078125 39.121094 34.199219 39.734375 33.269531 C 40.378906 32.300781 40.742188 31.605469 40.585938 31.640625 C 40.441406 31.675781 40.003906 31.464844 39.617188 31.179688 C 38.640625 30.457031 36.824219 29.589844 36.28125 29.589844 C 35.964844 29.589844 35.785156 29.71875 35.664062 30.03125 C 35.460938 30.566406 35.15625 30.578125 33.804688 30.109375 C 33.234375 29.910156 32.449219 29.675781 32.0625 29.589844 C 31.675781 29.507812 30.8125 29.316406 30.144531 29.164062 C 28.515625 28.796875 28.332031 29.039062 29.710938 29.730469 C 30.414062 30.082031 30.605469 30.726562 30.054688 30.871094 C 29.847656 30.925781 29.519531 30.824219 29.273438 30.632812 C 28.675781 30.160156 27.945312 29.871094 27.230469 29.828125 C 26.894531 29.804688 26.359375 29.734375 26.046875 29.667969 C 25.335938 29.519531 25.296875 29.792969 25.941406 30.390625 C 26.546875 30.953125 26.378906 31.097656 25.4375 30.828125 C 25.023438 30.710938 24.476562 30.574219 24.21875 30.523438 C 23.960938 30.476562 23.492188 30.164062 23.175781 29.835938 C 22.855469 29.507812 22.488281 29.238281 22.355469 29.238281 C 22.222656 29.238281 21.679688 29.03125 21.144531 28.777344 C 20.453125 28.449219 20.121094 28.371094 19.984375 28.503906 C 19.851562 28.636719 19.664062 28.601562 19.34375 28.371094 C 19.089844 28.195312 18.097656 27.667969 17.128906 27.199219 C 15.136719 26.230469 14.085938 25.613281 12.5 24.492188 C 11.417969 23.722656 11.375 23.710938 9.941406 23.699219 C 8.539062 23.6875 8.457031 23.664062 7.65625 23.039062 C 7.195312 22.683594 6.710938 22.433594 6.574219 22.484375 C 6.4375 22.539062 5.871094 22.273438 5.316406 21.902344 C 4.039062 21.046875 3.515625 20.765625 3.515625 20.941406 M 102.722656 21.308594 C 102.210938 21.847656 102.222656 22.195312 102.746094 22.1875 C 103.125 22.179688 103.71875 21.371094 103.589844 21.039062 C 103.449219 20.667969 103.277344 20.71875 102.722656 21.308594 M 154.15625 21.914062 C 153.753906 22.207031 153.964844 22.527344 154.386719 22.261719 C 154.714844 22.054688 154.890625 21.664062 154.65625 21.664062 C 154.570312 21.664062 154.34375 21.777344 154.15625 21.914062 M 152.53125 22.984375 C 152.167969 23.402344 152.03125 23.777344 152.242188 23.777344 C 152.539062 23.777344 153.203125 23.15625 153.203125 22.875 C 153.203125 22.425781 152.988281 22.460938 152.53125 22.984375 M 50.378906 23.363281 C 50.5 23.414062 50.699219 23.414062 50.816406 23.363281 C 50.9375 23.316406 50.839844 23.277344 50.597656 23.277344 C 50.355469 23.277344 50.257812 23.316406 50.378906 23.363281 M 149.117188 23.835938 C 148.417969 24.242188 148.246094 24.65625 148.777344 24.65625 C 149.144531 24.65625 149.933594 23.890625 149.839844 23.628906 C 149.804688 23.535156 149.480469 23.628906 149.117188 23.835938 M 69.660156 25.011719 C 69.589844 25.125 69.613281 25.296875 69.710938 25.394531 C 69.828125 25.511719 69.925781 25.5 70.011719 25.363281 C 70.082031 25.25 70.0625 25.074219 69.964844 24.980469 C 69.847656 24.863281 69.746094 24.871094 69.660156 25.011719 M 149.222656 25.789062 C 148.742188 26.210938 148.738281 26.230469 149.109375 26.238281 C 149.328125 26.238281 149.585938 26.082031 149.695312 25.875 C 149.988281 25.324219 149.789062 25.289062 149.222656 25.789062 M 144.652344 26.6875 C 144.597656 26.835938 144.183594 27.210938 143.738281 27.515625 C 142.335938 28.480469 142.0625 28.882812 143.179688 28.339844 C 143.558594 28.15625 143.964844 28.003906 144.074219 28.003906 C 144.441406 28.003906 145.441406 27.453125 145.539062 27.199219 C 145.6875 26.808594 145.46875 26.417969 145.09375 26.417969 C 144.910156 26.417969 144.710938 26.539062 144.652344 26.6875 M 44.25 27.253906 C 44.03125 27.535156 44.039062 27.539062 44.316406 27.320312 C 44.609375 27.089844 44.703125 26.945312 44.558594 26.945312 C 44.523438 26.945312 44.382812 27.085938 44.25 27.253906 M 126.496094 27.828125 C 126.496094 28.050781 126.855469 28.050781 127.199219 27.828125 C 127.40625 27.695312 127.355469 27.65625 126.980469 27.65625 C 126.714844 27.652344 126.496094 27.730469 126.496094 27.828125 M 125.792969 28.179688 C 125.792969 28.277344 125.871094 28.355469 125.96875 28.355469 C 126.066406 28.355469 126.144531 28.277344 126.144531 28.179688 C 126.144531 28.082031 126.066406 28.003906 125.96875 28.003906 C 125.871094 28.003906 125.792969 28.082031 125.792969 28.179688 M 101.417969 28.972656 C 101.417969 29.359375 101.453125 29.496094 101.496094 29.277344 C 101.539062 29.058594 101.539062 28.742188 101.492188 28.574219 C 101.449219 28.40625 101.414062 28.585938 101.417969 28.972656 M 1.832031 28.941406 C 1.75 29.160156 1.832031 29.390625 2.082031 29.644531 C 2.527344 30.085938 2.59375 29.765625 2.203125 29.0625 C 1.980469 28.660156 1.945312 28.652344 1.832031 28.941406 M 140.59375 29.691406 C 140.28125 29.941406 140.023438 30.265625 140.023438 30.410156 C 140.023438 30.632812 140.125 30.617188 140.59375 30.320312 C 141.296875 29.875 141.777344 29.234375 141.40625 29.238281 C 141.273438 29.238281 140.910156 29.445312 140.59375 29.691406 M 87.964844 30.054688 C 87.90625 30.117188 87.894531 30.230469 87.941406 30.308594 C 88.050781 30.488281 88.546875 30.316406 88.546875 30.097656 C 88.546875 29.917969 88.132812 29.886719 87.964844 30.054688 M 103.199219 32.230469 C 103.199219 33.539062 103.226562 34.074219 103.261719 33.417969 C 103.292969 32.765625 103.292969 31.695312 103.261719 31.042969 C 103.226562 30.386719 103.199219 30.921875 103.199219 32.230469 M 41.433594 33.425781 C 40.792969 34.464844 40.035156 35.75 39.742188 36.285156 C 38.507812 38.554688 34.960938 45.785156 34.960938 46.039062 C 34.960938 46.082031 34.695312 46.699219 34.367188 47.414062 C 33.726562 48.804688 31.699219 53.871094 31.128906 55.515625 C 30.867188 56.265625 30.828125 56.5625 30.980469 56.6875 C 31.109375 56.796875 32.242188 56.800781 34.082031 56.695312 C 35.679688 56.605469 38.484375 56.457031 40.320312 56.367188 C 42.15625 56.273438 45.636719 56.078125 48.050781 55.929688 C 50.46875 55.78125 52.683594 55.660156 52.980469 55.660156 C 54.175781 55.652344 54.132812 55.90625 54.167969 48.691406 C 54.1875 45.113281 54.160156 42.460938 54.113281 42.796875 C 54.023438 43.410156 54.019531 43.414062 53.234375 43.351562 C 52.492188 43.292969 52.105469 43.0625 52.277344 42.78125 C 52.320312 42.714844 52.757812 42.511719 53.253906 42.335938 L 54.152344 42.011719 L 54.03125 39.277344 C 53.894531 36.085938 53.628906 32.726562 53.488281 32.359375 C 53.402344 32.132812 53.242188 32.132812 52.214844 32.359375 C 50.96875 32.628906 46.988281 32.554688 46.40625 32.246094 C 46.25 32.164062 45.367188 32.035156 44.449219 31.964844 C 43.53125 31.894531 42.738281 31.769531 42.6875 31.6875 C 42.632812 31.605469 42.070312 32.386719 41.433594 33.425781 M 101.433594 34.257812 C 101.433594 35.03125 101.464844 35.328125 101.5 34.914062 C 101.539062 34.496094 101.539062 33.863281 101.5 33.503906 C 101.460938 33.140625 101.433594 33.480469 101.433594 34.257812 M 101.433594 37.164062 C 101.433594 37.890625 101.464844 38.1875 101.5 37.824219 C 101.539062 37.460938 101.539062 36.867188 101.5 36.503906 C 101.464844 36.140625 101.433594 36.4375 101.433594 37.164062 M 100.847656 38.738281 C 100.699219 38.816406 100.382812 38.960938 100.144531 39.058594 C 99.902344 39.15625 99.203125 39.445312 98.59375 39.699219 C 97.984375 39.949219 97.320312 40.15625 97.121094 40.15625 C 96.917969 40.15625 95.976562 40.511719 95.03125 40.949219 C 94.082031 41.386719 93.203125 41.742188 93.078125 41.742188 C 92.953125 41.742188 92.0625 41.9375 91.09375 42.179688 C 90.128906 42.421875 89.0625 42.621094 88.722656 42.621094 C 88.386719 42.621094 87.832031 42.695312 87.492188 42.777344 C 87.15625 42.863281 86.324219 43.023438 85.648438 43.132812 C 84.972656 43.246094 83.46875 43.5 82.308594 43.699219 C 81.152344 43.898438 79.609375 44.128906 78.882812 44.210938 C 78.160156 44.292969 77.011719 44.453125 76.335938 44.5625 C 74.960938 44.789062 70.605469 45.128906 68.898438 45.148438 C 68.035156 45.15625 67.746094 45.09375 67.617188 44.867188 C 67.476562 44.609375 67.179688 44.589844 65.097656 44.683594 C 63.066406 44.773438 62.617188 44.746094 61.902344 44.46875 C 61.269531 44.226562 60.539062 44.144531 58.933594 44.132812 C 57.453125 44.125 56.71875 44.050781 56.523438 43.886719 C 56.273438 43.679688 56.242188 44.195312 56.1875 49.4375 C 56.125 55.644531 56.132812 55.683594 57.023438 55.90625 C 57.601562 56.050781 57.558594 56.273438 56.910156 56.542969 C 55.871094 56.972656 55.925781 56.625 55.527344 65.363281 C 55.433594 67.359375 55.316406 69.222656 55.261719 69.5 C 55.167969 69.96875 55.171875 69.976562 55.339844 69.597656 C 55.5 69.226562 55.59375 69.199219 56.265625 69.304688 C 57.394531 69.484375 60.085938 70.195312 60.855469 70.515625 C 61.816406 70.921875 62.011719 70.863281 61.425781 70.347656 C 60.886719 69.871094 60.9375 69.53125 61.496094 69.882812 C 61.683594 70 62.351562 70.097656 62.976562 70.097656 C 64.308594 70.097656 65.472656 70.539062 65.15625 70.921875 C 64.949219 71.171875 65.332031 71.929688 65.867188 72.328125 C 66.507812 72.804688 66.4375 72.085938 65.777344 71.425781 C 65.003906 70.648438 66.3125 71.1875 67.605469 72.175781 C 68.238281 72.660156 68.84375 72.734375 70.363281 72.523438 C 71.007812 72.433594 71.0625 72.378906 71.035156 71.921875 C 70.980469 71 71.132812 70.625 71.5625 70.625 C 72.019531 70.625 72.382812 70.324219 72.382812 69.945312 C 72.382812 69.804688 72.585938 69.425781 72.832031 69.101562 L 73.28125 68.511719 L 75.050781 68.511719 C 76.804688 68.511719 76.816406 68.507812 76.6875 68.117188 C 76.617188 67.898438 76.546875 67.480469 76.535156 67.191406 C 76.511719 66.675781 76.535156 66.660156 77.480469 66.570312 C 78.011719 66.519531 78.621094 66.363281 78.835938 66.222656 C 79.144531 66.019531 79.335938 66.007812 79.75 66.164062 C 80.324219 66.382812 80.464844 66.320312 80.464844 65.847656 C 80.464844 65.214844 81.777344 64.960938 83.09375 65.339844 C 83.59375 65.484375 83.757812 65.457031 84.058594 65.1875 C 84.648438 64.648438 85.140625 64.460938 85.976562 64.460938 C 86.59375 64.460938 86.921875 64.339844 87.503906 63.890625 C 87.914062 63.574219 88.367188 63.136719 88.511719 62.914062 C 88.761719 62.527344 88.757812 62.519531 88.351562 62.667969 C 87.074219 63.128906 82.527344 63.605469 81.511719 63.382812 C 79.773438 63.003906 79.710938 62.339844 81.359375 61.765625 C 81.882812 61.585938 82.398438 61.363281 82.507812 61.273438 C 82.617188 61.183594 83.84375 61.039062 85.238281 60.949219 C 86.632812 60.859375 87.96875 60.714844 88.203125 60.621094 C 89.0625 60.292969 89.894531 60.078125 91.445312 59.792969 C 92.316406 59.632812 93.269531 59.429688 93.566406 59.339844 C 93.863281 59.25 94.257812 59.175781 94.445312 59.171875 C 94.878906 59.164062 95.390625 58.777344 95.648438 58.265625 C 95.910156 57.734375 97.1875 57.261719 98.394531 57.25 C 98.96875 57.246094 99.515625 57.132812 99.714844 56.980469 C 99.902344 56.839844 100.183594 56.722656 100.339844 56.71875 C 100.546875 56.714844 100.648438 56.472656 100.730469 55.789062 C 100.914062 54.230469 101.226562 46.328125 101.164062 44.703125 L 101.109375 43.175781 L 100.148438 43.515625 C 99.621094 43.703125 98.972656 43.855469 98.710938 43.855469 C 97.816406 43.855469 97.863281 43.203125 98.785156 42.828125 C 99.097656 42.699219 99.695312 42.433594 100.113281 42.238281 C 100.925781 41.855469 101.121094 41.917969 101.246094 42.621094 C 101.289062 42.863281 101.335938 42.050781 101.347656 40.816406 C 101.363281 39.582031 101.3125 38.574219 101.242188 38.582031 C 101.167969 38.585938 100.992188 38.65625 100.847656 38.738281 M 56.21875 40.019531 L 56.21875 40.710938 L 56.660156 40.1875 C 56.902344 39.902344 57.097656 39.625 57.097656 39.578125 C 57.097656 39.53125 56.902344 39.457031 56.660156 39.410156 C 56.25 39.332031 56.21875 39.375 56.21875 40.019531 M 9.664062 43.363281 C 9.664062 43.726562 10.886719 44.910156 11.265625 44.910156 C 11.445312 44.910156 11.59375 44.875 11.59375 44.828125 C 11.59375 44.714844 10.019531 43.253906 9.820312 43.179688 C 9.734375 43.148438 9.664062 43.230469 9.664062 43.363281 M 11.914062 45.207031 C 12.039062 45.257812 12.191406 45.253906 12.25 45.195312 C 12.308594 45.136719 12.207031 45.09375 12.019531 45.101562 C 11.816406 45.109375 11.773438 45.152344 11.914062 45.207031 M 62.984375 53.601562 C 62.421875 53.859375 61.769531 54.449219 60.804688 55.574219 L 60.203125 56.273438 L 60.050781 55.691406 C 59.867188 55.003906 59.210938 54.664062 58.652344 54.96875 C 58.308594 55.148438 58.296875 55.289062 58.355469 57.933594 C 58.421875 60.890625 58.53125 61.292969 59.289062 61.292969 C 59.867188 61.292969 60.167969 60.839844 60.683594 59.179688 C 61.488281 56.597656 62.488281 54.980469 63.125 55.226562 C 63.367188 55.320312 63.949219 56.84375 63.949219 57.382812 C 63.949219 57.480469 64.164062 57.96875 64.421875 58.472656 C 65.203125 59.976562 66.46875 60.765625 68.101562 60.761719 C 69.265625 60.757812 70.464844 60.300781 72.734375 59 L 73.351562 58.644531 L 73.476562 59.738281 C 73.640625 61.195312 74.097656 61.671875 75.429688 61.78125 C 76.648438 61.882812 77.640625 61.417969 78.894531 60.160156 L 79.785156 59.265625 L 80.144531 59.757812 C 81.527344 61.644531 86.671875 60.726562 90.035156 57.984375 C 91.164062 57.066406 91.988281 56.09375 91.753906 55.949219 C 91.671875 55.898438 91.332031 56.109375 91 56.417969 C 89.890625 57.445312 89.03125 57.910156 86.542969 58.84375 C 85.402344 59.273438 83.371094 59.421875 82.582031 59.132812 C 82.226562 59.003906 81.839844 58.679688 81.648438 58.347656 C 81.347656 57.828125 81.339844 57.667969 81.539062 56.46875 C 81.71875 55.394531 81.71875 55.101562 81.53125 54.875 C 81.230469 54.515625 80.492188 54.523438 80.082031 54.890625 C 79.820312 55.128906 79.679688 55.148438 79.316406 54.980469 C 78.597656 54.652344 77.210938 54.734375 76.292969 55.15625 C 75.832031 55.367188 74.824219 56.066406 74.054688 56.707031 C 73.28125 57.347656 72.332031 58.054688 71.945312 58.28125 C 70.503906 59.121094 68.097656 59.445312 67.324219 58.902344 C 66.859375 58.574219 66.5625 57.894531 66.246094 56.449219 C 65.90625 54.863281 65.730469 54.375 65.347656 53.917969 C 64.921875 53.40625 63.753906 53.25 62.984375 53.601562 M 77.390625 56.039062 C 76.371094 56.601562 75.84375 57.457031 75.628906 58.890625 C 75.464844 59.992188 75.632812 60.410156 76.242188 60.410156 C 77.140625 60.410156 79.234375 57.695312 79.234375 56.535156 C 79.234375 55.945312 78.105469 55.640625 77.390625 56.039062 M 48.839844 57.074219 C 47.828125 57.152344 45.773438 57.300781 44.273438 57.40625 C 42.777344 57.511719 40.523438 57.675781 39.265625 57.769531 C 38.011719 57.863281 35.71875 58.023438 34.171875 58.125 C 29.832031 58.410156 29.820312 58.414062 29.472656 59.019531 C 29.308594 59.308594 29.242188 59.503906 29.332031 59.449219 C 29.46875 59.363281 30.121094 59.570312 31.710938 60.210938 C 31.90625 60.285156 33.496094 61.074219 35.25 61.960938 C 37 62.847656 39.292969 63.859375 40.34375 64.214844 C 41.394531 64.566406 42.835938 65.128906 43.546875 65.460938 C 44.773438 66.03125 44.859375 66.046875 45.171875 65.765625 C 45.484375 65.484375 45.519531 65.492188 45.859375 65.925781 C 46.140625 66.28125 46.328125 66.367188 46.699219 66.292969 C 47.039062 66.226562 47.835938 66.503906 49.542969 67.285156 C 51.746094 68.289062 53.546875 68.964844 53.675781 68.832031 C 53.703125 68.800781 53.816406 66.757812 53.929688 64.285156 C 54.144531 59.398438 54.027344 57.519531 53.472656 57.113281 C 53.136719 56.867188 51.785156 56.855469 48.839844 57.074219 M 125.234375 57.539062 C 125.359375 57.589844 125.511719 57.582031 125.570312 57.523438 C 125.628906 57.464844 125.523438 57.421875 125.339844 57.429688 C 125.136719 57.4375 125.09375 57.480469 125.234375 57.539062 M 24.035156 57.890625 C 24.164062 57.941406 24.316406 57.933594 24.375 57.875 C 24.429688 57.816406 24.328125 57.777344 24.144531 57.78125 C 23.9375 57.792969 23.894531 57.832031 24.035156 57.890625 M 128.089844 58.398438 C 128.101562 58.605469 128.140625 58.648438 128.199219 58.507812 C 128.25 58.378906 128.242188 58.226562 128.183594 58.167969 C 128.125 58.109375 128.082031 58.214844 128.089844 58.398438 M 21.226562 59.121094 C 21.351562 59.171875 21.503906 59.167969 21.5625 59.109375 C 21.621094 59.050781 21.515625 59.007812 21.332031 59.015625 C 21.128906 59.023438 21.085938 59.066406 21.226562 59.121094 M 83.734375 65.9375 C 83.785156 66.074219 83.960938 66.148438 84.128906 66.105469 C 84.296875 66.0625 84.578125 66.1875 84.761719 66.386719 C 85.117188 66.785156 85.601562 66.882812 85.464844 66.53125 C 85.417969 66.410156 85.136719 66.171875 84.839844 66.003906 C 84.183594 65.628906 83.601562 65.59375 83.734375 65.9375 M 103.261719 65.8125 C 103.382812 65.859375 103.578125 65.859375 103.699219 65.8125 C 103.820312 65.761719 103.722656 65.722656 103.480469 65.722656 C 103.238281 65.722656 103.140625 65.761719 103.261719 65.8125 M 114.855469 65.8125 C 114.976562 65.859375 115.175781 65.859375 115.296875 65.8125 C 115.417969 65.761719 115.316406 65.722656 115.078125 65.722656 C 114.835938 65.722656 114.734375 65.761719 114.855469 65.8125 M 116.964844 65.988281 C 117.085938 66.035156 117.285156 66.035156 117.40625 65.988281 C 117.523438 65.9375 117.425781 65.898438 117.183594 65.898438 C 116.941406 65.898438 116.84375 65.9375 116.964844 65.988281 M 121.191406 66.167969 C 121.320312 66.21875 121.472656 66.210938 121.53125 66.152344 C 121.585938 66.09375 121.484375 66.054688 121.300781 66.0625 C 121.09375 66.070312 121.050781 66.109375 121.191406 66.167969 M 107.125 67.226562 C 107.34375 67.269531 107.699219 67.269531 107.917969 67.226562 C 108.132812 67.1875 107.957031 67.152344 107.523438 67.152344 C 107.085938 67.152344 106.910156 67.1875 107.125 67.226562 M 116.003906 67.226562 C 116.171875 67.269531 116.410156 67.265625 116.53125 67.21875 C 116.648438 67.171875 116.507812 67.132812 116.21875 67.136719 C 115.929688 67.140625 115.832031 67.179688 116.003906 67.226562 M 125.585938 67.753906 C 125.710938 67.804688 125.863281 67.796875 125.921875 67.738281 C 125.980469 67.679688 125.875 67.636719 125.691406 67.644531 C 125.488281 67.65625 125.445312 67.695312 125.585938 67.753906 M 53.8125 69.832031 C 53.8125 70.316406 53.847656 70.496094 53.886719 70.226562 C 53.925781 69.960938 53.925781 69.5625 53.882812 69.347656 C 53.84375 69.128906 53.808594 69.347656 53.8125 69.832031 M 24.082031 73.019531 C 24.089844 73.222656 24.132812 73.265625 24.191406 73.125 C 24.238281 72.996094 24.234375 72.847656 24.175781 72.789062 C 24.117188 72.730469 24.074219 72.832031 24.082031 73.019531 M 91.148438 78.671875 C 91.277344 78.722656 91.429688 78.714844 91.488281 78.660156 C 91.546875 78.601562 91.441406 78.558594 91.257812 78.566406 C 91.050781 78.574219 91.011719 78.617188 91.148438 78.671875 M 90.105469 79.742188 C 89.886719 80.019531 89.894531 80.027344 90.171875 79.808594 C 90.464844 79.578125 90.558594 79.433594 90.414062 79.433594 C 90.378906 79.433594 90.238281 79.570312 90.105469 79.742188 M 125.242188 81.324219 C 125.027344 81.605469 125.03125 81.613281 125.308594 81.390625 C 125.480469 81.257812 125.617188 81.121094 125.617188 81.085938 C 125.617188 80.9375 125.472656 81.03125 125.242188 81.324219 M 70.078125 81.855469 C 69.859375 82.132812 69.867188 82.140625 70.144531 81.921875 C 70.4375 81.691406 70.53125 81.546875 70.386719 81.546875 C 70.347656 81.546875 70.210938 81.683594 70.078125 81.855469 M 64.679688 83.132812 C 64.679688 83.375 64.722656 83.472656 64.769531 83.351562 C 64.820312 83.230469 64.820312 83.03125 64.769531 82.910156 C 64.722656 82.789062 64.679688 82.890625 64.679688 83.132812 M 65.382812 83.132812 C 65.382812 83.375 65.425781 83.472656 65.472656 83.351562 C 65.523438 83.230469 65.523438 83.03125 65.472656 82.910156 C 65.425781 82.789062 65.382812 82.890625 65.382812 83.132812 M 81.183594 83.058594 C 81.191406 83.261719 81.234375 83.304688 81.289062 83.164062 C 81.339844 83.035156 81.332031 82.886719 81.273438 82.828125 C 81.214844 82.769531 81.175781 82.871094 81.183594 83.058594 M 84.535156 83.132812 C 84.535156 83.375 84.574219 83.472656 84.621094 83.351562 C 84.671875 83.230469 84.671875 83.03125 84.621094 82.910156 C 84.574219 82.789062 84.535156 82.890625 84.535156 83.132812 M 94.546875 83.132812 C 94.546875 83.375 94.589844 83.472656 94.636719 83.351562 C 94.6875 83.230469 94.6875 83.03125 94.636719 82.910156 C 94.589844 82.789062 94.546875 82.890625 94.546875 83.132812 M 116.335938 83.132812 C 116.335938 83.375 116.375 83.472656 116.421875 83.351562 C 116.472656 83.230469 116.472656 83.03125 116.421875 82.910156 C 116.375 82.789062 116.335938 82.890625 116.335938 83.132812 M 125.441406 84.253906 C 125.441406 84.289062 125.582031 84.429688 125.75 84.5625 C 126.027344 84.78125 126.035156 84.777344 125.816406 84.496094 C 125.585938 84.203125 125.441406 84.109375 125.441406 84.253906 "/>
</g>
</svg>
