<?xml version="1.0" encoding="UTF-8"?>
<svg xmlns="http://www.w3.org/2000/svg" xmlns:xlink="http://www.w3.org/1999/xlink" width="134px" height="70px" viewBox="0 0 134 70" version="1.1">
<g id="surface1">
<path style=" stroke:none;fill-rule:evenodd;fill:rgb(7.45098%,10.980392%,9.803922%);fill-opacity:1;" d="M 78.71875 18.328125 C 78.632812 18.488281 78.65625 18.984375 78.785156 19.800781 C 79.207031 22.382812 79.175781 28.855469 78.691406 39.453125 C 78.40625 45.628906 78.234375 47.660156 77.824219 49.65625 C 77.476562 51.351562 77.519531 51.300781 76.285156 51.496094 C 73.414062 51.949219 72.199219 52.367188 71.347656 53.1875 C 70.992188 53.527344 70.902344 53.726562 70.902344 54.148438 C 70.902344 54.851562 71.257812 55.332031 72.15625 55.824219 C 72.792969 56.175781 73.023438 56.226562 73.980469 56.222656 C 74.804688 56.21875 75.230469 56.148438 75.691406 55.929688 C 76.535156 55.535156 77.402344 54.621094 77.90625 53.601562 C 78.132812 53.136719 78.421875 52.664062 78.546875 52.550781 C 78.734375 52.382812 79.664062 52.332031 83.972656 52.257812 C 88.8125 52.171875 92.347656 52.261719 97.042969 52.589844 C 97.835938 52.644531 98.589844 52.664062 98.71875 52.628906 C 99.089844 52.539062 99.003906 52.105469 98.582031 51.933594 C 97.414062 51.449219 83.53125 50.886719 80.4375 51.195312 C 78.960938 51.34375 78.730469 51.242188 78.945312 50.535156 C 79.023438 50.277344 79.152344 49.683594 79.238281 49.210938 C 79.320312 48.742188 79.449219 48 79.527344 47.570312 C 79.734375 46.386719 79.9375 44.121094 80.011719 42.125 C 80.046875 41.144531 80.144531 39.417969 80.222656 38.289062 C 80.300781 37.15625 80.363281 32.894531 80.359375 28.8125 C 80.351562 21.53125 80.273438 20.007812 79.855469 18.835938 C 79.601562 18.128906 78.972656 17.847656 78.71875 18.328125 M 37.773438 18.597656 C 36.824219 19.070312 36.628906 19.210938 35.636719 20.140625 C 34.644531 21.074219 33.4375 22.457031 32.324219 23.941406 C 31.460938 25.089844 29.976562 27.324219 29.976562 27.476562 C 29.976562 27.523438 29.859375 27.722656 29.71875 27.925781 C 28.832031 29.175781 25.777344 35.363281 24.296875 38.902344 C 23.933594 39.769531 23.558594 40.664062 23.464844 40.890625 C 23.207031 41.503906 22.484375 43.449219 22.382812 43.796875 C 22.335938 43.960938 22.121094 44.246094 21.90625 44.425781 C 21.582031 44.699219 21.265625 44.777344 19.957031 44.910156 C 19.097656 44.996094 17.964844 45.074219 17.445312 45.078125 C 15.882812 45.09375 13.617188 45.394531 13.632812 45.585938 C 13.640625 45.679688 13.65625 45.816406 13.667969 45.890625 C 13.691406 46.0625 15.589844 46.070312 17.042969 45.902344 C 17.644531 45.832031 18.859375 45.738281 19.746094 45.691406 C 21.167969 45.613281 21.367188 45.632812 21.445312 45.832031 C 21.492188 45.957031 21.296875 46.777344 21.015625 47.652344 C 20.375 49.625 20.332031 49.78125 19.929688 51.300781 C 19.171875 54.203125 18.957031 55.308594 18.957031 56.371094 C 18.957031 57.296875 18.96875 57.328125 19.292969 57.328125 C 19.734375 57.328125 20.15625 56.703125 20.363281 55.738281 C 20.453125 55.332031 20.71875 54.136719 20.957031 53.082031 C 21.191406 52.027344 21.433594 50.949219 21.492188 50.683594 C 21.550781 50.421875 21.761719 49.621094 21.964844 48.902344 C 22.164062 48.1875 22.378906 47.410156 22.4375 47.175781 C 22.496094 46.941406 22.6875 46.46875 22.859375 46.125 C 23.21875 45.398438 23.035156 45.445312 26.621094 45.207031 C 29.15625 45.039062 31.757812 44.855469 34.285156 44.664062 C 38.457031 44.347656 41.050781 44.214844 41.390625 44.300781 C 42.09375 44.476562 42.136719 45.003906 42.015625 51.863281 C 41.96875 54.75 41.992188 55.484375 42.140625 55.664062 C 42.242188 55.789062 42.367188 55.890625 42.414062 55.886719 C 42.90625 55.875 43.054688 54.984375 43.25 50.820312 C 43.574219 44.015625 43.527344 44.3125 44.335938 43.976562 C 44.84375 43.765625 44.875 43.597656 44.421875 43.480469 C 44.234375 43.4375 44.011719 43.3125 43.925781 43.207031 C 43.808594 43.0625 43.773438 41.25 43.789062 36.335938 C 43.820312 28.507812 43.644531 25.882812 42.882812 22.738281 C 42.300781 20.332031 41.515625 18.941406 40.460938 18.441406 C 39.738281 18.097656 38.660156 18.160156 37.773438 18.597656 M 37.941406 19.332031 C 36.367188 20.113281 33.105469 24.265625 30.96875 28.21875 C 29.867188 30.253906 27.238281 35.601562 27.238281 35.808594 C 27.238281 35.84375 27.027344 36.324219 26.773438 36.875 C 26.273438 37.957031 24.695312 41.898438 24.25 43.179688 C 24.046875 43.761719 24.019531 43.992188 24.136719 44.089844 C 24.238281 44.175781 25.117188 44.175781 26.554688 44.097656 C 27.796875 44.027344 29.980469 43.910156 31.414062 43.839844 C 32.84375 43.769531 35.554688 43.617188 37.433594 43.5 C 39.316406 43.386719 41.046875 43.289062 41.277344 43.289062 C 41.507812 43.289062 41.804688 43.207031 41.9375 43.109375 C 42.167969 42.941406 42.183594 42.554688 42.179688 37.320312 C 42.171875 25.789062 41.527344 21.023438 39.761719 19.46875 C 39.183594 18.960938 38.757812 18.929688 37.941406 19.332031 M 49.070312 41.691406 C 48.632812 41.890625 48.125 42.347656 47.371094 43.222656 L 46.902344 43.765625 L 46.78125 43.316406 C 46.640625 42.78125 46.128906 42.519531 45.691406 42.753906 C 45.425781 42.894531 45.417969 43.003906 45.460938 45.058594 C 45.515625 47.359375 45.601562 47.671875 46.191406 47.671875 C 46.640625 47.671875 46.875 47.320312 47.277344 46.027344 C 47.90625 44.019531 48.683594 42.761719 49.179688 42.953125 C 49.367188 43.027344 49.824219 44.210938 49.824219 44.632812 C 49.824219 44.707031 49.988281 45.089844 50.1875 45.476562 C 50.796875 46.648438 51.78125 47.261719 53.054688 47.257812 C 53.960938 47.257812 54.894531 46.902344 56.664062 45.886719 L 57.144531 45.613281 L 57.242188 46.460938 C 57.371094 47.59375 57.726562 47.964844 58.765625 48.050781 C 59.714844 48.128906 60.488281 47.769531 61.464844 46.789062 L 62.160156 46.097656 L 62.4375 46.476562 C 63.515625 47.945312 67.523438 47.230469 70.144531 45.101562 C 71.023438 44.386719 71.664062 43.628906 71.484375 43.515625 C 71.421875 43.476562 71.15625 43.640625 70.894531 43.878906 C 70.03125 44.679688 69.359375 45.042969 67.421875 45.769531 C 66.535156 46.101562 64.949219 46.214844 64.335938 45.992188 C 64.058594 45.894531 63.761719 45.640625 63.609375 45.382812 C 63.375 44.980469 63.367188 44.855469 63.523438 43.917969 C 63.664062 43.085938 63.664062 42.855469 63.519531 42.679688 C 63.285156 42.398438 62.707031 42.40625 62.390625 42.691406 C 62.183594 42.878906 62.078125 42.890625 61.792969 42.761719 C 61.234375 42.507812 60.152344 42.570312 59.4375 42.902344 C 59.078125 43.066406 58.292969 43.605469 57.691406 44.105469 C 57.089844 44.605469 56.351562 45.15625 56.050781 45.328125 C 54.925781 45.984375 53.054688 46.234375 52.453125 45.8125 C 52.089844 45.558594 51.855469 45.027344 51.613281 43.902344 C 51.34375 42.671875 51.210938 42.292969 50.910156 41.933594 C 50.582031 41.539062 49.667969 41.417969 49.070312 41.691406 M 96.867188 42.246094 C 96.476562 42.609375 96.285156 43.328125 96.417969 43.9375 C 96.523438 44.40625 96.335938 44.605469 95.332031 45.101562 C 93.871094 45.828125 92.933594 46.078125 91.605469 46.085938 C 90.46875 46.09375 90.316406 46.066406 90.035156 45.78125 C 89.742188 45.492188 89.722656 45.371094 89.757812 44.042969 C 89.789062 42.816406 89.761719 42.601562 89.558594 42.488281 C 89.300781 42.34375 88.699219 42.511719 88.535156 42.777344 C 88.460938 42.898438 88.324219 42.894531 87.972656 42.769531 C 85.910156 42.023438 83.492188 43.964844 83.492188 46.371094 C 83.492188 47.003906 83.554688 47.1875 83.894531 47.566406 C 84.265625 47.984375 84.351562 48.011719 85.160156 48.007812 C 86.164062 48.003906 86.746094 47.699219 87.738281 46.660156 C 88.359375 46.007812 88.558594 45.898438 88.558594 46.210938 C 88.558594 46.4375 89.058594 46.886719 89.554688 47.097656 C 90.242188 47.390625 92.167969 47.238281 92.96875 46.832031 C 93.101562 46.765625 93.269531 46.710938 93.34375 46.710938 C 93.734375 46.710938 96.257812 45.328125 96.734375 44.851562 C 96.964844 44.621094 98.351562 44.585938 98.488281 44.808594 C 98.539062 44.890625 98.5 45.542969 98.402344 46.261719 C 98.234375 47.484375 98.238281 47.597656 98.488281 48.0625 C 98.996094 49.003906 100.035156 48.960938 101.1875 47.945312 C 101.804688 47.398438 102.109375 47.265625 102.109375 47.542969 C 102.109375 47.746094 102.980469 48.082031 103.507812 48.078125 C 104.21875 48.074219 105.078125 47.601562 105.890625 46.769531 C 106.304688 46.34375 106.660156 46.019531 106.683594 46.046875 C 106.707031 46.074219 106.800781 46.238281 106.890625 46.414062 C 107.265625 47.132812 108.828125 47.453125 110.285156 47.105469 C 111.261719 46.875 112.886719 46.199219 113.8125 45.640625 C 114.847656 45.019531 115.933594 44.015625 115.933594 43.679688 C 115.933594 43.324219 115.878906 43.347656 115.214844 44.007812 C 114.578125 44.632812 113.691406 45.125 112.167969 45.703125 C 111.035156 46.128906 109.121094 46.234375 108.5 45.902344 C 107.953125 45.613281 107.800781 44.976562 108.003906 43.835938 C 108.140625 43.070312 108.140625 42.847656 108 42.675781 C 107.769531 42.402344 107.378906 42.410156 106.894531 42.695312 C 106.570312 42.886719 106.4375 42.898438 106.148438 42.765625 C 104.667969 42.089844 102.480469 43.398438 101.914062 45.300781 C 101.511719 46.640625 101.40625 46.84375 100.832031 47.335938 C 100.21875 47.859375 100.035156 47.90625 99.777344 47.601562 C 99.644531 47.4375 99.636719 47.109375 99.757812 46.074219 C 99.878906 44.984375 99.871094 44.675781 99.707031 44.28125 C 99.519531 43.828125 99.488281 43.8125 98.925781 43.875 C 98.605469 43.914062 98.222656 43.96875 98.070312 43.992188 C 97.773438 44.046875 97.765625 43.984375 97.945312 42.890625 C 98.027344 42.390625 98 42.253906 97.792969 42.101562 C 97.4375 41.84375 97.273438 41.871094 96.867188 42.246094 M 60.292969 43.585938 C 59.5 44.023438 59.085938 44.6875 58.921875 45.804688 C 58.792969 46.660156 58.921875 46.984375 59.398438 46.984375 C 60.097656 46.984375 61.730469 44.875 61.730469 43.96875 C 61.730469 43.511719 60.847656 43.277344 60.292969 43.585938 M 86.234375 43.734375 C 85.441406 44.277344 84.871094 45.679688 85.070312 46.585938 C 85.144531 46.929688 85.222656 46.984375 85.613281 46.984375 C 85.984375 46.984375 86.179688 46.863281 86.679688 46.308594 C 87.324219 45.585938 88.011719 44.335938 88.011719 43.871094 C 88.011719 43.351562 86.914062 43.265625 86.234375 43.734375 M 104.546875 43.660156 C 104.09375 43.96875 103.613281 44.566406 103.613281 44.824219 C 103.613281 44.929688 103.550781 45.078125 103.46875 45.15625 C 103.390625 45.238281 103.34375 45.667969 103.367188 46.109375 C 103.40625 46.90625 103.414062 46.917969 103.839844 46.960938 C 104.199219 46.996094 104.371094 46.898438 104.84375 46.410156 C 105.6875 45.542969 106.4375 44.058594 106.214844 43.699219 C 106.035156 43.40625 104.957031 43.378906 104.546875 43.660156 M 75.144531 52.554688 C 74.460938 52.628906 72.953125 53.023438 72.511719 53.246094 C 72.035156 53.480469 71.894531 54.003906 72.1875 54.449219 C 72.542969 54.992188 73.191406 55.253906 74.207031 55.265625 C 75.027344 55.273438 75.167969 55.230469 75.640625 54.851562 C 76.175781 54.417969 76.757812 53.433594 76.820312 52.855469 C 76.851562 52.5625 76.800781 52.53125 76.238281 52.519531 C 75.898438 52.511719 75.40625 52.527344 75.144531 52.554688 M 49.230469 61.480469 C 48.835938 61.894531 48.757812 62.191406 49.042969 62.191406 C 49.277344 62.191406 50.128906 61.308594 50.007812 61.191406 C 49.828125 61.011719 49.597656 61.097656 49.230469 61.480469 M 33.972656 61.398438 C 33.855469 61.511719 33.808594 62.289062 33.808594 64.011719 C 33.808594 66.269531 33.828125 66.453125 34.046875 66.414062 C 34.238281 66.375 34.296875 66.199219 34.328125 65.511719 L 34.367188 64.65625 L 35.183594 64.65625 C 35.925781 64.65625 36.050781 64.613281 36.511719 64.1875 C 36.984375 63.757812 37.023438 63.660156 37.023438 62.96875 C 37.023438 62.125 36.777344 61.734375 36.035156 61.417969 C 35.492188 61.1875 34.195312 61.175781 33.972656 61.398438 M 70.136719 61.492188 C 69.523438 61.867188 69.3125 62.453125 69.597656 63.003906 C 69.851562 63.496094 70.542969 63.972656 71.011719 63.972656 C 71.640625 63.972656 72.398438 64.589844 72.402344 65.109375 C 72.40625 65.246094 72.246094 65.511719 72.054688 65.707031 C 71.746094 66.015625 71.617188 66.050781 71.019531 65.996094 C 70.53125 65.949219 70.234375 65.828125 69.964844 65.566406 C 69.519531 65.140625 69.394531 65.117188 69.394531 65.453125 C 69.394531 66.085938 70.511719 66.664062 71.480469 66.535156 C 72.3125 66.421875 72.816406 65.867188 72.816406 65.070312 C 72.816406 64.261719 72.367188 63.804688 71.347656 63.566406 C 70.542969 63.378906 69.941406 62.976562 69.941406 62.625 C 69.941406 62.496094 70.039062 62.253906 70.15625 62.085938 C 70.449219 61.664062 71.691406 61.644531 72.0625 62.054688 C 72.199219 62.207031 72.429688 62.328125 72.570312 62.328125 C 72.785156 62.328125 72.804688 62.285156 72.675781 62.046875 C 72.273438 61.292969 70.9375 61.003906 70.136719 61.492188 M 51.828125 61.460938 C 51.78125 61.511719 51.738281 62.4375 51.738281 63.523438 C 51.738281 65.011719 51.789062 65.589844 51.945312 65.894531 C 52.167969 66.328125 52.621094 66.636719 52.835938 66.503906 C 53.007812 66.398438 53.011719 66.027344 52.84375 66.027344 C 52.773438 66.027344 52.621094 65.929688 52.5 65.8125 C 52.324219 65.636719 52.285156 65.222656 52.285156 63.484375 C 52.285156 61.8125 52.246094 61.371094 52.105469 61.371094 C 52.003906 61.371094 51.878906 61.410156 51.828125 61.460938 M 41.535156 61.65625 C 41.40625 61.863281 41.683594 62.109375 41.941406 62.007812 C 42.0625 61.964844 42.15625 61.832031 42.15625 61.714844 C 42.15625 61.476562 41.671875 61.429688 41.535156 61.65625 M 83.082031 61.78125 C 83.082031 62.007812 83.152344 62.0625 83.390625 62.03125 C 83.558594 62.007812 83.699219 61.894531 83.699219 61.78125 C 83.699219 61.667969 83.558594 61.554688 83.390625 61.53125 C 83.152344 61.496094 83.082031 61.554688 83.082031 61.78125 M 95.402344 61.78125 C 95.402344 61.964844 95.492188 62.054688 95.675781 62.054688 C 95.859375 62.054688 95.949219 61.964844 95.949219 61.78125 C 95.949219 61.597656 95.859375 61.507812 95.675781 61.507812 C 95.492188 61.507812 95.402344 61.597656 95.402344 61.78125 M 34.382812 62.910156 L 34.425781 64.042969 L 35.117188 64.082031 C 36.0625 64.136719 36.546875 63.773438 36.546875 62.996094 C 36.546875 62.167969 36.089844 61.78125 35.109375 61.78125 L 34.34375 61.78125 L 34.382812 62.910156 M 85.109375 62.355469 C 85.074219 62.847656 85.015625 62.953125 84.757812 62.988281 C 84.351562 63.046875 84.367188 63.261719 84.792969 63.425781 C 85.117188 63.546875 85.136719 63.613281 85.136719 64.589844 C 85.136719 65.773438 85.332031 66.199219 85.980469 66.425781 C 86.738281 66.691406 86.929688 66.203125 86.195312 65.878906 C 85.753906 65.683594 85.75 65.683594 85.710938 64.5625 L 85.671875 63.441406 L 86.121094 63.398438 C 86.679688 63.347656 86.699219 63.105469 86.15625 63.011719 C 85.804688 62.953125 85.742188 62.875 85.683594 62.398438 C 85.636719 62.03125 85.539062 61.835938 85.382812 61.808594 C 85.199219 61.773438 85.144531 61.886719 85.109375 62.355469 M 38.472656 62.972656 C 37.515625 63.472656 37.539062 64.179688 38.527344 64.640625 C 38.867188 64.800781 39.257812 64.929688 39.398438 64.929688 C 39.742188 64.929688 40.132812 65.386719 40.023438 65.667969 C 39.976562 65.789062 39.785156 65.929688 39.601562 65.976562 C 39.175781 66.082031 38.273438 65.941406 38.210938 65.757812 C 38.128906 65.511719 37.777344 65.605469 37.777344 65.875 C 37.777344 66.148438 38.621094 66.574219 39.164062 66.574219 C 39.722656 66.574219 40.355469 66.160156 40.449219 65.734375 C 40.589844 65.09375 40.234375 64.695312 39.28125 64.429688 C 38.425781 64.191406 38.148438 63.871094 38.46875 63.488281 C 38.679688 63.230469 39.429688 63.230469 39.769531 63.488281 C 39.917969 63.597656 40.113281 63.691406 40.207031 63.695312 C 40.492188 63.703125 40.398438 63.308594 40.0625 63.085938 C 39.542969 62.746094 38.984375 62.707031 38.472656 62.972656 M 44.285156 62.96875 C 43.5625 63.359375 43.253906 63.871094 43.253906 64.65625 C 43.253906 65.460938 43.570312 65.96875 44.3125 66.351562 C 44.84375 66.628906 45.175781 66.632812 45.789062 66.375 C 46.378906 66.128906 46.460938 65.691406 45.886719 65.855469 C 45.679688 65.910156 45.242188 65.957031 44.917969 65.953125 C 44.453125 65.953125 44.269531 65.878906 44.066406 65.613281 C 43.714844 65.15625 43.71875 64.148438 44.070312 63.726562 C 44.421875 63.304688 45.195312 63.183594 45.640625 63.476562 C 46.003906 63.714844 46.402344 63.769531 46.402344 63.582031 C 46.402344 63.304688 45.390625 62.734375 44.921875 62.746094 C 44.792969 62.75 44.507812 62.851562 44.285156 62.96875 M 48.363281 62.953125 C 46.554688 63.746094 47.140625 66.527344 49.113281 66.496094 C 49.898438 66.484375 50.40625 66.175781 50.714844 65.519531 C 51.195312 64.511719 50.757812 63.367188 49.722656 62.925781 C 49.191406 62.699219 48.925781 62.703125 48.363281 62.953125 M 54.816406 62.996094 C 54.175781 63.285156 54.027344 63.453125 53.785156 64.136719 C 53.453125 65.070312 54.089844 66.183594 55.136719 66.503906 C 55.683594 66.671875 56.371094 66.449219 56.875 65.949219 C 57.292969 65.53125 57.351562 65.386719 57.351562 64.78125 C 57.351562 63.859375 57.050781 63.324219 56.347656 63.007812 C 55.640625 62.683594 55.503906 62.683594 54.816406 62.996094 M 59.277344 62.984375 C 58.546875 63.351562 58.246094 63.859375 58.257812 64.714844 C 58.273438 65.601562 58.570312 66.0625 59.328125 66.375 C 59.964844 66.632812 60.59375 66.554688 61.015625 66.164062 C 61.175781 66.015625 61.339844 65.953125 61.386719 66.023438 C 61.511719 66.226562 61.097656 67.085938 60.792969 67.25 C 60.320312 67.503906 59.339844 67.433594 59.0625 67.125 C 58.796875 66.832031 58.445312 66.757812 58.445312 66.992188 C 58.445312 67.28125 59.113281 67.792969 59.605469 67.886719 C 60.382812 68.03125 61.121094 67.75 61.523438 67.15625 C 61.828125 66.707031 61.867188 66.503906 61.867188 65.433594 C 61.867188 63.914062 61.65625 63.410156 60.851562 63.019531 C 60.160156 62.683594 59.894531 62.679688 59.277344 62.984375 M 63.8125 63.011719 C 63.367188 63.214844 63.164062 63.417969 62.960938 63.863281 C 62.625 64.605469 62.625 64.816406 62.953125 65.464844 C 63.4375 66.410156 64.269531 66.742188 65.242188 66.367188 C 65.738281 66.179688 65.890625 66.167969 65.976562 66.304688 C 66.035156 66.398438 66.179688 66.441406 66.300781 66.394531 C 66.472656 66.328125 66.519531 66.101562 66.519531 65.339844 C 66.519531 64.0625 66.183594 63.371094 65.382812 63.007812 C 64.667969 62.683594 64.539062 62.683594 63.8125 63.011719 M 74.71875 63.011719 C 74.023438 63.382812 73.773438 63.824219 73.773438 64.710938 C 73.773438 65.371094 73.828125 65.519531 74.226562 65.9375 C 74.824219 66.574219 75.492188 66.703125 76.246094 66.328125 C 76.707031 66.101562 76.816406 66.085938 76.878906 66.246094 C 76.976562 66.503906 77.285156 66.492188 77.386719 66.222656 C 77.433594 66.101562 77.472656 65.660156 77.472656 65.238281 C 77.472656 64.152344 77.074219 63.386719 76.324219 63.023438 C 75.613281 62.679688 75.355469 62.675781 74.71875 63.011719 M 79.457031 62.945312 C 79.179688 63.066406 78.992188 63.082031 78.878906 62.988281 C 78.519531 62.695312 78.429688 63.054688 78.429688 64.742188 C 78.429688 66.304688 78.449219 66.453125 78.667969 66.414062 C 78.871094 66.375 78.917969 66.164062 78.976562 65.105469 C 79.058594 63.601562 79.21875 63.355469 80.128906 63.355469 C 81.128906 63.355469 81.304688 63.628906 81.304688 65.167969 C 81.304688 66.324219 81.328125 66.453125 81.542969 66.414062 C 81.742188 66.375 81.789062 66.1875 81.820312 65.242188 C 81.867188 63.941406 81.675781 63.429688 80.988281 63.007812 C 80.488281 62.703125 80.042969 62.683594 79.457031 62.945312 M 88.761719 62.90625 C 87.863281 63.21875 87.363281 64.082031 87.527344 65.039062 C 87.640625 65.679688 87.992188 66.113281 88.613281 66.371094 C 89.253906 66.640625 89.488281 66.628906 90.101562 66.300781 C 90.546875 66.0625 90.628906 66.050781 90.699219 66.230469 C 90.742188 66.34375 90.867188 66.4375 90.980469 66.4375 C 91.148438 66.4375 91.175781 66.222656 91.136719 65.148438 C 91.09375 63.996094 91.054688 63.816406 90.746094 63.492188 C 90.414062 63.136719 89.636719 62.730469 89.328125 62.75 C 89.242188 62.757812 88.988281 62.824219 88.761719 62.90625 M 93.167969 62.960938 C 92.886719 63.113281 92.734375 63.128906 92.605469 63.019531 C 92.230469 62.710938 92.105469 63.203125 92.144531 64.8125 C 92.179688 66.164062 92.214844 66.371094 92.425781 66.414062 C 92.640625 66.453125 92.664062 66.324219 92.664062 65.15625 C 92.664062 63.914062 92.679688 63.84375 93.023438 63.570312 C 93.230469 63.410156 93.585938 63.289062 93.859375 63.289062 C 94.238281 63.289062 94.320312 63.242188 94.253906 63.070312 C 94.207031 62.953125 94.167969 62.828125 94.167969 62.796875 C 94.167969 62.664062 93.523438 62.765625 93.167969 62.960938 M 98.273438 62.921875 C 97.324219 63.363281 97.042969 63.789062 97.042969 64.78125 C 97.042969 65.386719 97.101562 65.527344 97.519531 65.949219 C 98.136719 66.566406 98.808594 66.703125 99.488281 66.355469 C 99.761719 66.21875 100.03125 66.082031 100.089844 66.054688 C 100.144531 66.027344 100.191406 66.105469 100.191406 66.230469 C 100.191406 66.375 100.28125 66.441406 100.429688 66.410156 C 100.636719 66.371094 100.671875 66.203125 100.667969 65.269531 C 100.667969 63.90625 100.460938 63.457031 99.648438 63.046875 C 98.972656 62.707031 98.777344 62.6875 98.273438 62.921875 M 41.609375 64.644531 C 41.609375 66.164062 41.640625 66.4375 41.820312 66.4375 C 42 66.4375 42.023438 66.1875 41.992188 64.703125 C 41.964844 63.464844 41.902344 62.953125 41.78125 62.910156 C 41.648438 62.867188 41.609375 63.273438 41.609375 64.644531 M 83.167969 63.085938 C 83.121094 63.210938 83.082031 63.9375 83.085938 64.703125 C 83.085938 66.121094 83.214844 66.636719 83.492188 66.355469 C 83.695312 66.15625 83.617188 62.984375 83.40625 62.917969 C 83.324219 62.886719 83.214844 62.964844 83.167969 63.085938 M 95.492188 62.96875 C 95.441406 63.019531 95.402344 63.820312 95.402344 64.75 C 95.402344 66.101562 95.441406 66.4375 95.59375 66.4375 C 95.886719 66.4375 95.949219 66.117188 95.949219 64.65625 C 95.949219 63.058594 95.832031 62.628906 95.492188 62.96875 M 48.457031 63.464844 C 47.976562 63.707031 47.746094 64.21875 47.824219 64.863281 C 47.980469 66.191406 49.71875 66.484375 50.289062 65.277344 C 50.59375 64.640625 50.476562 64.085938 49.9375 63.632812 C 49.488281 63.253906 48.984375 63.195312 48.457031 63.464844 M 54.929688 63.417969 C 54.558594 63.574219 54.203125 64.234375 54.203125 64.753906 C 54.203125 65.628906 55.257812 66.25 56.160156 65.902344 C 56.914062 65.613281 57.121094 64.382812 56.527344 63.699219 C 56.238281 63.363281 55.402344 63.21875 54.929688 63.417969 M 59.121094 63.6875 C 57.964844 64.84375 59.363281 66.632812 60.769531 65.800781 C 61.324219 65.472656 61.554688 64.699219 61.265625 64.140625 C 60.785156 63.203125 59.808594 63 59.121094 63.6875 M 63.75 63.6875 C 63.355469 64.042969 63.308594 64.160156 63.328125 64.734375 C 63.363281 65.625 63.707031 65.957031 64.59375 65.957031 C 65.386719 65.957031 65.769531 65.675781 65.898438 64.992188 C 66.007812 64.398438 65.679688 63.660156 65.207031 63.445312 C 64.652344 63.191406 64.226562 63.261719 63.75 63.6875 M 75.007812 63.390625 C 74.226562 63.695312 73.949219 65.109375 74.566406 65.648438 C 75.207031 66.210938 76.25 66.105469 76.65625 65.4375 C 76.960938 64.933594 76.992188 64.546875 76.761719 64.039062 C 76.496094 63.453125 75.644531 63.140625 75.007812 63.390625 M 88.742188 63.421875 C 87.933594 63.75 87.75 64.964844 88.410156 65.628906 C 89.117188 66.335938 90.199219 66.0625 90.609375 65.074219 C 91.042969 64.027344 89.851562 62.976562 88.742188 63.421875 M 98.101562 63.523438 C 97.558594 63.871094 97.367188 64.589844 97.640625 65.246094 C 98.179688 66.539062 100.191406 66.09375 100.191406 64.683594 C 100.191406 63.601562 99.003906 62.945312 98.101562 63.523438 "/>
<path style=" stroke:none;fill-rule:evenodd;fill:rgb(1.568627%,83.921569%,68.235294%);fill-opacity:1;" d="M 132.039062 0.777344 C 131.902344 0.914062 131.929688 1.480469 132.074219 1.570312 C 132.21875 1.65625 132.632812 1.128906 132.632812 0.859375 C 132.632812 0.679688 132.199219 0.617188 132.039062 0.777344 M 126.296875 0.921875 C 125.984375 0.96875 125.835938 1.144531 125.441406 1.921875 C 125.046875 2.710938 124.832031 2.957031 124.179688 3.390625 C 123.746094 3.675781 123.316406 4.070312 123.222656 4.261719 C 123.027344 4.671875 119.945312 7.5625 118.121094 9.042969 C 117.425781 9.605469 116.785156 10.132812 116.703125 10.214844 C 114.476562 12.304688 109.578125 15.886719 108.574219 16.15625 C 108.046875 16.296875 107.035156 17.101562 107.035156 17.382812 C 107.035156 17.464844 107.191406 17.535156 107.378906 17.535156 C 107.566406 17.535156 107.71875 17.601562 107.71875 17.683594 C 107.71875 18.019531 107.242188 18.605469 106.621094 19.03125 C 105.429688 19.84375 105.070312 19.597656 105.933594 18.554688 C 106.234375 18.191406 106.441406 17.855469 106.398438 17.816406 C 106.351562 17.773438 106.285156 17.816406 106.253906 17.910156 C 106.21875 18.003906 106.121094 18.085938 106.03125 18.085938 C 105.703125 18.097656 104.980469 18.871094 104.695312 19.519531 C 104.367188 20.261719 103.21875 21.558594 102.613281 21.871094 C 102.375 21.996094 102.070312 22.039062 101.824219 21.984375 C 101.5 21.914062 101.308594 21.984375 100.839844 22.347656 C 100.523438 22.597656 100.230469 22.835938 100.191406 22.882812 C 100.15625 22.925781 99.785156 23.214844 99.371094 23.515625 C 98.957031 23.820312 98.34375 24.300781 98.011719 24.578125 C 97.433594 25.0625 94.808594 26.847656 94.671875 26.847656 C 94.636719 26.847656 94.21875 27.085938 93.738281 27.375 C 93.261719 27.664062 92.332031 28.167969 91.671875 28.492188 C 91.011719 28.820312 90.472656 29.140625 90.472656 29.207031 C 90.472656 29.273438 90.121094 29.488281 89.6875 29.679688 C 89.253906 29.871094 88.867188 30.066406 88.832031 30.117188 C 88.609375 30.40625 88.210938 30.589844 87.71875 30.632812 C 87.40625 30.660156 87.085938 30.738281 87 30.804688 C 86.917969 30.875 86.46875 31.121094 86.011719 31.355469 C 85.375 31.675781 84.867188 31.8125 83.890625 31.917969 C 83.183594 31.996094 82.355469 32.121094 82.054688 32.199219 C 80.734375 32.546875 80.558594 32.582031 80.457031 32.519531 C 80.394531 32.480469 80.34375 33.359375 80.34375 34.46875 C 80.34375 35.582031 80.285156 37.328125 80.210938 38.347656 C 80.050781 40.585938 79.960938 43.808594 80.070312 43.5 C 80.109375 43.378906 80.328125 43.179688 80.554688 43.054688 C 81.777344 42.382812 82.203125 42.191406 82.496094 42.191406 C 82.675781 42.191406 83.050781 42.078125 83.328125 41.941406 C 84.09375 41.5625 85.980469 40.535156 86.367188 40.28125 C 86.554688 40.160156 86.863281 39.996094 87.050781 39.917969 C 87.507812 39.730469 88.585938 39.179688 89.535156 38.648438 C 89.960938 38.410156 90.839844 38.03125 91.484375 37.804688 C 92.132812 37.582031 92.941406 37.183594 93.289062 36.917969 C 93.632812 36.65625 94.082031 36.402344 94.28125 36.359375 C 94.933594 36.214844 94.980469 36.183594 95.171875 35.726562 C 95.402344 35.171875 95.589844 35.015625 96.292969 34.792969 C 96.59375 34.699219 97.023438 34.558594 97.25 34.480469 C 97.851562 34.28125 99.699219 33.078125 100.875 32.121094 C 101.71875 31.433594 102.09375 31.230469 102.964844 30.980469 C 104.238281 30.617188 104.308594 30.585938 105.863281 29.757812 C 106.535156 29.398438 107.109375 29.027344 107.140625 28.9375 C 107.257812 28.585938 106.476562 28.78125 105.636719 29.3125 C 104.738281 29.886719 104.0625 30.042969 104.214844 29.644531 C 104.261719 29.527344 104.296875 29.40625 104.296875 29.382812 C 104.296875 29.355469 104.835938 28.949219 105.496094 28.476562 C 107.484375 27.050781 108.660156 26.03125 108.675781 25.71875 C 108.675781 25.664062 108.523438 25.617188 108.335938 25.617188 C 107.902344 25.617188 107.871094 25.191406 108.277344 24.78125 C 108.746094 24.316406 108.46875 24.324219 107.78125 24.796875 C 107.125 25.25 106.222656 26.097656 105.734375 26.71875 C 105.523438 26.992188 103.546875 28.082031 103.265625 28.082031 C 103.234375 28.082031 102.871094 28.296875 102.460938 28.5625 C 102.046875 28.824219 101.640625 29.042969 101.554688 29.042969 C 101.464844 29.042969 101.089844 29.195312 100.714844 29.382812 C 100.339844 29.570312 99.957031 29.726562 99.863281 29.726562 C 99.769531 29.726562 99.402344 30.003906 99.050781 30.34375 C 98.585938 30.789062 98.296875 30.957031 98.003906 30.957031 C 97.757812 30.957031 97.230469 31.199219 96.648438 31.574219 C 95.589844 32.257812 95.324219 32.320312 95.195312 31.917969 C 95.078125 31.546875 94.636719 31.570312 93.964844 31.980469 C 92.824219 32.675781 92.085938 33.027344 91.527344 33.144531 C 91.210938 33.207031 90.480469 33.4375 89.902344 33.652344 C 89.324219 33.863281 88.8125 34 88.761719 33.949219 C 88.644531 33.832031 90 31.972656 90.28125 31.863281 C 90.398438 31.816406 90.625 31.78125 90.78125 31.78125 C 91.148438 31.78125 92.210938 31.160156 92.378906 30.84375 C 92.449219 30.710938 92.835938 30.4375 93.234375 30.234375 C 93.851562 29.921875 95.863281 28.5 96.085938 28.222656 C 96.125 28.175781 96.402344 27.953125 96.703125 27.734375 C 97.003906 27.511719 97.28125 27.296875 97.316406 27.261719 C 97.355469 27.222656 97.746094 26.921875 98.1875 26.59375 C 98.628906 26.265625 99.089844 25.875 99.214844 25.730469 C 99.570312 25.304688 100.644531 24.574219 101.65625 24.058594 C 102.285156 23.742188 102.789062 23.351562 103.21875 22.855469 C 103.5625 22.453125 104.210938 21.878906 104.65625 21.578125 C 105.097656 21.277344 105.492188 21 105.53125 20.960938 C 105.871094 20.601562 107.460938 19.351562 108.382812 18.714844 C 109.011719 18.277344 109.65625 17.8125 109.820312 17.675781 C 109.984375 17.539062 110.515625 17.097656 111.003906 16.691406 C 112.691406 15.289062 114.222656 14.167969 114.90625 13.832031 C 115.28125 13.652344 115.867188 13.285156 116.203125 13.015625 C 116.542969 12.75 116.882812 12.488281 116.957031 12.429688 C 117.035156 12.371094 117.375 12.109375 117.710938 11.847656 C 118.050781 11.585938 118.441406 11.371094 118.578125 11.371094 C 118.71875 11.371094 119.210938 10.960938 119.675781 10.460938 C 120.136719 9.960938 121.070312 9.085938 121.75 8.511719 C 123.191406 7.292969 123.238281 7.242188 123.597656 6.457031 C 123.824219 5.957031 123.90625 5.882812 124.070312 6.023438 C 124.3125 6.226562 124.75 6.101562 125.320312 5.664062 C 125.554688 5.488281 125.789062 5.34375 125.84375 5.34375 C 126.269531 5.34375 128.796875 3.101562 128.796875 2.722656 C 128.796875 2.578125 128.90625 2.292969 129.035156 2.097656 L 129.269531 1.734375 L 128.863281 1.832031 C 128.632812 1.882812 128.21875 2.191406 127.910156 2.539062 C 127.292969 3.230469 126.882812 3.339844 126.882812 2.816406 C 126.882812 2.601562 127.109375 2.25 127.507812 1.847656 C 127.957031 1.394531 128.09375 1.167969 127.996094 1.046875 C 127.855469 0.882812 127.007812 0.820312 126.296875 0.921875 M 131.242188 6.0625 C 131.011719 6.246094 130.441406 7.046875 130.441406 7.179688 C 130.441406 7.34375 130.683594 7.25 131.308594 6.835938 C 131.96875 6.398438 132.105469 6.117188 131.730469 5.972656 C 131.453125 5.867188 131.488281 5.863281 131.242188 6.0625 M 105.8125 7.386719 C 105.65625 7.542969 105.53125 7.738281 105.53125 7.820312 C 105.53125 7.960938 104.191406 10.097656 103.878906 10.453125 C 103.796875 10.542969 102.929688 11.695312 101.949219 13.015625 C 100.964844 14.332031 100.121094 15.441406 100.074219 15.480469 C 100.027344 15.515625 99.648438 15.945312 99.234375 16.433594 C 97.773438 18.148438 95.355469 20.402344 93.703125 21.585938 C 93.378906 21.820312 92.964844 22.148438 92.785156 22.320312 C 92.207031 22.871094 91.664062 23.25 90.40625 23.976562 C 89.726562 24.371094 89.007812 24.792969 88.804688 24.914062 C 86.246094 26.453125 85.246094 27.011719 83.171875 28.074219 C 81.832031 28.757812 80.683594 29.316406 80.617188 29.316406 C 80.546875 29.316406 80.472656 28.804688 80.449219 28.183594 C 80.421875 27.5625 80.40625 28.175781 80.410156 29.542969 C 80.410156 30.910156 80.453125 31.964844 80.503906 31.886719 C 80.695312 31.574219 82.972656 30.402344 83.902344 30.132812 C 84.242188 30.035156 84.796875 29.816406 85.136719 29.652344 C 85.476562 29.484375 86.152344 29.179688 86.640625 28.976562 C 87.917969 28.445312 88.230469 28.289062 89.378906 27.621094 C 89.945312 27.289062 91.238281 26.597656 92.253906 26.082031 C 93.269531 25.5625 94.132812 25.105469 94.167969 25.0625 C 94.207031 25.019531 94.578125 24.78125 94.992188 24.535156 C 95.871094 24.003906 96.632812 23.3125 96.632812 23.046875 C 96.632812 22.808594 96.285156 22.910156 95.234375 23.453125 C 94.1875 23.996094 93.894531 23.796875 94.410156 22.886719 C 94.542969 22.652344 94.835938 22.40625 95.070312 22.328125 C 95.445312 22.203125 96.703125 20.976562 99.671875 17.84375 C 100.390625 17.085938 100.542969 16.984375 101.003906 16.984375 C 101.644531 16.984375 102.105469 16.589844 102.492188 15.710938 C 102.648438 15.359375 103.140625 14.652344 103.585938 14.132812 C 104.546875 13.015625 105.253906 12.007812 105.257812 11.757812 C 105.261719 11.367188 105.625 10.566406 106.25 9.566406 C 106.9375 8.460938 107.023438 8.160156 106.695312 8.03125 C 106.582031 7.988281 106.488281 7.835938 106.488281 7.691406 C 106.488281 7.546875 106.398438 7.359375 106.292969 7.269531 C 106.136719 7.136719 106.039062 7.164062 105.8125 7.386719 M 71.859375 8.171875 C 71.21875 8.65625 70.554688 9.15625 70.378906 9.285156 C 70.199219 9.417969 70.007812 9.757812 69.941406 10.066406 C 69.707031 11.125 70.21875 10.984375 71.058594 9.761719 C 71.324219 9.375 71.5625 9.175781 71.761719 9.175781 C 72.171875 9.171875 72.285156 9.074219 72.753906 8.320312 C 72.976562 7.964844 73.207031 7.671875 73.261719 7.671875 C 73.320312 7.671875 73.363281 7.578125 73.363281 7.464844 C 73.363281 7.117188 73.066406 7.257812 71.859375 8.171875 M 77.382812 11.578125 C 76.996094 11.835938 76.496094 12.152344 76.265625 12.289062 C 76.039062 12.421875 75.308594 12.902344 74.644531 13.355469 C 73.058594 14.433594 72.878906 14.519531 72.273438 14.519531 C 71.476562 14.519531 70.917969 14.769531 69.746094 15.644531 C 68.921875 16.261719 68.585938 16.4375 68.347656 16.378906 C 68.097656 16.3125 67.992188 16.382812 67.820312 16.710938 C 67.605469 17.128906 67.296875 17.246094 67.128906 16.976562 C 67.074219 16.882812 66.945312 16.929688 66.773438 17.113281 C 66.628906 17.269531 66.34375 17.398438 66.136719 17.398438 C 65.902344 17.398438 65.515625 17.601562 65.097656 17.945312 C 64.339844 18.574219 63.757812 18.871094 63.171875 18.929688 C 62.800781 18.96875 62.578125 19.207031 62.371094 19.792969 C 62.339844 19.878906 62.246094 19.867188 62.117188 19.761719 C 61.976562 19.644531 61.871094 19.636719 61.769531 19.742188 C 61.667969 19.84375 61.546875 19.835938 61.355469 19.714844 C 61.125 19.570312 60.980469 19.617188 60.332031 20.046875 C 59.871094 20.355469 59.414062 20.546875 59.15625 20.546875 C 58.921875 20.546875 58.558594 20.617188 58.347656 20.703125 C 58.136719 20.785156 57.84375 20.902344 57.691406 20.957031 C 56.804688 21.289062 55.871094 21.761719 55.460938 22.089844 C 55.175781 22.316406 54.816406 22.464844 54.558594 22.46875 C 54.324219 22.46875 53.859375 22.566406 53.523438 22.683594 C 53.1875 22.800781 52.417969 22.960938 51.8125 23.035156 C 51.074219 23.132812 50.398438 23.328125 49.753906 23.632812 C 49.21875 23.886719 48.371094 24.152344 47.835938 24.234375 C 47.3125 24.316406 46.480469 24.503906 45.988281 24.65625 C 45.007812 24.957031 44.152344 25.007812 43.585938 24.792969 C 43.273438 24.671875 43.234375 24.683594 43.304688 24.875 C 43.351562 24.996094 43.453125 25.8125 43.527344 26.691406 C 43.773438 29.515625 43.835938 29.996094 43.949219 29.921875 C 44.011719 29.882812 44.3125 30.007812 44.613281 30.199219 C 45.261719 30.609375 45.988281 30.652344 46.761719 30.320312 C 47.4375 30.03125 48.78125 29.746094 49.253906 29.789062 C 49.453125 29.808594 50.445312 29.929688 51.457031 30.066406 C 53.238281 30.300781 54.589844 30.300781 56.804688 30.066406 C 58.144531 29.921875 58.210938 29.894531 58.109375 29.5 C 58.0625 29.308594 57.921875 28.996094 57.800781 28.808594 C 57.621094 28.539062 57.5 28.484375 57.191406 28.546875 C 56.90625 28.601562 56.804688 28.570312 56.804688 28.421875 C 56.804688 28.308594 56.6875 28.101562 56.542969 27.960938 C 56.324219 27.738281 56.144531 27.710938 55.378906 27.773438 C 54.632812 27.832031 54.476562 27.808594 54.476562 27.636719 C 54.476562 27.371094 54.625 27.261719 55.777344 26.679688 C 56.957031 26.085938 58.671875 25.644531 61.320312 25.261719 C 61.660156 25.210938 62.234375 25.023438 62.597656 24.84375 C 63.375 24.464844 63.675781 24.441406 64.128906 24.738281 C 64.3125 24.859375 64.722656 24.953125 65.046875 24.945312 C 65.367188 24.941406 65.929688 24.933594 66.292969 24.933594 C 67.105469 24.929688 67.753906 24.53125 67.753906 24.03125 C 67.753906 23.710938 67.714844 23.699219 66.820312 23.699219 C 65.824219 23.699219 65.5625 23.566406 65.5625 23.054688 C 65.5625 22.585938 64.953125 22.640625 63.6875 23.226562 C 62.8125 23.632812 62.574219 23.691406 62.3125 23.570312 C 62.136719 23.492188 61.761719 23.425781 61.480469 23.425781 C 61.035156 23.425781 60.949219 23.480469 60.808594 23.84375 C 60.671875 24.210938 60.617188 24.246094 60.378906 24.117188 C 60.03125 23.933594 59.027344 23.933594 57.679688 24.121094 C 56.898438 24.230469 56.542969 24.226562 56.328125 24.113281 C 56.078125 23.976562 55.96875 24.019531 55.554688 24.410156 C 55.050781 24.882812 54.144531 25.207031 53.300781 25.207031 C 52.863281 25.207031 52.824219 25.175781 52.902344 24.898438 C 53.027344 24.457031 53.914062 23.699219 54.304688 23.699219 C 54.484375 23.699219 54.972656 23.457031 55.382812 23.160156 C 56.503906 22.359375 60.511719 20.820312 61.484375 20.820312 C 61.644531 20.820312 61.964844 20.675781 62.195312 20.5 C 62.605469 20.191406 63.195312 19.949219 63.921875 19.800781 C 64.109375 19.765625 64.785156 19.417969 65.425781 19.03125 C 66.726562 18.25 67.480469 17.824219 68.984375 17.023438 C 69.550781 16.722656 70.289062 16.3125 70.628906 16.117188 C 70.964844 15.917969 71.386719 15.757812 71.558594 15.753906 C 71.742188 15.753906 72.066406 15.550781 72.328125 15.273438 C 72.609375 14.976562 72.910156 14.792969 73.121094 14.792969 C 73.3125 14.792969 73.613281 14.683594 73.792969 14.546875 C 73.96875 14.40625 74.886719 13.910156 75.828125 13.441406 C 76.917969 12.894531 77.726562 12.390625 78.050781 12.050781 C 78.996094 11.070312 78.589844 10.785156 77.382812 11.578125 M 66.144531 13.226562 C 66.050781 13.328125 65.972656 13.492188 65.972656 13.585938 C 65.972656 13.683594 66.070312 13.617188 66.191406 13.445312 C 66.441406 13.09375 66.40625 12.941406 66.144531 13.226562 M 119.683594 15.800781 C 118.867188 16.144531 118.53125 16.394531 118.53125 16.664062 C 118.53125 17.132812 119.140625 17.007812 119.917969 16.382812 C 120.113281 16.226562 120.40625 16.003906 120.566406 15.894531 C 121.265625 15.414062 120.726562 15.355469 119.683594 15.800781 M 2.738281 16.289062 C 2.738281 16.347656 2.863281 16.511719 3.019531 16.648438 C 3.171875 16.789062 3.421875 17.121094 3.570312 17.390625 C 3.722656 17.65625 4.179688 18.113281 4.589844 18.398438 C 5.066406 18.730469 5.339844 19.019531 5.339844 19.1875 C 5.339844 19.453125 5.332031 19.453125 4.824219 19.175781 C 2.996094 18.171875 1.511719 17.4375 1.445312 17.503906 C 1.402344 17.546875 1.367188 18.492188 1.367188 19.609375 L 1.367188 21.636719 L 1.746094 21.875 C 2.605469 22.410156 2.652344 22.523438 2.664062 24.132812 C 2.671875 24.949219 2.636719 25.617188 2.589844 25.617188 C 2.542969 25.617188 2.261719 25.390625 1.96875 25.113281 L 1.4375 24.609375 L 1.394531 24.980469 C 1.359375 25.261719 1.5 25.515625 1.976562 26.046875 C 2.320312 26.429688 2.601562 26.800781 2.601562 26.875 C 2.601562 26.945312 2.96875 27.355469 3.421875 27.785156 C 3.957031 28.296875 4.242188 28.675781 4.242188 28.882812 C 4.242188 29.359375 4.503906 29.761719 4.75 29.664062 C 4.882812 29.613281 5.292969 29.832031 5.828125 30.238281 C 6.886719 31.039062 7.089844 31.507812 6.375 31.503906 C 6.058594 31.503906 5.265625 30.910156 4.425781 30.035156 C 3.921875 29.511719 3.558594 29.304688 3.558594 29.535156 C 3.558594 29.828125 4.367188 31.019531 4.777344 31.332031 C 5.59375 31.945312 6.707031 33.042969 6.707031 33.226562 C 6.707031 33.324219 6.636719 33.425781 6.550781 33.453125 C 6.457031 33.484375 6.628906 33.851562 6.972656 34.355469 C 7.289062 34.820312 7.53125 35.269531 7.503906 35.347656 C 7.476562 35.425781 7.101562 35.140625 6.671875 34.714844 C 6.089844 34.144531 5.886719 33.84375 5.886719 33.5625 C 5.886719 33.144531 5.363281 32.429688 5.253906 32.691406 C 5.21875 32.78125 5.066406 32.988281 4.921875 33.160156 C 4.773438 33.328125 4.652344 33.511719 4.652344 33.5625 C 4.652344 33.777344 5.257812 34.410156 5.855469 34.820312 C 6.207031 35.0625 6.714844 35.460938 6.984375 35.707031 C 7.53125 36.199219 8.398438 36.621094 8.082031 36.238281 C 7.855469 35.96875 7.996094 35.59375 8.28125 35.703125 C 8.539062 35.804688 8.898438 36.457031 8.898438 36.832031 C 8.898438 37.121094 10.957031 38.761719 11.976562 39.285156 C 12.277344 39.4375 13.019531 39.953125 13.625 40.433594 C 14.230469 40.910156 15.246094 41.628906 15.882812 42.03125 C 16.519531 42.433594 17.5625 43.097656 18.203125 43.507812 C 18.84375 43.921875 19.507812 44.316406 19.675781 44.386719 C 20.015625 44.527344 20.078125 44.730469 19.8125 44.847656 C 19.71875 44.886719 20.042969 44.886719 20.53125 44.84375 C 21.921875 44.726562 22.101562 44.539062 22.867188 42.464844 C 23.101562 41.824219 23.371094 41.117188 23.464844 40.890625 C 23.558594 40.664062 23.933594 39.769531 24.296875 38.902344 C 25.742188 35.445312 28.78125 29.277344 29.695312 27.945312 C 29.824219 27.757812 29.964844 27.511719 30.007812 27.398438 C 30.050781 27.285156 30.476562 26.601562 30.957031 25.878906 C 31.457031 25.121094 31.738281 24.582031 31.621094 24.609375 C 31.507812 24.636719 31.167969 24.472656 30.863281 24.25 C 30.105469 23.6875 28.6875 23.015625 28.265625 23.015625 C 28.019531 23.015625 27.878906 23.113281 27.785156 23.355469 C 27.625 23.773438 27.390625 23.785156 26.335938 23.417969 C 25.890625 23.261719 25.28125 23.082031 24.980469 23.015625 C 24.679688 22.949219 24.003906 22.800781 23.484375 22.683594 C 22.214844 22.398438 22.070312 22.585938 23.144531 23.125 C 23.695312 23.398438 23.84375 23.898438 23.414062 24.011719 C 23.253906 24.050781 22.996094 23.976562 22.808594 23.824219 C 22.339844 23.457031 21.769531 23.234375 21.214844 23.199219 C 20.953125 23.183594 20.535156 23.125 20.292969 23.074219 C 19.738281 22.960938 19.707031 23.171875 20.210938 23.636719 C 20.679688 24.074219 20.550781 24.1875 19.816406 23.980469 C 19.496094 23.886719 19.066406 23.78125 18.867188 23.742188 C 18.667969 23.703125 18.300781 23.460938 18.054688 23.207031 C 17.804688 22.949219 17.519531 22.738281 17.417969 22.738281 C 17.3125 22.738281 16.890625 22.578125 16.472656 22.382812 C 15.9375 22.128906 15.675781 22.066406 15.570312 22.171875 C 15.464844 22.273438 15.320312 22.246094 15.070312 22.066406 C 14.875 21.929688 14.097656 21.519531 13.34375 21.15625 C 11.792969 20.402344 10.972656 19.921875 9.738281 19.050781 C 8.894531 18.453125 8.863281 18.441406 7.746094 18.433594 C 6.652344 18.425781 6.585938 18.40625 5.964844 17.917969 C 5.605469 17.640625 5.230469 17.449219 5.121094 17.488281 C 5.015625 17.53125 4.574219 17.324219 4.140625 17.035156 C 3.148438 16.367188 2.738281 16.152344 2.738281 16.289062 M 80.027344 16.574219 C 79.632812 16.992188 79.636719 17.261719 80.046875 17.257812 C 80.339844 17.25 80.804688 16.621094 80.703125 16.363281 C 80.59375 16.074219 80.460938 16.117188 80.027344 16.574219 M 120.097656 17.042969 C 119.785156 17.273438 119.949219 17.519531 120.277344 17.3125 C 120.53125 17.152344 120.671875 16.847656 120.488281 16.847656 C 120.417969 16.847656 120.246094 16.9375 120.097656 17.042969 M 118.832031 17.878906 C 118.550781 18.203125 118.445312 18.492188 118.605469 18.492188 C 118.839844 18.492188 119.355469 18.011719 119.355469 17.792969 C 119.355469 17.441406 119.1875 17.46875 118.832031 17.878906 M 39.25 18.171875 C 39.34375 18.210938 39.496094 18.210938 39.589844 18.171875 C 39.683594 18.136719 39.609375 18.105469 39.417969 18.105469 C 39.230469 18.105469 39.15625 18.136719 39.25 18.171875 M 116.171875 18.539062 C 115.628906 18.855469 115.496094 19.179688 115.910156 19.179688 C 116.191406 19.179688 116.808594 18.582031 116.734375 18.378906 C 116.707031 18.304688 116.453125 18.378906 116.171875 18.539062 M 54.269531 19.453125 C 54.214844 19.539062 54.234375 19.675781 54.308594 19.75 C 54.398438 19.839844 54.476562 19.832031 54.542969 19.726562 C 54.597656 19.636719 54.582031 19.503906 54.507812 19.429688 C 54.414062 19.335938 54.335938 19.34375 54.269531 19.453125 M 116.257812 20.058594 C 115.882812 20.386719 115.878906 20.402344 116.167969 20.40625 C 116.335938 20.410156 116.539062 20.285156 116.625 20.125 C 116.851562 19.699219 116.699219 19.667969 116.257812 20.058594 M 112.695312 20.757812 C 112.652344 20.875 112.328125 21.164062 111.980469 21.402344 C 110.886719 22.152344 110.675781 22.464844 111.546875 22.042969 C 111.84375 21.898438 112.15625 21.78125 112.242188 21.78125 C 112.527344 21.78125 113.308594 21.351562 113.386719 21.152344 C 113.503906 20.851562 113.328125 20.546875 113.039062 20.546875 C 112.894531 20.546875 112.738281 20.644531 112.695312 20.757812 M 34.476562 21.199219 C 34.304688 21.414062 34.308594 21.421875 34.527344 21.25 C 34.753906 21.070312 34.828125 20.957031 34.714844 20.957031 C 34.6875 20.957031 34.578125 21.066406 34.476562 21.199219 M 98.550781 21.644531 C 98.550781 21.816406 98.828125 21.816406 99.097656 21.644531 C 99.257812 21.539062 99.21875 21.511719 98.925781 21.507812 C 98.71875 21.507812 98.550781 21.570312 98.550781 21.644531 M 98.003906 21.917969 C 98.003906 21.992188 98.0625 22.054688 98.140625 22.054688 C 98.214844 22.054688 98.277344 21.992188 98.277344 21.917969 C 98.277344 21.84375 98.214844 21.78125 98.140625 21.78125 C 98.0625 21.78125 98.003906 21.84375 98.003906 21.917969 M 79.011719 22.535156 C 79.011719 22.835938 79.039062 22.941406 79.074219 22.773438 C 79.105469 22.601562 79.105469 22.355469 79.070312 22.222656 C 79.035156 22.09375 79.007812 22.234375 79.011719 22.535156 M 1.429688 22.511719 C 1.363281 22.679688 1.425781 22.859375 1.625 23.054688 C 1.96875 23.402344 2.019531 23.148438 1.714844 22.601562 C 1.542969 22.292969 1.515625 22.285156 1.429688 22.511719 M 109.535156 23.09375 C 109.289062 23.285156 109.089844 23.539062 109.089844 23.652344 C 109.089844 23.824219 109.167969 23.8125 109.535156 23.582031 C 110.078125 23.238281 110.453125 22.738281 110.167969 22.742188 C 110.0625 22.742188 109.777344 22.902344 109.535156 23.09375 M 68.53125 23.375 C 68.484375 23.421875 68.476562 23.511719 68.515625 23.574219 C 68.597656 23.714844 68.984375 23.578125 68.984375 23.410156 C 68.984375 23.269531 68.664062 23.246094 68.53125 23.375 M 80.398438 25.070312 C 80.398438 26.085938 80.421875 26.5 80.445312 25.992188 C 80.472656 25.484375 80.472656 24.652344 80.445312 24.144531 C 80.421875 23.636719 80.398438 24.050781 80.398438 25.070312 M 32.277344 26 C 31.78125 26.804688 31.191406 27.804688 30.964844 28.222656 C 30 29.984375 27.238281 35.613281 27.238281 35.808594 C 27.238281 35.84375 27.027344 36.324219 26.773438 36.875 C 26.273438 37.957031 24.695312 41.898438 24.25 43.179688 C 24.046875 43.761719 24.019531 43.992188 24.136719 44.089844 C 24.238281 44.175781 25.117188 44.175781 26.554688 44.097656 C 27.796875 44.027344 29.980469 43.910156 31.414062 43.839844 C 32.84375 43.769531 35.554688 43.617188 37.433594 43.5 C 39.316406 43.386719 41.046875 43.289062 41.277344 43.289062 C 42.207031 43.285156 42.171875 43.484375 42.199219 37.871094 C 42.214844 35.085938 42.195312 33.023438 42.15625 33.289062 C 42.089844 33.761719 42.085938 33.765625 41.472656 33.71875 C 40.894531 33.671875 40.59375 33.492188 40.730469 33.273438 C 40.761719 33.222656 41.101562 33.066406 41.488281 32.925781 L 42.1875 32.675781 L 42.09375 30.550781 C 41.988281 28.066406 41.78125 25.453125 41.671875 25.167969 C 41.605469 24.992188 41.480469 24.992188 40.679688 25.167969 C 39.707031 25.378906 36.609375 25.320312 36.15625 25.082031 C 36.03125 25.015625 35.34375 24.917969 34.628906 24.863281 C 33.914062 24.808594 33.296875 24.710938 33.253906 24.644531 C 33.214844 24.582031 32.777344 25.191406 32.277344 26 M 79.023438 26.644531 C 79.023438 27.246094 79.046875 27.476562 79.078125 27.152344 C 79.105469 26.832031 79.105469 26.339844 79.074219 26.058594 C 79.046875 25.777344 79.023438 26.042969 79.023438 26.644531 M 79.023438 28.902344 C 79.023438 29.46875 79.046875 29.699219 79.074219 29.417969 C 79.105469 29.136719 79.105469 28.671875 79.074219 28.390625 C 79.046875 28.109375 79.023438 28.339844 79.023438 28.902344 M 78.566406 30.128906 C 78.453125 30.191406 78.207031 30.304688 78.019531 30.378906 C 77.832031 30.457031 77.289062 30.679688 76.8125 30.875 C 76.335938 31.070312 75.820312 31.234375 75.664062 31.234375 C 75.507812 31.234375 74.773438 31.511719 74.035156 31.847656 C 73.296875 32.1875 72.609375 32.464844 72.515625 32.464844 C 72.417969 32.464844 71.722656 32.621094 70.96875 32.804688 C 70.214844 32.992188 69.386719 33.148438 69.121094 33.148438 C 68.859375 33.152344 68.425781 33.207031 68.164062 33.273438 C 67.898438 33.339844 67.253906 33.464844 66.726562 33.550781 C 66.199219 33.636719 65.027344 33.832031 64.125 33.988281 C 63.222656 34.144531 62.019531 34.324219 61.457031 34.386719 C 60.890625 34.449219 60 34.574219 59.472656 34.660156 C 58.398438 34.835938 55.003906 35.101562 53.675781 35.113281 C 53.003906 35.121094 52.777344 35.070312 52.679688 34.898438 C 52.566406 34.695312 52.335938 34.679688 50.714844 34.753906 C 49.132812 34.824219 48.785156 34.800781 48.226562 34.585938 C 47.734375 34.398438 47.164062 34.335938 45.914062 34.328125 C 44.757812 34.320312 44.1875 34.261719 44.035156 34.136719 C 43.839844 33.972656 43.816406 34.375 43.773438 38.449219 C 43.726562 43.277344 43.730469 43.308594 44.425781 43.484375 C 44.875 43.597656 44.84375 43.765625 44.335938 43.976562 C 43.527344 44.3125 43.570312 44.042969 43.257812 50.835938 C 43.1875 52.390625 43.09375 53.839844 43.050781 54.054688 C 42.980469 54.421875 42.984375 54.425781 43.113281 54.132812 C 43.238281 53.84375 43.3125 53.820312 43.835938 53.902344 C 44.714844 54.042969 46.8125 54.597656 47.410156 54.847656 C 48.160156 55.160156 48.3125 55.113281 47.855469 54.714844 C 47.433594 54.34375 47.472656 54.082031 47.910156 54.355469 C 48.054688 54.445312 48.574219 54.519531 49.0625 54.519531 C 50.101562 54.519531 51.007812 54.863281 50.761719 55.160156 C 50.601562 55.355469 50.898438 55.945312 51.316406 56.253906 C 51.816406 56.625 51.757812 56.066406 51.242188 55.550781 C 50.640625 54.949219 51.664062 55.367188 52.671875 56.136719 C 53.164062 56.511719 53.632812 56.574219 54.816406 56.40625 C 55.320312 56.335938 55.363281 56.296875 55.34375 55.9375 C 55.296875 55.222656 55.417969 54.929688 55.75 54.929688 C 56.105469 54.929688 56.390625 54.695312 56.390625 54.402344 C 56.390625 54.292969 56.550781 53.996094 56.742188 53.746094 L 57.089844 53.289062 L 58.46875 53.289062 C 59.835938 53.289062 59.84375 53.285156 59.746094 52.980469 C 59.691406 52.808594 59.636719 52.484375 59.625 52.261719 C 59.609375 51.859375 59.628906 51.847656 60.363281 51.777344 C 60.777344 51.738281 61.25 51.613281 61.417969 51.503906 C 61.660156 51.347656 61.808594 51.339844 62.128906 51.460938 C 62.578125 51.628906 62.6875 51.582031 62.6875 51.214844 C 62.6875 50.722656 63.710938 50.527344 64.734375 50.820312 C 65.125 50.933594 65.253906 50.910156 65.488281 50.699219 C 65.949219 50.28125 66.332031 50.136719 66.980469 50.136719 C 67.464844 50.136719 67.71875 50.042969 68.171875 49.691406 C 68.492188 49.445312 68.84375 49.105469 68.957031 48.933594 C 69.152344 48.632812 69.148438 48.625 68.832031 48.742188 C 67.835938 49.101562 64.296875 49.46875 63.503906 49.296875 C 62.148438 49 62.097656 48.484375 63.382812 48.042969 C 63.792969 47.898438 64.195312 47.726562 64.277344 47.65625 C 64.363281 47.585938 65.320312 47.472656 66.40625 47.40625 C 67.492188 47.335938 68.535156 47.222656 68.71875 47.152344 C 69.386719 46.894531 70.035156 46.726562 71.242188 46.503906 C 71.921875 46.382812 72.664062 46.222656 72.894531 46.152344 C 73.125 46.085938 73.433594 46.027344 73.578125 46.023438 C 73.914062 46.015625 74.316406 45.714844 74.515625 45.316406 C 74.722656 44.902344 75.714844 44.539062 76.65625 44.527344 C 77.105469 44.523438 77.527344 44.4375 77.683594 44.320312 C 77.832031 44.207031 78.050781 44.117188 78.171875 44.113281 C 78.332031 44.109375 78.414062 43.921875 78.476562 43.390625 C 78.621094 42.179688 78.859375 36.03125 78.816406 34.769531 L 78.769531 33.582031 L 78.023438 33.847656 C 77.613281 33.992188 77.109375 34.109375 76.902344 34.109375 C 76.207031 34.109375 76.242188 33.601562 76.960938 33.308594 C 77.203125 33.210938 77.667969 33.003906 77.996094 32.851562 C 78.628906 32.554688 78.78125 32.605469 78.878906 33.152344 C 78.910156 33.339844 78.949219 32.707031 78.957031 31.746094 C 78.96875 30.785156 78.929688 30.003906 78.875 30.007812 C 78.816406 30.011719 78.679688 30.066406 78.566406 30.128906 M 43.800781 31.125 L 43.800781 31.664062 L 44.140625 31.257812 C 44.332031 31.035156 44.484375 30.820312 44.484375 30.785156 C 44.484375 30.746094 44.332031 30.6875 44.140625 30.652344 C 43.824219 30.589844 43.800781 30.625 43.800781 31.125 M 7.527344 33.726562 C 7.527344 34.007812 8.480469 34.929688 8.777344 34.929688 C 8.917969 34.929688 9.035156 34.902344 9.035156 34.867188 C 9.035156 34.777344 7.808594 33.644531 7.648438 33.585938 C 7.582031 33.558594 7.527344 33.621094 7.527344 33.726562 M 9.28125 35.160156 C 9.378906 35.203125 9.5 35.195312 9.542969 35.152344 C 9.589844 35.105469 9.507812 35.074219 9.363281 35.078125 C 9.203125 35.085938 9.171875 35.117188 9.28125 35.160156 M 49.070312 41.691406 C 48.632812 41.890625 48.125 42.347656 47.371094 43.222656 L 46.902344 43.765625 L 46.78125 43.316406 C 46.640625 42.78125 46.128906 42.519531 45.691406 42.753906 C 45.425781 42.894531 45.417969 43.003906 45.460938 45.058594 C 45.515625 47.359375 45.601562 47.671875 46.191406 47.671875 C 46.640625 47.671875 46.875 47.320312 47.277344 46.027344 C 47.90625 44.019531 48.683594 42.761719 49.179688 42.953125 C 49.367188 43.027344 49.824219 44.210938 49.824219 44.632812 C 49.824219 44.707031 49.988281 45.089844 50.1875 45.476562 C 50.796875 46.648438 51.78125 47.261719 53.054688 47.257812 C 53.960938 47.257812 54.894531 46.902344 56.664062 45.886719 L 57.144531 45.613281 L 57.242188 46.460938 C 57.371094 47.59375 57.726562 47.964844 58.765625 48.050781 C 59.714844 48.128906 60.488281 47.769531 61.464844 46.789062 L 62.160156 46.097656 L 62.4375 46.476562 C 63.515625 47.945312 67.523438 47.230469 70.144531 45.101562 C 71.023438 44.386719 71.664062 43.628906 71.484375 43.515625 C 71.421875 43.476562 71.15625 43.640625 70.894531 43.878906 C 70.03125 44.679688 69.359375 45.042969 67.421875 45.769531 C 66.535156 46.101562 64.949219 46.214844 64.335938 45.992188 C 64.058594 45.894531 63.761719 45.640625 63.609375 45.382812 C 63.375 44.980469 63.367188 44.855469 63.523438 43.917969 C 63.664062 43.085938 63.664062 42.855469 63.519531 42.679688 C 63.285156 42.398438 62.707031 42.40625 62.390625 42.691406 C 62.183594 42.878906 62.078125 42.890625 61.792969 42.761719 C 61.234375 42.507812 60.152344 42.570312 59.4375 42.902344 C 59.078125 43.066406 58.292969 43.605469 57.691406 44.105469 C 57.089844 44.605469 56.351562 45.15625 56.050781 45.328125 C 54.925781 45.984375 53.054688 46.234375 52.453125 45.8125 C 52.089844 45.558594 51.855469 45.027344 51.613281 43.902344 C 51.34375 42.671875 51.210938 42.292969 50.910156 41.933594 C 50.582031 41.539062 49.667969 41.417969 49.070312 41.691406 M 60.292969 43.585938 C 59.5 44.023438 59.085938 44.6875 58.921875 45.804688 C 58.792969 46.660156 58.921875 46.984375 59.398438 46.984375 C 60.097656 46.984375 61.730469 44.875 61.730469 43.96875 C 61.730469 43.511719 60.847656 43.277344 60.292969 43.585938 M 38.050781 44.390625 C 37.261719 44.453125 35.660156 44.566406 34.492188 44.648438 C 33.324219 44.734375 31.570312 44.859375 30.589844 44.933594 C 29.613281 45.003906 27.828125 45.128906 26.621094 45.207031 C 23.242188 45.429688 23.230469 45.433594 22.960938 45.90625 C 22.832031 46.128906 22.78125 46.28125 22.851562 46.238281 C 22.957031 46.171875 23.464844 46.332031 24.707031 46.828125 C 24.855469 46.890625 26.097656 47.503906 27.460938 48.191406 C 28.824219 48.878906 30.613281 49.667969 31.429688 49.945312 C 32.25 50.21875 33.371094 50.65625 33.925781 50.914062 C 34.882812 51.355469 34.949219 51.371094 35.191406 51.152344 C 35.433594 50.929688 35.460938 50.9375 35.730469 51.277344 C 35.945312 51.554688 36.09375 51.617188 36.378906 51.5625 C 36.648438 51.511719 37.265625 51.726562 38.597656 52.332031 C 40.3125 53.113281 41.714844 53.640625 41.816406 53.535156 C 41.839844 53.511719 41.929688 51.921875 42.015625 50 C 42.183594 46.199219 42.089844 44.734375 41.65625 44.421875 C 41.394531 44.230469 40.34375 44.21875 38.050781 44.390625 M 97.566406 44.75 C 97.664062 44.789062 97.78125 44.785156 97.828125 44.742188 C 97.875 44.695312 97.792969 44.664062 97.648438 44.667969 C 97.488281 44.675781 97.457031 44.707031 97.566406 44.75 M 18.726562 45.023438 C 18.824219 45.066406 18.941406 45.058594 18.988281 45.015625 C 19.035156 44.96875 18.953125 44.9375 18.808594 44.941406 C 18.648438 44.949219 18.617188 44.980469 18.726562 45.023438 M 99.792969 45.421875 C 99.796875 45.582031 99.832031 45.613281 99.875 45.503906 C 99.914062 45.40625 99.910156 45.289062 99.863281 45.242188 C 99.820312 45.195312 99.785156 45.277344 99.792969 45.421875 M 16.535156 45.984375 C 16.636719 46.023438 16.753906 46.019531 16.796875 45.972656 C 16.84375 45.925781 16.761719 45.894531 16.617188 45.902344 C 16.460938 45.90625 16.425781 45.941406 16.535156 45.984375 M 65.234375 51.285156 C 65.273438 51.390625 65.414062 51.449219 65.542969 51.414062 C 65.671875 51.378906 65.894531 51.480469 66.035156 51.636719 C 66.3125 51.945312 66.6875 52.019531 66.582031 51.746094 C 66.546875 51.652344 66.328125 51.46875 66.097656 51.335938 C 65.585938 51.042969 65.128906 51.015625 65.234375 51.285156 M 80.449219 51.1875 C 80.542969 51.226562 80.695312 51.226562 80.789062 51.1875 C 80.882812 51.148438 80.808594 51.117188 80.617188 51.117188 C 80.429688 51.117188 80.355469 51.148438 80.449219 51.1875 M 89.480469 51.1875 C 89.574219 51.226562 89.730469 51.226562 89.824219 51.1875 C 89.917969 51.148438 89.839844 51.117188 89.652344 51.117188 C 89.464844 51.117188 89.386719 51.148438 89.480469 51.1875 M 91.125 51.324219 C 91.21875 51.363281 91.371094 51.363281 91.464844 51.324219 C 91.558594 51.285156 91.484375 51.253906 91.296875 51.253906 C 91.105469 51.253906 91.03125 51.285156 91.125 51.324219 M 94.417969 51.464844 C 94.515625 51.503906 94.632812 51.5 94.679688 51.453125 C 94.726562 51.40625 94.644531 51.375 94.5 51.378906 C 94.339844 51.386719 94.308594 51.417969 94.417969 51.464844 M 83.460938 52.289062 C 83.628906 52.320312 83.90625 52.320312 84.074219 52.289062 C 84.246094 52.253906 84.105469 52.230469 83.765625 52.230469 C 83.429688 52.230469 83.289062 52.253906 83.460938 52.289062 M 90.375 52.285156 C 90.507812 52.320312 90.691406 52.320312 90.785156 52.28125 C 90.878906 52.242188 90.769531 52.214844 90.542969 52.21875 C 90.316406 52.222656 90.242188 52.25 90.375 52.285156 M 97.839844 52.695312 C 97.9375 52.734375 98.054688 52.730469 98.101562 52.683594 C 98.148438 52.640625 98.066406 52.609375 97.921875 52.613281 C 97.761719 52.621094 97.730469 52.652344 97.839844 52.695312 M 41.921875 54.316406 C 41.921875 54.691406 41.949219 54.828125 41.980469 54.621094 C 42.011719 54.414062 42.011719 54.105469 41.980469 53.9375 C 41.949219 53.769531 41.921875 53.9375 41.921875 54.316406 M 18.761719 56.792969 C 18.769531 56.953125 18.800781 56.984375 18.84375 56.875 C 18.886719 56.777344 18.878906 56.65625 18.835938 56.613281 C 18.789062 56.566406 18.757812 56.648438 18.761719 56.792969 M 71.011719 61.1875 C 71.109375 61.230469 71.230469 61.222656 71.273438 61.179688 C 71.320312 61.132812 71.238281 61.101562 71.09375 61.105469 C 70.933594 61.113281 70.902344 61.144531 71.011719 61.1875 M 70.199219 62.019531 C 70.027344 62.238281 70.035156 62.242188 70.25 62.074219 C 70.480469 61.894531 70.550781 61.78125 70.4375 61.78125 C 70.410156 61.78125 70.300781 61.890625 70.199219 62.019531 M 97.574219 63.253906 C 97.402344 63.46875 97.410156 63.476562 97.625 63.304688 C 97.757812 63.203125 97.863281 63.09375 97.863281 63.066406 C 97.863281 62.953125 97.753906 63.023438 97.574219 63.253906 M 54.59375 63.664062 C 54.425781 63.882812 54.429688 63.886719 54.648438 63.714844 C 54.875 63.539062 54.949219 63.425781 54.835938 63.425781 C 54.804688 63.425781 54.699219 63.53125 54.59375 63.664062 M 50.390625 64.65625 C 50.390625 64.847656 50.421875 64.921875 50.460938 64.828125 C 50.5 64.734375 50.5 64.582031 50.460938 64.484375 C 50.421875 64.390625 50.390625 64.46875 50.390625 64.65625 M 50.9375 64.65625 C 50.9375 64.847656 50.96875 64.921875 51.007812 64.828125 C 51.046875 64.734375 51.046875 64.582031 51.007812 64.484375 C 50.96875 64.390625 50.9375 64.46875 50.9375 64.65625 M 63.246094 64.601562 C 63.253906 64.761719 63.285156 64.792969 63.328125 64.683594 C 63.367188 64.585938 63.363281 64.464844 63.320312 64.421875 C 63.273438 64.375 63.242188 64.457031 63.246094 64.601562 M 65.859375 64.65625 C 65.859375 64.847656 65.890625 64.921875 65.925781 64.828125 C 65.964844 64.734375 65.964844 64.582031 65.925781 64.484375 C 65.890625 64.390625 65.859375 64.46875 65.859375 64.65625 M 73.660156 64.65625 C 73.660156 64.847656 73.691406 64.921875 73.730469 64.828125 C 73.765625 64.734375 73.765625 64.582031 73.730469 64.484375 C 73.691406 64.390625 73.660156 64.46875 73.660156 64.65625 M 90.632812 64.65625 C 90.632812 64.847656 90.664062 64.921875 90.703125 64.828125 C 90.738281 64.734375 90.738281 64.582031 90.703125 64.484375 C 90.664062 64.390625 90.632812 64.46875 90.632812 64.65625 M 97.726562 65.53125 C 97.726562 65.558594 97.835938 65.667969 97.96875 65.769531 C 98.183594 65.941406 98.191406 65.9375 98.019531 65.71875 C 97.839844 65.492188 97.726562 65.417969 97.726562 65.53125 "/>
</g>
</svg>
