<?xml version="1.0" encoding="UTF-8"?>
<svg xmlns="http://www.w3.org/2000/svg" xmlns:xlink="http://www.w3.org/1999/xlink" width="98px" height="51px" viewBox="0 0 97 51" version="1.1">
<g id="surface1">
<path style=" stroke:none;fill-rule:evenodd;fill:rgb(100%,100%,100%);fill-opacity:1;" d="M 56.984375 13.351562 C 56.917969 13.472656 56.9375 13.832031 57.03125 14.425781 C 57.335938 16.308594 57.3125 21.023438 56.960938 28.742188 C 56.757812 33.246094 56.632812 34.726562 56.335938 36.179688 C 56.085938 37.414062 56.113281 37.375 55.222656 37.519531 C 53.144531 37.847656 52.261719 38.152344 51.644531 38.75 C 51.390625 38.996094 51.324219 39.144531 51.324219 39.453125 C 51.324219 39.964844 51.582031 40.3125 52.234375 40.671875 C 52.695312 40.929688 52.859375 40.964844 53.554688 40.960938 C 54.148438 40.960938 54.457031 40.90625 54.792969 40.75 C 55.402344 40.460938 56.03125 39.796875 56.394531 39.054688 C 56.558594 38.714844 56.769531 38.371094 56.859375 38.289062 C 56.992188 38.164062 57.667969 38.128906 60.785156 38.074219 C 64.289062 38.011719 66.847656 38.078125 70.25 38.316406 C 70.820312 38.355469 71.367188 38.367188 71.460938 38.34375 C 71.730469 38.277344 71.667969 37.964844 71.363281 37.835938 C 70.515625 37.484375 60.46875 37.074219 58.226562 37.300781 C 57.160156 37.40625 56.992188 37.332031 57.144531 36.820312 C 57.203125 36.632812 57.296875 36.199219 57.359375 35.855469 C 57.417969 35.511719 57.511719 34.972656 57.566406 34.65625 C 57.71875 33.796875 57.867188 32.148438 57.917969 30.691406 C 57.945312 29.976562 58.015625 28.71875 58.070312 27.894531 C 58.128906 27.070312 58.171875 23.964844 58.167969 20.992188 C 58.164062 15.6875 58.109375 14.574219 57.804688 13.722656 C 57.621094 13.207031 57.167969 13.003906 56.984375 13.351562 M 27.34375 13.550781 C 26.65625 13.894531 26.515625 13.996094 25.796875 14.671875 C 25.078125 15.355469 24.203125 16.359375 23.398438 17.441406 C 22.773438 18.28125 21.699219 19.910156 21.699219 20.019531 C 21.699219 20.050781 21.613281 20.199219 21.511719 20.34375 C 20.871094 21.257812 18.660156 25.765625 17.585938 28.34375 C 17.324219 28.976562 17.054688 29.625 16.988281 29.792969 C 16.800781 30.238281 16.277344 31.65625 16.203125 31.90625 C 16.167969 32.027344 16.011719 32.234375 15.859375 32.367188 C 15.621094 32.566406 15.394531 32.625 14.445312 32.71875 C 13.824219 32.785156 13.003906 32.839844 12.625 32.84375 C 11.496094 32.851562 9.855469 33.074219 9.867188 33.210938 C 9.875 33.28125 9.886719 33.378906 9.894531 33.433594 C 9.910156 33.558594 11.285156 33.566406 12.339844 33.441406 C 12.773438 33.390625 13.652344 33.324219 14.292969 33.289062 C 15.324219 33.234375 15.46875 33.246094 15.523438 33.390625 C 15.558594 33.484375 15.417969 34.078125 15.210938 34.71875 C 14.75 36.15625 14.714844 36.269531 14.429688 37.375 C 13.875 39.492188 13.722656 40.296875 13.722656 41.070312 C 13.722656 41.746094 13.730469 41.769531 13.964844 41.769531 C 14.285156 41.769531 14.589844 41.3125 14.742188 40.609375 C 14.804688 40.3125 14.996094 39.441406 15.167969 38.675781 C 15.339844 37.90625 15.515625 37.121094 15.558594 36.925781 C 15.601562 36.734375 15.753906 36.152344 15.898438 35.628906 C 16.042969 35.109375 16.199219 34.542969 16.242188 34.371094 C 16.285156 34.199219 16.421875 33.855469 16.546875 33.605469 C 16.808594 33.078125 16.675781 33.109375 19.269531 32.9375 C 21.105469 32.816406 22.988281 32.679688 24.820312 32.539062 C 27.835938 32.308594 29.714844 32.210938 29.960938 32.273438 C 30.46875 32.402344 30.5 32.789062 30.414062 37.785156 C 30.378906 39.890625 30.398438 40.425781 30.503906 40.554688 C 30.578125 40.648438 30.667969 40.71875 30.703125 40.71875 C 31.058594 40.710938 31.164062 40.0625 31.308594 37.027344 C 31.542969 32.070312 31.511719 32.285156 32.09375 32.039062 C 32.460938 31.886719 32.484375 31.761719 32.15625 31.679688 C 32.023438 31.644531 31.859375 31.554688 31.796875 31.476562 C 31.710938 31.375 31.6875 30.050781 31.699219 26.472656 C 31.71875 20.769531 31.59375 18.859375 31.042969 16.566406 C 30.621094 14.8125 30.054688 13.800781 29.289062 13.433594 C 28.765625 13.183594 27.984375 13.230469 27.34375 13.550781 M 27.464844 14.085938 C 26.324219 14.652344 23.964844 17.679688 22.417969 20.558594 C 21.621094 22.042969 19.71875 25.941406 19.71875 26.089844 C 19.71875 26.113281 19.566406 26.464844 19.382812 26.867188 C 19.019531 27.65625 17.878906 30.527344 17.554688 31.457031 C 17.40625 31.882812 17.386719 32.050781 17.472656 32.125 C 17.546875 32.183594 18.183594 32.1875 19.222656 32.128906 C 20.121094 32.078125 21.703125 31.992188 22.738281 31.941406 C 23.773438 31.886719 25.734375 31.777344 27.097656 31.691406 C 28.460938 31.609375 29.710938 31.539062 29.878906 31.539062 C 30.046875 31.539062 30.261719 31.480469 30.359375 31.40625 C 30.523438 31.285156 30.535156 31.003906 30.535156 27.191406 C 30.527344 18.789062 30.0625 15.316406 28.78125 14.183594 C 28.363281 13.816406 28.054688 13.792969 27.464844 14.085938 M 35.519531 30.375 C 35.203125 30.519531 34.835938 30.855469 34.289062 31.492188 L 33.953125 31.886719 L 33.863281 31.558594 C 33.761719 31.171875 33.394531 30.976562 33.078125 31.148438 C 32.882812 31.25 32.875 31.332031 32.910156 32.828125 C 32.945312 34.503906 33.007812 34.730469 33.4375 34.730469 C 33.761719 34.730469 33.929688 34.476562 34.222656 33.535156 C 34.675781 32.074219 35.242188 31.15625 35.601562 31.292969 C 35.734375 31.347656 36.066406 32.210938 36.066406 32.515625 C 36.066406 32.574219 36.183594 32.851562 36.332031 33.132812 C 36.769531 33.988281 37.484375 34.433594 38.40625 34.429688 C 39.0625 34.429688 39.738281 34.171875 41.019531 33.433594 L 41.367188 33.230469 L 41.4375 33.851562 C 41.53125 34.675781 41.789062 34.945312 42.539062 35.007812 C 43.226562 35.066406 43.785156 34.804688 44.492188 34.089844 L 44.996094 33.585938 L 45.199219 33.863281 C 45.976562 34.933594 48.878906 34.410156 50.777344 32.859375 C 51.414062 32.339844 51.875 31.785156 51.746094 31.703125 C 51.699219 31.675781 51.507812 31.792969 51.320312 31.96875 C 50.691406 32.550781 50.207031 32.816406 48.804688 33.34375 C 48.164062 33.585938 47.015625 33.671875 46.574219 33.507812 C 46.371094 33.4375 46.15625 33.253906 46.046875 33.0625 C 45.875 32.769531 45.871094 32.679688 45.984375 32 C 46.085938 31.390625 46.085938 31.222656 45.980469 31.097656 C 45.8125 30.890625 45.394531 30.894531 45.164062 31.105469 C 45.015625 31.242188 44.9375 31.25 44.730469 31.15625 C 44.324219 30.96875 43.542969 31.015625 43.023438 31.257812 C 42.765625 31.375 42.199219 31.769531 41.761719 32.132812 C 41.328125 32.496094 40.792969 32.898438 40.574219 33.027344 C 39.761719 33.503906 38.40625 33.6875 37.96875 33.378906 C 37.707031 33.191406 37.539062 32.804688 37.359375 31.988281 C 37.167969 31.089844 37.070312 30.8125 36.855469 30.550781 C 36.613281 30.261719 35.953125 30.175781 35.519531 30.375 M 70.121094 30.777344 C 69.839844 31.042969 69.699219 31.566406 69.796875 32.011719 C 69.871094 32.351562 69.738281 32.496094 69.007812 32.859375 C 67.953125 33.390625 67.273438 33.570312 66.3125 33.578125 C 65.488281 33.582031 65.378906 33.5625 65.171875 33.355469 C 64.964844 33.144531 64.949219 33.054688 64.972656 32.089844 C 64.996094 31.195312 64.976562 31.039062 64.832031 30.957031 C 64.640625 30.847656 64.207031 30.972656 64.085938 31.167969 C 64.035156 31.253906 63.933594 31.253906 63.683594 31.160156 C 62.1875 30.617188 60.4375 32.03125 60.4375 33.785156 C 60.4375 34.246094 60.484375 34.378906 60.726562 34.65625 C 60.996094 34.960938 61.058594 34.980469 61.644531 34.976562 C 62.371094 34.972656 62.792969 34.753906 63.511719 33.996094 C 63.960938 33.519531 64.105469 33.4375 64.105469 33.667969 C 64.105469 33.835938 64.46875 34.160156 64.828125 34.3125 C 65.324219 34.527344 66.71875 34.417969 67.300781 34.121094 C 67.394531 34.074219 67.515625 34.035156 67.570312 34.035156 C 67.851562 34.035156 69.679688 33.023438 70.023438 32.675781 C 70.191406 32.507812 71.195312 32.484375 71.292969 32.644531 C 71.332031 32.703125 71.300781 33.179688 71.230469 33.703125 C 71.109375 34.597656 71.113281 34.679688 71.292969 35.015625 C 71.660156 35.703125 72.414062 35.671875 73.246094 34.933594 C 73.695312 34.535156 73.914062 34.4375 73.914062 34.636719 C 73.914062 34.789062 74.542969 35.03125 74.925781 35.027344 C 75.441406 35.027344 76.0625 34.683594 76.652344 34.074219 C 76.949219 33.765625 77.210938 33.527344 77.226562 33.546875 C 77.242188 33.566406 77.308594 33.6875 77.375 33.816406 C 77.648438 34.339844 78.777344 34.570312 79.832031 34.320312 C 80.539062 34.152344 81.714844 33.660156 82.386719 33.253906 C 83.136719 32.800781 83.921875 32.066406 83.921875 31.824219 C 83.921875 31.566406 83.882812 31.582031 83.398438 32.0625 C 82.941406 32.519531 82.300781 32.878906 81.195312 33.296875 C 80.375 33.609375 78.992188 33.683594 78.539062 33.445312 C 78.144531 33.230469 78.035156 32.769531 78.179688 31.9375 C 78.28125 31.378906 78.28125 31.214844 78.179688 31.09375 C 78.011719 30.894531 77.730469 30.898438 77.378906 31.109375 C 77.144531 31.246094 77.050781 31.253906 76.835938 31.15625 C 75.765625 30.664062 74.183594 31.617188 73.773438 33.003906 C 73.484375 33.980469 73.40625 34.128906 72.992188 34.488281 C 72.546875 34.871094 72.414062 34.902344 72.226562 34.679688 C 72.128906 34.5625 72.125 34.324219 72.210938 33.566406 C 72.300781 32.773438 72.296875 32.546875 72.175781 32.261719 C 72.039062 31.929688 72.015625 31.917969 71.613281 31.96875 C 71.378906 31.996094 71.101562 32.03125 70.992188 32.050781 C 70.777344 32.089844 70.769531 32.046875 70.902344 31.25 C 70.960938 30.882812 70.941406 30.785156 70.789062 30.675781 C 70.535156 30.488281 70.414062 30.503906 70.121094 30.777344 M 43.644531 31.753906 C 43.070312 32.074219 42.773438 32.558594 42.652344 33.371094 C 42.558594 33.996094 42.652344 34.234375 42.996094 34.234375 C 43.503906 34.234375 44.683594 32.695312 44.683594 32.035156 C 44.683594 31.703125 44.046875 31.53125 43.644531 31.753906 M 62.421875 31.863281 C 61.847656 32.257812 61.4375 33.28125 61.582031 33.941406 C 61.636719 34.191406 61.691406 34.234375 61.972656 34.234375 C 62.242188 34.234375 62.382812 34.144531 62.746094 33.738281 C 63.210938 33.214844 63.707031 32.300781 63.707031 31.964844 C 63.707031 31.585938 62.914062 31.523438 62.421875 31.863281 M 75.679688 31.808594 C 75.351562 32.035156 75.003906 32.472656 75.003906 32.65625 C 75.003906 32.734375 74.957031 32.84375 74.898438 32.902344 C 74.84375 32.957031 74.808594 33.269531 74.824219 33.59375 C 74.855469 34.175781 74.859375 34.183594 75.167969 34.214844 C 75.425781 34.238281 75.554688 34.167969 75.894531 33.8125 C 76.503906 33.183594 77.046875 32.101562 76.886719 31.839844 C 76.753906 31.625 75.976562 31.605469 75.679688 31.808594 M 54.394531 38.289062 C 53.902344 38.34375 52.808594 38.632812 52.488281 38.792969 C 52.144531 38.964844 52.042969 39.34375 52.253906 39.671875 C 52.511719 40.066406 52.984375 40.257812 53.71875 40.265625 C 54.3125 40.269531 54.414062 40.242188 54.753906 39.964844 C 55.140625 39.648438 55.5625 38.929688 55.609375 38.511719 C 55.632812 38.296875 55.59375 38.273438 55.1875 38.265625 C 54.941406 38.257812 54.585938 38.269531 54.394531 38.289062 M 35.636719 44.792969 C 35.351562 45.09375 35.292969 45.3125 35.5 45.3125 C 35.671875 45.3125 36.285156 44.667969 36.199219 44.582031 C 36.070312 44.449219 35.902344 44.515625 35.636719 44.792969 M 24.59375 44.730469 C 24.507812 44.816406 24.472656 45.382812 24.472656 46.636719 C 24.472656 48.28125 24.488281 48.417969 24.644531 48.386719 C 24.785156 48.359375 24.824219 48.230469 24.847656 47.730469 L 24.878906 47.109375 L 25.46875 47.109375 C 26.003906 47.109375 26.097656 47.074219 26.429688 46.765625 C 26.773438 46.453125 26.800781 46.382812 26.800781 45.878906 C 26.800781 45.261719 26.621094 44.976562 26.085938 44.75 C 25.691406 44.582031 24.753906 44.570312 24.59375 44.730469 M 50.769531 44.800781 C 50.324219 45.074219 50.171875 45.503906 50.378906 45.902344 C 50.5625 46.261719 51.066406 46.609375 51.40625 46.609375 C 51.859375 46.609375 52.40625 47.058594 52.410156 47.4375 C 52.414062 47.535156 52.300781 47.730469 52.160156 47.871094 C 51.933594 48.097656 51.84375 48.125 51.410156 48.082031 C 51.054688 48.046875 50.84375 47.960938 50.644531 47.769531 C 50.324219 47.460938 50.234375 47.441406 50.234375 47.6875 C 50.234375 48.148438 51.042969 48.570312 51.742188 48.472656 C 52.34375 48.394531 52.710938 47.988281 52.710938 47.40625 C 52.710938 46.820312 52.386719 46.484375 51.648438 46.3125 C 51.066406 46.175781 50.628906 45.882812 50.628906 45.625 C 50.628906 45.53125 50.699219 45.355469 50.785156 45.234375 C 50.996094 44.925781 51.898438 44.910156 52.164062 45.210938 C 52.265625 45.320312 52.429688 45.410156 52.53125 45.410156 C 52.6875 45.410156 52.699219 45.378906 52.609375 45.207031 C 52.316406 44.65625 51.351562 44.445312 50.769531 44.800781 M 37.519531 44.777344 C 37.480469 44.816406 37.453125 45.492188 37.453125 46.28125 C 37.453125 47.367188 37.488281 47.789062 37.601562 48.007812 C 37.765625 48.324219 38.09375 48.550781 38.246094 48.453125 C 38.371094 48.375 38.375 48.105469 38.253906 48.105469 C 38.203125 48.105469 38.089844 48.035156 38.003906 47.949219 C 37.875 47.820312 37.847656 47.519531 37.847656 46.253906 C 37.847656 45.035156 37.820312 44.710938 37.714844 44.710938 C 37.644531 44.710938 37.554688 44.742188 37.519531 44.777344 M 30.066406 44.921875 C 29.972656 45.074219 30.175781 45.25 30.363281 45.179688 C 30.445312 45.144531 30.515625 45.050781 30.515625 44.964844 C 30.515625 44.789062 30.167969 44.757812 30.066406 44.921875 M 60.140625 45.011719 C 60.140625 45.175781 60.191406 45.21875 60.363281 45.195312 C 60.488281 45.175781 60.585938 45.09375 60.585938 45.011719 C 60.585938 44.929688 60.488281 44.847656 60.363281 44.832031 C 60.191406 44.804688 60.140625 44.847656 60.140625 45.011719 M 69.058594 45.011719 C 69.058594 45.144531 69.125 45.210938 69.257812 45.210938 C 69.390625 45.210938 69.457031 45.144531 69.457031 45.011719 C 69.457031 44.878906 69.390625 44.8125 69.257812 44.8125 C 69.125 44.8125 69.058594 44.878906 69.058594 45.011719 M 24.890625 45.835938 L 24.917969 46.660156 L 25.417969 46.6875 C 26.105469 46.726562 26.453125 46.460938 26.453125 45.898438 C 26.453125 45.292969 26.125 45.011719 25.414062 45.011719 L 24.859375 45.011719 L 24.890625 45.835938 M 61.609375 45.429688 C 61.582031 45.789062 61.542969 45.867188 61.355469 45.890625 C 61.058594 45.933594 61.074219 46.089844 61.378906 46.210938 C 61.613281 46.300781 61.628906 46.347656 61.628906 47.058594 C 61.628906 47.921875 61.769531 48.230469 62.242188 48.394531 C 62.789062 48.589844 62.925781 48.234375 62.394531 48 C 62.074219 47.855469 62.074219 47.855469 62.046875 47.039062 L 62.015625 46.222656 L 62.34375 46.191406 C 62.746094 46.152344 62.757812 45.976562 62.367188 45.910156 C 62.109375 45.867188 62.066406 45.808594 62.023438 45.460938 C 61.992188 45.191406 61.921875 45.054688 61.808594 45.03125 C 61.675781 45.007812 61.632812 45.089844 61.609375 45.429688 M 27.847656 45.882812 C 27.160156 46.246094 27.175781 46.757812 27.890625 47.097656 C 28.132812 47.210938 28.417969 47.308594 28.519531 47.308594 C 28.769531 47.308594 29.050781 47.636719 28.972656 47.84375 C 28.9375 47.933594 28.800781 48.035156 28.667969 48.070312 C 28.359375 48.148438 27.707031 48.042969 27.660156 47.910156 C 27.601562 47.730469 27.347656 47.800781 27.347656 47.996094 C 27.347656 48.195312 27.957031 48.503906 28.347656 48.503906 C 28.753906 48.503906 29.214844 48.203125 29.28125 47.894531 C 29.382812 47.425781 29.125 47.136719 28.433594 46.941406 C 27.816406 46.769531 27.613281 46.535156 27.84375 46.253906 C 28 46.066406 28.542969 46.066406 28.789062 46.257812 C 28.894531 46.335938 29.035156 46.402344 29.105469 46.40625 C 29.3125 46.410156 29.242188 46.125 29 45.964844 C 28.625 45.714844 28.21875 45.6875 27.847656 45.882812 M 32.054688 45.878906 C 31.535156 46.164062 31.308594 46.535156 31.308594 47.109375 C 31.308594 47.691406 31.539062 48.0625 32.078125 48.34375 C 32.460938 48.542969 32.703125 48.546875 33.144531 48.359375 C 33.574219 48.179688 33.632812 47.863281 33.21875 47.980469 C 33.066406 48.019531 32.75 48.054688 32.515625 48.054688 C 32.179688 48.050781 32.046875 47.996094 31.898438 47.804688 C 31.644531 47.46875 31.648438 46.738281 31.902344 46.429688 C 32.15625 46.121094 32.714844 46.035156 33.039062 46.246094 C 33.300781 46.421875 33.589844 46.460938 33.589844 46.324219 C 33.589844 46.121094 32.859375 45.707031 32.519531 45.714844 C 32.425781 45.714844 32.21875 45.789062 32.054688 45.878906 M 35.007812 45.863281 C 33.699219 46.441406 34.125 48.46875 35.554688 48.449219 C 36.121094 48.441406 36.488281 48.214844 36.710938 47.738281 C 37.058594 47 36.742188 46.167969 35.996094 45.847656 C 35.605469 45.679688 35.417969 45.683594 35.007812 45.863281 M 39.683594 45.894531 C 39.21875 46.109375 39.109375 46.230469 38.933594 46.726562 C 38.695312 47.40625 39.15625 48.21875 39.914062 48.453125 C 40.308594 48.574219 40.804688 48.414062 41.167969 48.046875 C 41.472656 47.742188 41.515625 47.636719 41.515625 47.199219 C 41.515625 46.523438 41.296875 46.136719 40.789062 45.902344 C 40.277344 45.671875 40.175781 45.667969 39.683594 45.894531 M 42.910156 45.890625 C 42.378906 46.15625 42.164062 46.527344 42.171875 47.148438 C 42.183594 47.796875 42.398438 48.132812 42.945312 48.359375 C 43.40625 48.546875 43.863281 48.488281 44.167969 48.207031 C 44.28125 48.097656 44.402344 48.050781 44.4375 48.101562 C 44.527344 48.25 44.226562 48.878906 44.007812 48.996094 C 43.664062 49.179688 42.957031 49.128906 42.753906 48.902344 C 42.5625 48.691406 42.308594 48.636719 42.308594 48.808594 C 42.308594 49.019531 42.789062 49.390625 43.148438 49.460938 C 43.710938 49.566406 44.242188 49.359375 44.535156 48.925781 C 44.753906 48.601562 44.785156 48.453125 44.785156 47.671875 C 44.785156 46.566406 44.632812 46.199219 44.050781 45.914062 C 43.550781 45.671875 43.355469 45.664062 42.910156 45.890625 M 46.191406 45.910156 C 45.867188 46.058594 45.722656 46.203125 45.574219 46.53125 C 45.332031 47.070312 45.332031 47.222656 45.570312 47.695312 C 45.921875 48.386719 46.523438 48.625 47.226562 48.355469 C 47.585938 48.214844 47.695312 48.207031 47.757812 48.308594 C 47.800781 48.378906 47.90625 48.40625 47.996094 48.371094 C 48.121094 48.324219 48.152344 48.160156 48.152344 47.605469 C 48.152344 46.675781 47.910156 46.167969 47.328125 45.90625 C 46.8125 45.667969 46.71875 45.667969 46.191406 45.910156 M 54.089844 45.910156 C 53.582031 46.179688 53.40625 46.5 53.40625 47.148438 C 53.40625 47.625 53.445312 47.734375 53.730469 48.039062 C 54.164062 48.503906 54.648438 48.597656 55.195312 48.324219 C 55.527344 48.160156 55.605469 48.148438 55.652344 48.265625 C 55.722656 48.453125 55.945312 48.441406 56.019531 48.246094 C 56.050781 48.160156 56.078125 47.835938 56.078125 47.53125 C 56.078125 46.738281 55.792969 46.179688 55.25 45.914062 C 54.734375 45.664062 54.546875 45.664062 54.089844 45.910156 M 57.515625 45.859375 C 57.316406 45.949219 57.179688 45.957031 57.101562 45.890625 C 56.839844 45.675781 56.773438 45.9375 56.773438 47.171875 C 56.773438 48.304688 56.789062 48.417969 56.945312 48.386719 C 57.09375 48.359375 57.128906 48.207031 57.167969 47.433594 C 57.230469 46.335938 57.34375 46.160156 58.003906 46.160156 C 58.726562 46.160156 58.855469 46.359375 58.855469 47.480469 C 58.855469 48.320312 58.871094 48.417969 59.027344 48.386719 C 59.171875 48.359375 59.207031 48.222656 59.230469 47.535156 C 59.261719 46.585938 59.125 46.210938 58.625 45.90625 C 58.261719 45.683594 57.941406 45.667969 57.515625 45.859375 M 64.253906 45.832031 C 63.601562 46.058594 63.238281 46.6875 63.359375 47.382812 C 63.441406 47.851562 63.695312 48.167969 64.144531 48.355469 C 64.609375 48.550781 64.777344 48.542969 65.222656 48.304688 C 65.546875 48.128906 65.605469 48.125 65.652344 48.253906 C 65.6875 48.335938 65.777344 48.40625 65.859375 48.40625 C 65.980469 48.40625 66 48.246094 65.972656 47.464844 C 65.941406 46.625 65.910156 46.496094 65.691406 46.257812 C 65.449219 46 64.886719 45.703125 64.664062 45.71875 C 64.601562 45.722656 64.417969 45.773438 64.253906 45.832031 M 67.441406 45.871094 C 67.238281 45.980469 67.128906 45.992188 67.035156 45.914062 C 66.765625 45.691406 66.671875 46.046875 66.703125 47.21875 C 66.726562 48.207031 66.753906 48.355469 66.902344 48.386719 C 67.058594 48.417969 67.078125 48.320312 67.078125 47.472656 C 67.078125 46.566406 67.089844 46.515625 67.339844 46.316406 C 67.488281 46.199219 67.746094 46.109375 67.945312 46.109375 C 68.214844 46.109375 68.277344 46.078125 68.226562 45.953125 C 68.195312 45.863281 68.167969 45.773438 68.167969 45.753906 C 68.167969 45.652344 67.699219 45.730469 67.441406 45.871094 M 71.136719 45.84375 C 70.453125 46.164062 70.25 46.472656 70.25 47.199219 C 70.25 47.636719 70.289062 47.742188 70.59375 48.046875 C 71.039062 48.496094 71.523438 48.597656 72.019531 48.347656 C 72.214844 48.242188 72.410156 48.144531 72.453125 48.125 C 72.492188 48.105469 72.527344 48.164062 72.527344 48.253906 C 72.527344 48.359375 72.589844 48.40625 72.699219 48.386719 C 72.847656 48.355469 72.875 48.234375 72.871094 47.554688 C 72.871094 46.5625 72.722656 46.234375 72.132812 45.933594 C 71.644531 45.6875 71.503906 45.671875 71.136719 45.84375 M 30.121094 47.097656 C 30.121094 48.203125 30.144531 48.40625 30.273438 48.40625 C 30.402344 48.40625 30.417969 48.222656 30.394531 47.140625 C 30.375 46.238281 30.332031 45.863281 30.246094 45.835938 C 30.148438 45.804688 30.121094 46.097656 30.121094 47.097656 M 60.203125 45.964844 C 60.167969 46.054688 60.144531 46.582031 60.144531 47.140625 C 60.144531 48.171875 60.238281 48.550781 60.4375 48.347656 C 60.585938 48.199219 60.527344 45.890625 60.378906 45.839844 C 60.316406 45.820312 60.238281 45.875 60.203125 45.964844 M 69.125 45.875 C 69.089844 45.914062 69.058594 46.496094 69.058594 47.175781 C 69.058594 48.160156 69.085938 48.40625 69.195312 48.40625 C 69.410156 48.40625 69.457031 48.171875 69.457031 47.109375 C 69.457031 45.941406 69.371094 45.628906 69.125 45.875 M 35.078125 46.238281 C 34.730469 46.414062 34.5625 46.785156 34.617188 47.257812 C 34.734375 48.226562 35.988281 48.4375 36.402344 47.558594 C 36.625 47.09375 36.539062 46.691406 36.148438 46.363281 C 35.824219 46.085938 35.457031 46.042969 35.078125 46.238281 M 39.761719 46.207031 C 39.496094 46.320312 39.234375 46.800781 39.238281 47.175781 C 39.238281 47.816406 40 48.265625 40.652344 48.015625 C 41.199219 47.804688 41.347656 46.90625 40.917969 46.410156 C 40.710938 46.164062 40.101562 46.058594 39.761719 46.207031 M 42.796875 46.402344 C 41.960938 47.242188 42.972656 48.546875 43.992188 47.941406 C 44.390625 47.703125 44.558594 47.136719 44.351562 46.730469 C 44 46.050781 43.292969 45.898438 42.796875 46.402344 M 46.148438 46.402344 C 45.863281 46.660156 45.828125 46.746094 45.84375 47.164062 C 45.867188 47.8125 46.117188 48.054688 46.757812 48.054688 C 47.332031 48.054688 47.609375 47.851562 47.703125 47.351562 C 47.78125 46.917969 47.542969 46.378906 47.203125 46.222656 C 46.800781 46.039062 46.492188 46.089844 46.148438 46.402344 M 54.296875 46.183594 C 53.730469 46.40625 53.53125 47.4375 53.976562 47.832031 C 54.441406 48.242188 55.195312 48.164062 55.488281 47.675781 C 55.710938 47.308594 55.734375 47.027344 55.566406 46.65625 C 55.371094 46.230469 54.757812 46 54.296875 46.183594 M 64.238281 46.207031 C 63.652344 46.445312 63.519531 47.332031 64 47.8125 C 64.511719 48.328125 65.292969 48.132812 65.589844 47.410156 C 65.902344 46.648438 65.042969 45.882812 64.238281 46.207031 M 71.011719 46.28125 C 70.621094 46.535156 70.480469 47.058594 70.679688 47.539062 C 71.070312 48.480469 72.527344 48.15625 72.527344 47.128906 C 72.527344 46.339844 71.667969 45.859375 71.011719 46.28125 "/>
<path style=" stroke:none;fill-rule:evenodd;fill:rgb(1.568627%,83.921569%,68.235294%);fill-opacity:1;" d="M 95.578125 0.566406 C 95.480469 0.664062 95.5 1.078125 95.605469 1.144531 C 95.710938 1.207031 96.007812 0.824219 96.007812 0.625 C 96.007812 0.492188 95.695312 0.449219 95.578125 0.566406 M 91.425781 0.671875 C 91.199219 0.707031 91.089844 0.832031 90.804688 1.402344 C 90.519531 1.972656 90.363281 2.152344 89.890625 2.46875 C 89.578125 2.679688 89.265625 2.964844 89.199219 3.105469 C 89.058594 3.40625 86.824219 5.507812 85.503906 6.585938 C 85 7 84.539062 7.382812 84.476562 7.441406 C 82.867188 8.964844 79.320312 11.574219 78.59375 11.769531 C 78.210938 11.875 77.480469 12.460938 77.480469 12.664062 C 77.480469 12.726562 77.59375 12.773438 77.730469 12.773438 C 77.863281 12.773438 77.976562 12.824219 77.976562 12.882812 C 77.976562 13.128906 77.628906 13.554688 77.183594 13.863281 C 76.320312 14.457031 76.058594 14.277344 76.683594 13.519531 C 76.902344 13.253906 77.050781 13.011719 77.019531 12.980469 C 76.984375 12.949219 76.9375 12.980469 76.914062 13.050781 C 76.890625 13.117188 76.816406 13.175781 76.753906 13.179688 C 76.515625 13.1875 75.996094 13.75 75.785156 14.222656 C 75.550781 14.761719 74.71875 15.707031 74.28125 15.933594 C 74.105469 16.023438 73.886719 16.054688 73.707031 16.015625 C 73.472656 15.964844 73.335938 16.015625 72.996094 16.28125 C 72.765625 16.464844 72.554688 16.640625 72.527344 16.671875 C 72.5 16.703125 72.230469 16.914062 71.933594 17.132812 C 71.632812 17.355469 71.191406 17.703125 70.949219 17.90625 C 70.53125 18.261719 68.628906 19.5625 68.53125 19.5625 C 68.507812 19.5625 68.203125 19.734375 67.855469 19.945312 C 67.507812 20.15625 66.835938 20.523438 66.359375 20.761719 C 65.882812 20.996094 65.492188 21.230469 65.492188 21.28125 C 65.492188 21.328125 65.234375 21.484375 64.921875 21.621094 C 64.609375 21.761719 64.332031 21.90625 64.304688 21.941406 C 64.144531 22.152344 63.855469 22.289062 63.496094 22.316406 C 63.273438 22.335938 63.039062 22.394531 62.976562 22.445312 C 62.917969 22.496094 62.59375 22.675781 62.261719 22.84375 C 61.800781 23.078125 61.433594 23.175781 60.726562 23.253906 C 60.214844 23.308594 59.617188 23.402344 59.398438 23.460938 C 58.441406 23.714844 58.316406 23.738281 58.238281 23.691406 C 58.195312 23.664062 58.160156 24.304688 58.160156 25.113281 C 58.160156 25.925781 58.117188 27.195312 58.0625 27.941406 C 57.945312 29.570312 57.882812 31.917969 57.960938 31.695312 C 57.992188 31.605469 58.148438 31.460938 58.3125 31.371094 C 59.195312 30.878906 59.503906 30.738281 59.71875 30.738281 C 59.847656 30.738281 60.117188 30.65625 60.320312 30.558594 C 60.875 30.28125 62.238281 29.53125 62.519531 29.347656 C 62.65625 29.257812 62.878906 29.140625 63.015625 29.082031 C 63.347656 28.945312 64.125 28.542969 64.8125 28.15625 C 65.121094 27.984375 65.757812 27.707031 66.222656 27.542969 C 66.691406 27.382812 67.28125 27.089844 67.53125 26.898438 C 67.78125 26.707031 68.105469 26.523438 68.25 26.488281 C 68.71875 26.386719 68.753906 26.363281 68.890625 26.027344 C 69.058594 25.625 69.195312 25.511719 69.703125 25.347656 C 69.921875 25.28125 70.234375 25.175781 70.398438 25.121094 C 70.832031 24.976562 72.171875 24.097656 73.023438 23.402344 C 73.632812 22.902344 73.902344 22.753906 74.535156 22.570312 C 75.457031 22.308594 75.507812 22.285156 76.632812 21.679688 C 77.117188 21.417969 77.535156 21.148438 77.554688 21.082031 C 77.640625 20.828125 77.078125 20.96875 76.46875 21.355469 C 75.816406 21.773438 75.328125 21.890625 75.4375 21.597656 C 75.472656 21.511719 75.5 21.425781 75.5 21.40625 C 75.5 21.386719 75.890625 21.089844 76.367188 20.746094 C 77.808594 19.707031 78.660156 18.964844 78.667969 18.738281 C 78.667969 18.695312 78.558594 18.664062 78.421875 18.664062 C 78.109375 18.664062 78.085938 18.351562 78.382812 18.054688 C 78.71875 17.714844 78.519531 17.722656 78.023438 18.066406 C 77.546875 18.398438 76.890625 19.015625 76.539062 19.464844 C 76.386719 19.664062 74.957031 20.460938 74.753906 20.460938 C 74.730469 20.460938 74.464844 20.617188 74.167969 20.808594 C 73.871094 21 73.574219 21.160156 73.511719 21.160156 C 73.449219 21.160156 73.175781 21.269531 72.90625 21.40625 C 72.632812 21.546875 72.355469 21.65625 72.289062 21.65625 C 72.222656 21.65625 71.957031 21.859375 71.699219 22.105469 C 71.363281 22.429688 71.15625 22.554688 70.941406 22.554688 C 70.765625 22.554688 70.382812 22.730469 69.960938 23.003906 C 69.195312 23.503906 69.003906 23.550781 68.910156 23.253906 C 68.824219 22.984375 68.507812 23.003906 68.019531 23.300781 C 67.191406 23.808594 66.660156 24.0625 66.257812 24.148438 C 66.027344 24.195312 65.496094 24.363281 65.078125 24.515625 C 64.660156 24.671875 64.289062 24.769531 64.253906 24.734375 C 64.167969 24.648438 65.148438 23.292969 65.351562 23.214844 C 65.4375 23.183594 65.601562 23.15625 65.714844 23.15625 C 65.980469 23.15625 66.75 22.703125 66.871094 22.472656 C 66.921875 22.375 67.203125 22.175781 67.492188 22.027344 C 67.9375 21.800781 69.394531 20.765625 69.554688 20.5625 C 69.582031 20.527344 69.78125 20.367188 70 20.207031 C 70.21875 20.042969 70.417969 19.890625 70.445312 19.859375 C 70.472656 19.832031 70.757812 19.613281 71.074219 19.375 C 71.394531 19.136719 71.730469 18.851562 71.820312 18.746094 C 72.078125 18.4375 72.855469 17.902344 73.585938 17.527344 C 74.042969 17.296875 74.40625 17.015625 74.71875 16.652344 C 74.96875 16.359375 75.4375 15.9375 75.757812 15.71875 C 76.078125 15.5 76.363281 15.300781 76.390625 15.269531 C 76.640625 15.011719 77.789062 14.097656 78.457031 13.632812 C 78.910156 13.316406 79.378906 12.976562 79.496094 12.878906 C 79.613281 12.78125 80 12.457031 80.355469 12.160156 C 81.574219 11.136719 82.683594 10.320312 83.179688 10.078125 C 83.449219 9.945312 83.875 9.679688 84.117188 9.484375 C 84.363281 9.289062 84.609375 9.097656 84.664062 9.054688 C 84.71875 9.015625 84.964844 8.824219 85.210938 8.632812 C 85.453125 8.441406 85.738281 8.285156 85.835938 8.285156 C 85.9375 8.285156 86.292969 7.984375 86.628906 7.621094 C 86.964844 7.257812 87.640625 6.617188 88.132812 6.203125 C 89.175781 5.3125 89.210938 5.273438 89.46875 4.703125 C 89.632812 4.339844 89.691406 4.289062 89.8125 4.386719 C 89.988281 4.535156 90.304688 4.445312 90.71875 4.128906 C 90.886719 4 91.058594 3.890625 91.097656 3.890625 C 91.40625 3.890625 93.234375 2.257812 93.234375 1.984375 C 93.234375 1.878906 93.3125 1.671875 93.40625 1.527344 L 93.578125 1.265625 L 93.28125 1.332031 C 93.117188 1.375 92.816406 1.597656 92.589844 1.851562 C 92.144531 2.351562 91.847656 2.433594 91.847656 2.050781 C 91.847656 1.898438 92.011719 1.640625 92.300781 1.347656 C 92.625 1.015625 92.722656 0.851562 92.652344 0.761719 C 92.554688 0.640625 91.941406 0.597656 91.425781 0.671875 M 95.003906 4.417969 C 94.839844 4.550781 94.425781 5.132812 94.425781 5.230469 C 94.425781 5.351562 94.601562 5.28125 95.050781 4.980469 C 95.527344 4.660156 95.628906 4.457031 95.355469 4.351562 C 95.15625 4.273438 95.179688 4.269531 95.003906 4.417969 M 76.597656 5.382812 C 76.484375 5.496094 76.390625 5.636719 76.390625 5.699219 C 76.390625 5.800781 75.421875 7.355469 75.195312 7.617188 C 75.136719 7.679688 74.507812 8.519531 73.796875 9.480469 C 73.085938 10.441406 72.476562 11.25 72.441406 11.277344 C 72.40625 11.304688 72.132812 11.617188 71.832031 11.972656 C 70.777344 13.222656 69.027344 14.863281 67.828125 15.726562 C 67.59375 15.898438 67.296875 16.136719 67.164062 16.261719 C 66.746094 16.664062 66.355469 16.9375 65.441406 17.46875 C 64.953125 17.757812 64.429688 18.0625 64.285156 18.152344 C 62.429688 19.273438 61.707031 19.679688 60.207031 20.453125 C 59.238281 20.949219 58.40625 21.359375 58.355469 21.359375 C 58.308594 21.359375 58.253906 20.988281 58.234375 20.535156 C 58.21875 20.082031 58.203125 20.527344 58.207031 21.523438 C 58.207031 22.519531 58.238281 23.289062 58.273438 23.230469 C 58.414062 23.003906 60.0625 22.148438 60.738281 21.953125 C 60.980469 21.882812 61.382812 21.726562 61.628906 21.601562 C 61.875 21.480469 62.363281 21.261719 62.71875 21.113281 C 63.644531 20.722656 63.871094 20.609375 64.699219 20.125 C 65.109375 19.882812 66.042969 19.378906 66.78125 19 C 67.515625 18.625 68.140625 18.292969 68.167969 18.261719 C 68.195312 18.230469 68.460938 18.054688 68.761719 17.875 C 69.398438 17.488281 69.949219 16.984375 69.949219 16.789062 C 69.949219 16.617188 69.699219 16.691406 68.9375 17.085938 C 68.179688 17.484375 67.96875 17.335938 68.339844 16.675781 C 68.4375 16.503906 68.648438 16.324219 68.820312 16.265625 C 69.089844 16.175781 70 15.285156 72.152344 13 C 72.671875 12.449219 72.78125 12.375 73.113281 12.375 C 73.578125 12.375 73.910156 12.089844 74.195312 11.445312 C 74.304688 11.191406 74.660156 10.675781 74.984375 10.296875 C 75.679688 9.484375 76.191406 8.75 76.195312 8.566406 C 76.199219 8.28125 76.460938 7.699219 76.910156 6.96875 C 77.410156 6.164062 77.472656 5.945312 77.234375 5.851562 C 77.152344 5.820312 77.085938 5.710938 77.085938 5.605469 C 77.085938 5.5 77.019531 5.359375 76.941406 5.296875 C 76.828125 5.199219 76.757812 5.21875 76.597656 5.382812 M 52.015625 5.953125 C 51.554688 6.304688 51.070312 6.671875 50.945312 6.765625 C 50.816406 6.863281 50.679688 7.109375 50.628906 7.335938 C 50.460938 8.105469 50.828125 8.003906 51.4375 7.109375 C 51.632812 6.832031 51.804688 6.6875 51.949219 6.683594 C 52.246094 6.683594 52.328125 6.613281 52.664062 6.0625 C 52.828125 5.800781 52.992188 5.589844 53.03125 5.589844 C 53.074219 5.589844 53.105469 5.523438 53.105469 5.4375 C 53.105469 5.183594 52.890625 5.285156 52.015625 5.953125 M 56.015625 8.4375 C 55.738281 8.621094 55.371094 8.855469 55.207031 8.953125 C 55.042969 9.050781 54.515625 9.402344 54.03125 9.730469 C 52.886719 10.515625 52.757812 10.578125 52.316406 10.578125 C 51.742188 10.578125 51.335938 10.761719 50.488281 11.398438 C 49.890625 11.847656 49.648438 11.976562 49.476562 11.933594 C 49.296875 11.886719 49.21875 11.9375 49.09375 12.175781 C 48.9375 12.480469 48.714844 12.566406 48.59375 12.367188 C 48.550781 12.300781 48.460938 12.335938 48.335938 12.46875 C 48.230469 12.582031 48.023438 12.675781 47.875 12.675781 C 47.707031 12.675781 47.425781 12.824219 47.125 13.074219 C 46.574219 13.53125 46.152344 13.75 45.726562 13.792969 C 45.457031 13.820312 45.296875 13.996094 45.148438 14.421875 C 45.128906 14.484375 45.058594 14.472656 44.964844 14.398438 C 44.863281 14.3125 44.789062 14.308594 44.714844 14.382812 C 44.640625 14.457031 44.550781 14.453125 44.414062 14.363281 C 44.246094 14.257812 44.144531 14.292969 43.675781 14.605469 C 43.339844 14.828125 43.011719 14.96875 42.820312 14.96875 C 42.652344 14.96875 42.390625 15.019531 42.238281 15.082031 C 42.085938 15.144531 41.871094 15.230469 41.761719 15.269531 C 41.121094 15.511719 40.445312 15.855469 40.144531 16.09375 C 39.941406 16.257812 39.679688 16.367188 39.496094 16.371094 C 39.324219 16.371094 38.988281 16.441406 38.742188 16.527344 C 38.5 16.609375 37.945312 16.726562 37.503906 16.785156 C 36.972656 16.851562 36.480469 16.996094 36.015625 17.21875 C 35.628906 17.402344 35.015625 17.597656 34.628906 17.65625 C 34.246094 17.714844 33.644531 17.851562 33.292969 17.964844 C 32.582031 18.183594 31.960938 18.21875 31.550781 18.0625 C 31.324219 17.976562 31.296875 17.984375 31.347656 18.121094 C 31.382812 18.210938 31.453125 18.804688 31.507812 19.445312 C 31.6875 21.503906 31.730469 21.851562 31.816406 21.800781 C 31.859375 21.773438 32.074219 21.863281 32.292969 22.003906 C 32.761719 22.300781 33.289062 22.332031 33.847656 22.089844 C 34.339844 21.882812 35.3125 21.671875 35.652344 21.703125 C 35.796875 21.714844 36.515625 21.808594 37.25 21.902344 C 38.539062 22.074219 39.515625 22.074219 41.117188 21.902344 C 42.089844 21.800781 42.136719 21.78125 42.066406 21.492188 C 42.03125 21.351562 41.929688 21.125 41.839844 20.988281 C 41.710938 20.792969 41.621094 20.753906 41.398438 20.796875 C 41.191406 20.839844 41.117188 20.816406 41.117188 20.707031 C 41.117188 20.625 41.035156 20.476562 40.929688 20.371094 C 40.773438 20.210938 40.644531 20.191406 40.089844 20.234375 C 39.546875 20.277344 39.433594 20.261719 39.433594 20.136719 C 39.433594 19.941406 39.542969 19.859375 40.375 19.4375 C 41.230469 19.003906 42.472656 18.683594 44.386719 18.402344 C 44.632812 18.367188 45.050781 18.230469 45.3125 18.101562 C 45.875 17.824219 46.09375 17.808594 46.421875 18.023438 C 46.554688 18.113281 46.851562 18.179688 47.085938 18.175781 C 47.320312 18.171875 47.726562 18.164062 47.988281 18.164062 C 48.578125 18.164062 49.046875 17.871094 49.046875 17.507812 C 49.046875 17.277344 49.019531 17.265625 48.371094 17.265625 C 47.648438 17.265625 47.460938 17.167969 47.460938 16.796875 C 47.460938 16.457031 47.019531 16.496094 46.101562 16.921875 C 45.46875 17.21875 45.296875 17.261719 45.105469 17.171875 C 44.976562 17.113281 44.707031 17.066406 44.503906 17.066406 C 44.183594 17.066406 44.121094 17.105469 44.019531 17.371094 C 43.921875 17.636719 43.878906 17.664062 43.707031 17.574219 C 43.453125 17.4375 42.726562 17.4375 41.753906 17.574219 C 41.1875 17.652344 40.929688 17.652344 40.773438 17.566406 C 40.59375 17.46875 40.515625 17.5 40.214844 17.785156 C 39.851562 18.128906 39.191406 18.363281 38.582031 18.363281 C 38.265625 18.363281 38.238281 18.34375 38.296875 18.140625 C 38.386719 17.820312 39.027344 17.265625 39.308594 17.265625 C 39.441406 17.265625 39.792969 17.089844 40.089844 16.875 C 40.902344 16.289062 43.804688 15.171875 44.507812 15.171875 C 44.621094 15.171875 44.855469 15.066406 45.023438 14.9375 C 45.316406 14.710938 45.746094 14.535156 46.269531 14.425781 C 46.40625 14.398438 46.898438 14.148438 47.359375 13.867188 C 48.300781 13.296875 48.847656 12.988281 49.9375 12.402344 C 50.34375 12.183594 50.878906 11.886719 51.125 11.742188 C 51.371094 11.597656 51.675781 11.480469 51.800781 11.480469 C 51.933594 11.476562 52.167969 11.332031 52.359375 11.128906 C 52.5625 10.910156 52.777344 10.777344 52.933594 10.777344 C 53.066406 10.777344 53.285156 10.695312 53.414062 10.597656 C 53.546875 10.496094 54.210938 10.132812 54.890625 9.792969 C 55.679688 9.394531 56.265625 9.027344 56.5 8.78125 C 57.183594 8.066406 56.890625 7.855469 56.015625 8.4375 M 47.878906 9.636719 C 47.8125 9.710938 47.757812 9.828125 47.757812 9.898438 C 47.757812 9.96875 47.828125 9.921875 47.914062 9.796875 C 48.09375 9.539062 48.070312 9.429688 47.878906 9.636719 M 86.636719 11.511719 C 86.046875 11.761719 85.804688 11.945312 85.804688 12.140625 C 85.804688 12.480469 86.242188 12.390625 86.804688 11.9375 C 86.949219 11.820312 87.160156 11.660156 87.277344 11.582031 C 87.78125 11.230469 87.390625 11.1875 86.636719 11.511719 M 1.980469 11.867188 C 1.980469 11.910156 2.074219 12.027344 2.183594 12.128906 C 2.296875 12.230469 2.476562 12.476562 2.585938 12.671875 C 2.695312 12.863281 3.027344 13.195312 3.324219 13.40625 C 3.667969 13.644531 3.863281 13.855469 3.863281 13.980469 C 3.863281 14.171875 3.859375 14.171875 3.492188 13.972656 C 2.167969 13.238281 1.09375 12.703125 1.046875 12.753906 C 1.015625 12.78125 0.992188 13.472656 0.992188 14.285156 L 0.992188 15.765625 L 1.261719 15.9375 C 1.886719 16.328125 1.917969 16.410156 1.929688 17.582031 C 1.933594 18.175781 1.910156 18.664062 1.875 18.664062 C 1.839844 18.664062 1.636719 18.5 1.425781 18.296875 L 1.039062 17.929688 L 1.007812 18.199219 C 0.984375 18.402344 1.085938 18.589844 1.429688 18.976562 C 1.679688 19.253906 1.882812 19.527344 1.882812 19.578125 C 1.882812 19.632812 2.148438 19.929688 2.476562 20.246094 C 2.867188 20.617188 3.070312 20.894531 3.070312 21.042969 C 3.070312 21.390625 3.261719 21.683594 3.441406 21.613281 C 3.535156 21.574219 3.832031 21.734375 4.21875 22.03125 C 4.984375 22.613281 5.132812 22.957031 4.617188 22.953125 C 4.382812 22.953125 3.8125 22.519531 3.203125 21.882812 C 2.839844 21.5 2.574219 21.347656 2.574219 21.519531 C 2.574219 21.734375 3.164062 22.601562 3.460938 22.828125 C 4.046875 23.277344 4.855469 24.074219 4.855469 24.207031 C 4.855469 24.277344 4.804688 24.351562 4.742188 24.375 C 4.675781 24.394531 4.796875 24.664062 5.046875 25.03125 C 5.277344 25.371094 5.449219 25.695312 5.433594 25.753906 C 5.414062 25.808594 5.140625 25.601562 4.828125 25.292969 C 4.40625 24.875 4.261719 24.660156 4.261719 24.453125 C 4.261719 24.148438 3.882812 23.625 3.804688 23.820312 C 3.777344 23.882812 3.667969 24.035156 3.5625 24.160156 C 3.457031 24.28125 3.367188 24.414062 3.367188 24.453125 C 3.367188 24.609375 3.804688 25.070312 4.238281 25.371094 C 4.492188 25.546875 4.859375 25.835938 5.058594 26.015625 C 5.449219 26.375 6.078125 26.679688 5.847656 26.402344 C 5.6875 26.207031 5.789062 25.933594 5.996094 26.011719 C 6.183594 26.085938 6.441406 26.5625 6.441406 26.835938 C 6.441406 27.046875 7.933594 28.242188 8.667969 28.621094 C 8.886719 28.734375 9.425781 29.109375 9.863281 29.457031 C 10.300781 29.804688 11.039062 30.328125 11.496094 30.621094 C 11.957031 30.914062 12.714844 31.398438 13.175781 31.699219 C 13.640625 32 14.121094 32.289062 14.242188 32.339844 C 14.488281 32.441406 14.53125 32.589844 14.34375 32.671875 C 14.273438 32.703125 14.507812 32.703125 14.863281 32.671875 C 15.867188 32.585938 16 32.453125 16.550781 30.9375 C 16.722656 30.472656 16.917969 29.957031 16.988281 29.792969 C 17.054688 29.625 17.324219 28.976562 17.585938 28.34375 C 18.632812 25.824219 20.835938 21.332031 21.496094 20.359375 C 21.589844 20.222656 21.691406 20.042969 21.722656 19.960938 C 21.753906 19.878906 22.0625 19.378906 22.410156 18.851562 C 22.773438 18.304688 22.976562 17.910156 22.890625 17.929688 C 22.808594 17.949219 22.5625 17.832031 22.34375 17.667969 C 21.792969 17.257812 20.765625 16.765625 20.460938 16.765625 C 20.28125 16.765625 20.179688 16.839844 20.113281 17.015625 C 20 17.320312 19.824219 17.328125 19.0625 17.0625 C 18.742188 16.949219 18.300781 16.816406 18.082031 16.769531 C 17.863281 16.722656 17.375 16.613281 17 16.527344 C 16.082031 16.320312 15.976562 16.457031 16.753906 16.847656 C 17.152344 17.046875 17.261719 17.410156 16.949219 17.492188 C 16.832031 17.523438 16.648438 17.46875 16.511719 17.359375 C 16.171875 17.089844 15.757812 16.925781 15.359375 16.902344 C 15.167969 16.890625 14.867188 16.847656 14.6875 16.8125 C 14.289062 16.726562 14.265625 16.882812 14.628906 17.222656 C 14.96875 17.539062 14.875 17.621094 14.34375 17.46875 C 14.113281 17.402344 13.800781 17.324219 13.660156 17.296875 C 13.515625 17.269531 13.25 17.09375 13.070312 16.90625 C 12.890625 16.71875 12.679688 16.566406 12.605469 16.566406 C 12.53125 16.566406 12.226562 16.449219 11.925781 16.304688 C 11.535156 16.121094 11.347656 16.078125 11.269531 16.152344 C 11.195312 16.226562 11.089844 16.207031 10.90625 16.078125 C 10.765625 15.976562 10.207031 15.679688 9.660156 15.414062 C 8.539062 14.863281 7.945312 14.515625 7.050781 13.878906 C 6.4375 13.445312 6.414062 13.4375 5.605469 13.429688 C 4.816406 13.425781 4.769531 13.410156 4.316406 13.054688 C 4.058594 12.851562 3.785156 12.710938 3.707031 12.742188 C 3.632812 12.769531 3.3125 12.621094 3 12.410156 C 2.277344 11.925781 1.980469 11.765625 1.980469 11.867188 M 57.929688 12.074219 C 57.644531 12.382812 57.648438 12.578125 57.941406 12.570312 C 58.15625 12.566406 58.492188 12.109375 58.417969 11.921875 C 58.339844 11.710938 58.242188 11.742188 57.929688 12.074219 M 86.9375 12.417969 C 86.710938 12.585938 86.828125 12.765625 87.066406 12.613281 C 87.25 12.496094 87.351562 12.277344 87.21875 12.277344 C 87.167969 12.277344 87.042969 12.339844 86.9375 12.417969 M 86.019531 13.023438 C 85.816406 13.261719 85.738281 13.472656 85.855469 13.472656 C 86.027344 13.472656 86.398438 13.121094 86.398438 12.964844 C 86.398438 12.707031 86.277344 12.726562 86.019531 13.023438 M 28.410156 13.242188 C 28.480469 13.269531 28.589844 13.269531 28.660156 13.242188 C 28.726562 13.210938 28.671875 13.191406 28.535156 13.191406 C 28.398438 13.191406 28.34375 13.210938 28.410156 13.242188 M 84.097656 13.507812 C 83.703125 13.738281 83.605469 13.972656 83.902344 13.972656 C 84.109375 13.972656 84.554688 13.539062 84.5 13.390625 C 84.480469 13.335938 84.300781 13.390625 84.097656 13.507812 M 39.285156 14.171875 C 39.246094 14.238281 39.257812 14.335938 39.3125 14.390625 C 39.378906 14.457031 39.4375 14.449219 39.484375 14.371094 C 39.523438 14.308594 39.511719 14.210938 39.457031 14.15625 C 39.390625 14.089844 39.332031 14.09375 39.285156 14.171875 M 84.15625 14.613281 C 83.882812 14.855469 83.882812 14.863281 84.089844 14.867188 C 84.214844 14.871094 84.359375 14.78125 84.421875 14.664062 C 84.585938 14.351562 84.476562 14.332031 84.15625 14.613281 M 81.578125 15.125 C 81.546875 15.207031 81.3125 15.417969 81.0625 15.59375 C 80.269531 16.136719 80.117188 16.367188 80.746094 16.058594 C 80.960938 15.953125 81.1875 15.867188 81.25 15.867188 C 81.457031 15.867188 82.023438 15.558594 82.078125 15.410156 C 82.160156 15.191406 82.035156 14.96875 81.828125 14.96875 C 81.722656 14.96875 81.609375 15.039062 81.578125 15.125 M 24.957031 15.445312 C 24.832031 15.601562 24.835938 15.605469 24.992188 15.484375 C 25.15625 15.351562 25.210938 15.269531 25.128906 15.269531 C 25.109375 15.269531 25.03125 15.347656 24.957031 15.445312 M 71.339844 15.769531 C 71.339844 15.894531 71.539062 15.894531 71.734375 15.769531 C 71.851562 15.695312 71.824219 15.671875 71.609375 15.671875 C 71.460938 15.671875 71.339844 15.714844 71.339844 15.769531 M 70.941406 15.96875 C 70.941406 16.023438 70.988281 16.070312 71.039062 16.070312 C 71.09375 16.070312 71.140625 16.023438 71.140625 15.96875 C 71.140625 15.914062 71.09375 15.867188 71.039062 15.867188 C 70.988281 15.867188 70.941406 15.914062 70.941406 15.96875 M 57.195312 16.417969 C 57.195312 16.636719 57.214844 16.714844 57.238281 16.589844 C 57.261719 16.46875 57.261719 16.289062 57.238281 16.191406 C 57.210938 16.097656 57.195312 16.199219 57.195312 16.417969 M 1.035156 16.402344 C 0.988281 16.523438 1.03125 16.652344 1.175781 16.796875 C 1.425781 17.050781 1.460938 16.867188 1.242188 16.46875 C 1.117188 16.242188 1.097656 16.234375 1.035156 16.402344 M 79.289062 16.824219 C 79.113281 16.964844 78.96875 17.148438 78.96875 17.234375 C 78.96875 17.359375 79.023438 17.351562 79.289062 17.179688 C 79.683594 16.929688 79.957031 16.566406 79.746094 16.570312 C 79.671875 16.570312 79.464844 16.683594 79.289062 16.824219 M 49.609375 17.03125 C 49.574219 17.066406 49.566406 17.132812 49.597656 17.175781 C 49.65625 17.277344 49.9375 17.179688 49.9375 17.054688 C 49.9375 16.953125 49.703125 16.933594 49.609375 17.03125 M 58.199219 18.265625 C 58.199219 19.003906 58.214844 19.308594 58.234375 18.9375 C 58.253906 18.566406 58.253906 17.960938 58.234375 17.589844 C 58.214844 17.21875 58.199219 17.523438 58.199219 18.265625 M 23.367188 18.941406 C 23.007812 19.53125 22.578125 20.257812 22.414062 20.5625 C 21.714844 21.847656 19.71875 25.945312 19.71875 26.089844 C 19.71875 26.113281 19.566406 26.464844 19.382812 26.867188 C 19.019531 27.65625 17.878906 30.527344 17.554688 31.457031 C 17.40625 31.882812 17.386719 32.050781 17.472656 32.125 C 17.546875 32.183594 18.183594 32.1875 19.222656 32.128906 C 20.121094 32.078125 21.703125 31.992188 22.738281 31.941406 C 23.773438 31.886719 25.734375 31.777344 27.097656 31.691406 C 28.460938 31.609375 29.710938 31.539062 29.878906 31.539062 C 30.550781 31.535156 30.527344 31.679688 30.546875 27.59375 C 30.558594 25.5625 30.542969 24.058594 30.515625 24.253906 C 30.46875 24.597656 30.464844 24.601562 30.019531 24.566406 C 29.601562 24.53125 29.386719 24.402344 29.484375 24.242188 C 29.507812 24.203125 29.753906 24.089844 30.03125 23.988281 L 30.539062 23.804688 L 30.472656 22.257812 C 30.394531 20.449219 30.246094 18.542969 30.164062 18.335938 C 30.117188 18.210938 30.027344 18.210938 29.445312 18.335938 C 28.742188 18.492188 26.5 18.445312 26.171875 18.273438 C 26.082031 18.226562 25.585938 18.152344 25.066406 18.113281 C 24.550781 18.074219 24.101562 18.003906 24.074219 17.957031 C 24.042969 17.910156 23.726562 18.351562 23.367188 18.941406 M 57.203125 19.410156 C 57.203125 19.851562 57.222656 20.019531 57.242188 19.785156 C 57.261719 19.550781 57.261719 19.191406 57.242188 18.984375 C 57.21875 18.78125 57.203125 18.972656 57.203125 19.410156 M 57.203125 21.058594 C 57.203125 21.46875 57.21875 21.640625 57.242188 21.433594 C 57.261719 21.226562 57.261719 20.890625 57.242188 20.683594 C 57.21875 20.480469 57.203125 20.648438 57.203125 21.058594 M 56.871094 21.953125 C 56.789062 21.996094 56.613281 22.078125 56.476562 22.132812 C 56.339844 22.191406 55.945312 22.351562 55.601562 22.496094 C 55.257812 22.636719 54.882812 22.753906 54.769531 22.753906 C 54.65625 22.753906 54.128906 22.957031 53.59375 23.203125 C 53.058594 23.453125 52.5625 23.652344 52.492188 23.652344 C 52.421875 23.652344 51.917969 23.765625 51.375 23.902344 C 50.828125 24.039062 50.226562 24.152344 50.035156 24.152344 C 49.84375 24.152344 49.53125 24.191406 49.34375 24.242188 C 49.152344 24.289062 48.683594 24.378906 48.300781 24.441406 C 47.921875 24.503906 47.074219 24.648438 46.417969 24.761719 C 45.765625 24.875 44.894531 25.007812 44.488281 25.054688 C 44.078125 25.101562 43.433594 25.191406 43.050781 25.253906 C 42.273438 25.378906 39.816406 25.574219 38.855469 25.582031 C 38.367188 25.589844 38.203125 25.550781 38.132812 25.425781 C 38.054688 25.277344 37.886719 25.265625 36.710938 25.320312 C 35.566406 25.371094 35.3125 25.355469 34.910156 25.199219 C 34.554688 25.0625 34.140625 25.015625 33.234375 25.007812 C 32.402344 25.003906 31.984375 24.960938 31.878906 24.871094 C 31.734375 24.75 31.71875 25.042969 31.6875 28.015625 C 31.652344 31.53125 31.65625 31.554688 32.160156 31.679688 C 32.484375 31.761719 32.460938 31.886719 32.09375 32.039062 C 31.507812 32.285156 31.539062 32.089844 31.3125 37.039062 C 31.261719 38.171875 31.195312 39.226562 31.164062 39.382812 C 31.113281 39.648438 31.113281 39.652344 31.207031 39.4375 C 31.300781 39.230469 31.351562 39.210938 31.730469 39.273438 C 32.367188 39.375 33.886719 39.777344 34.320312 39.960938 C 34.863281 40.1875 34.972656 40.15625 34.640625 39.863281 C 34.335938 39.59375 34.363281 39.402344 34.679688 39.601562 C 34.789062 39.667969 35.164062 39.722656 35.515625 39.722656 C 36.265625 39.722656 36.921875 39.972656 36.746094 40.1875 C 36.628906 40.328125 36.84375 40.761719 37.148438 40.984375 C 37.507812 41.257812 37.464844 40.847656 37.09375 40.472656 C 36.660156 40.035156 37.398438 40.339844 38.128906 40.898438 C 38.484375 41.175781 38.824219 41.21875 39.683594 41.097656 C 40.042969 41.042969 40.078125 41.015625 40.0625 40.753906 C 40.027344 40.234375 40.113281 40.023438 40.359375 40.023438 C 40.613281 40.023438 40.820312 39.851562 40.820312 39.636719 C 40.820312 39.558594 40.933594 39.339844 41.074219 39.15625 L 41.328125 38.824219 L 42.324219 38.824219 C 43.3125 38.824219 43.320312 38.820312 43.25 38.597656 C 43.207031 38.476562 43.171875 38.238281 43.164062 38.074219 C 43.148438 37.785156 43.164062 37.773438 43.695312 37.722656 C 43.996094 37.695312 44.339844 37.605469 44.460938 37.527344 C 44.636719 37.410156 44.742188 37.40625 44.976562 37.492188 C 45.300781 37.617188 45.378906 37.582031 45.378906 37.3125 C 45.378906 36.957031 46.117188 36.8125 46.859375 37.027344 C 47.144531 37.109375 47.238281 37.09375 47.40625 36.9375 C 47.738281 36.632812 48.015625 36.527344 48.484375 36.527344 C 48.835938 36.527344 49.019531 36.460938 49.347656 36.203125 C 49.578125 36.027344 49.835938 35.777344 49.914062 35.652344 C 50.058594 35.433594 50.054688 35.429688 49.828125 35.511719 C 49.105469 35.773438 46.542969 36.042969 45.96875 35.917969 C 44.988281 35.703125 44.953125 35.324219 45.882812 35 C 46.179688 34.898438 46.46875 34.773438 46.53125 34.722656 C 46.589844 34.671875 47.285156 34.585938 48.070312 34.539062 C 48.855469 34.488281 49.609375 34.402344 49.742188 34.351562 C 50.226562 34.164062 50.695312 34.042969 51.570312 33.882812 C 52.0625 33.792969 52.601562 33.675781 52.765625 33.625 C 52.933594 33.574219 53.15625 33.53125 53.261719 33.53125 C 53.507812 33.527344 53.796875 33.304688 53.941406 33.015625 C 54.089844 32.714844 54.808594 32.449219 55.492188 32.441406 C 55.8125 32.4375 56.121094 32.375 56.234375 32.289062 C 56.339844 32.210938 56.5 32.140625 56.585938 32.140625 C 56.703125 32.136719 56.761719 32 56.808594 31.613281 C 56.910156 30.730469 57.085938 26.25 57.050781 25.332031 L 57.019531 24.46875 L 56.480469 24.660156 C 56.183594 24.765625 55.816406 24.851562 55.667969 24.851562 C 55.164062 24.851562 55.191406 24.480469 55.710938 24.269531 C 55.886719 24.195312 56.222656 24.046875 56.460938 23.933594 C 56.917969 23.71875 57.027344 23.753906 57.097656 24.152344 C 57.121094 24.289062 57.148438 23.828125 57.15625 23.128906 C 57.164062 22.429688 57.136719 21.859375 57.09375 21.863281 C 57.054688 21.867188 56.953125 21.90625 56.871094 21.953125 M 31.707031 22.675781 L 31.707031 23.070312 L 31.953125 22.773438 C 32.089844 22.609375 32.203125 22.453125 32.203125 22.429688 C 32.203125 22.402344 32.089844 22.359375 31.953125 22.332031 C 31.722656 22.289062 31.707031 22.3125 31.707031 22.675781 M 5.449219 24.570312 C 5.449219 24.777344 6.140625 25.449219 6.351562 25.449219 C 6.457031 25.449219 6.539062 25.429688 6.539062 25.402344 C 6.539062 25.339844 5.652344 24.511719 5.539062 24.46875 C 5.488281 24.449219 5.449219 24.496094 5.449219 24.570312 M 6.71875 25.617188 C 6.789062 25.648438 6.875 25.644531 6.910156 25.609375 C 6.941406 25.578125 6.882812 25.554688 6.777344 25.558594 C 6.664062 25.5625 6.640625 25.585938 6.71875 25.617188 M 35.519531 30.375 C 35.203125 30.519531 34.835938 30.855469 34.289062 31.492188 L 33.953125 31.886719 L 33.863281 31.558594 C 33.761719 31.171875 33.394531 30.976562 33.078125 31.148438 C 32.882812 31.25 32.875 31.332031 32.910156 32.828125 C 32.945312 34.503906 33.007812 34.730469 33.4375 34.730469 C 33.761719 34.730469 33.929688 34.476562 34.222656 33.535156 C 34.675781 32.074219 35.242188 31.15625 35.601562 31.292969 C 35.734375 31.347656 36.066406 32.210938 36.066406 32.515625 C 36.066406 32.574219 36.183594 32.851562 36.332031 33.132812 C 36.769531 33.988281 37.484375 34.433594 38.40625 34.429688 C 39.0625 34.429688 39.738281 34.171875 41.019531 33.433594 L 41.367188 33.230469 L 41.4375 33.851562 C 41.53125 34.675781 41.789062 34.945312 42.539062 35.007812 C 43.226562 35.066406 43.785156 34.804688 44.492188 34.089844 L 44.996094 33.585938 L 45.199219 33.863281 C 45.976562 34.933594 48.878906 34.410156 50.777344 32.859375 C 51.414062 32.339844 51.875 31.785156 51.746094 31.703125 C 51.699219 31.675781 51.507812 31.792969 51.320312 31.96875 C 50.691406 32.550781 50.207031 32.816406 48.804688 33.34375 C 48.164062 33.585938 47.015625 33.671875 46.574219 33.507812 C 46.371094 33.4375 46.15625 33.253906 46.046875 33.0625 C 45.875 32.769531 45.871094 32.679688 45.984375 32 C 46.085938 31.390625 46.085938 31.222656 45.980469 31.097656 C 45.8125 30.890625 45.394531 30.894531 45.164062 31.105469 C 45.015625 31.242188 44.9375 31.25 44.730469 31.15625 C 44.324219 30.96875 43.542969 31.015625 43.023438 31.257812 C 42.765625 31.375 42.199219 31.769531 41.761719 32.132812 C 41.328125 32.496094 40.792969 32.898438 40.574219 33.027344 C 39.761719 33.503906 38.40625 33.6875 37.96875 33.378906 C 37.707031 33.191406 37.539062 32.804688 37.359375 31.988281 C 37.167969 31.089844 37.070312 30.8125 36.855469 30.550781 C 36.613281 30.261719 35.953125 30.175781 35.519531 30.375 M 43.644531 31.753906 C 43.070312 32.074219 42.773438 32.558594 42.652344 33.371094 C 42.558594 33.996094 42.652344 34.234375 42.996094 34.234375 C 43.503906 34.234375 44.683594 32.695312 44.683594 32.035156 C 44.683594 31.703125 44.046875 31.53125 43.644531 31.753906 M 27.542969 32.34375 C 26.972656 32.386719 25.8125 32.46875 24.96875 32.53125 C 24.125 32.589844 22.851562 32.683594 22.144531 32.734375 C 21.4375 32.789062 20.144531 32.878906 19.269531 32.9375 C 16.824219 33.097656 16.816406 33.101562 16.621094 33.445312 C 16.527344 33.609375 16.492188 33.71875 16.542969 33.6875 C 16.617188 33.640625 16.988281 33.757812 17.882812 34.117188 C 17.992188 34.164062 18.890625 34.609375 19.878906 35.109375 C 20.867188 35.613281 22.160156 36.1875 22.753906 36.386719 C 23.34375 36.589844 24.15625 36.90625 24.558594 37.09375 C 25.25 37.417969 25.300781 37.425781 25.476562 37.265625 C 25.648438 37.105469 25.671875 37.113281 25.863281 37.359375 C 26.019531 37.558594 26.128906 37.609375 26.335938 37.566406 C 26.527344 37.527344 26.976562 37.6875 27.941406 38.128906 C 29.183594 38.699219 30.199219 39.082031 30.269531 39.003906 C 30.285156 38.988281 30.351562 37.828125 30.414062 36.429688 C 30.535156 33.660156 30.46875 32.59375 30.15625 32.363281 C 29.964844 32.222656 29.207031 32.21875 27.542969 32.34375 M 70.625 32.605469 C 70.699219 32.632812 70.78125 32.628906 70.816406 32.597656 C 70.847656 32.5625 70.789062 32.539062 70.6875 32.542969 C 70.570312 32.550781 70.546875 32.574219 70.625 32.605469 M 13.554688 32.804688 C 13.628906 32.832031 13.710938 32.828125 13.746094 32.796875 C 13.777344 32.761719 13.71875 32.738281 13.617188 32.742188 C 13.5 32.75 13.476562 32.773438 13.554688 32.804688 M 72.238281 33.09375 C 72.242188 33.210938 72.265625 33.234375 72.296875 33.152344 C 72.324219 33.082031 72.324219 32.996094 72.289062 32.960938 C 72.257812 32.929688 72.234375 32.988281 72.238281 33.09375 M 11.96875 33.503906 C 12.042969 33.53125 12.128906 33.527344 12.160156 33.496094 C 12.191406 33.460938 12.132812 33.4375 12.03125 33.441406 C 11.914062 33.445312 11.890625 33.472656 11.96875 33.503906 M 47.222656 37.367188 C 47.25 37.441406 47.351562 37.484375 47.445312 37.460938 C 47.539062 37.433594 47.699219 37.507812 47.800781 37.621094 C 48.003906 37.84375 48.273438 37.902344 48.199219 37.699219 C 48.171875 37.632812 48.011719 37.496094 47.847656 37.402344 C 47.476562 37.1875 47.148438 37.167969 47.222656 37.367188 M 58.234375 37.292969 C 58.304688 37.320312 58.414062 37.320312 58.480469 37.292969 C 58.550781 37.265625 58.496094 37.242188 58.359375 37.242188 C 58.222656 37.242188 58.167969 37.265625 58.234375 37.292969 M 64.773438 37.292969 C 64.84375 37.320312 64.953125 37.320312 65.023438 37.292969 C 65.089844 37.265625 65.035156 37.242188 64.898438 37.242188 C 64.761719 37.242188 64.707031 37.265625 64.773438 37.292969 M 65.964844 37.394531 C 66.03125 37.421875 66.144531 37.421875 66.210938 37.394531 C 66.277344 37.367188 66.222656 37.34375 66.085938 37.34375 C 65.949219 37.34375 65.894531 37.367188 65.964844 37.394531 M 68.347656 37.496094 C 68.417969 37.523438 68.503906 37.519531 68.535156 37.488281 C 68.570312 37.453125 68.511719 37.429688 68.40625 37.433594 C 68.292969 37.4375 68.269531 37.464844 68.347656 37.496094 M 60.414062 38.097656 C 60.535156 38.121094 60.738281 38.121094 60.859375 38.097656 C 60.984375 38.070312 60.882812 38.050781 60.636719 38.050781 C 60.390625 38.050781 60.292969 38.070312 60.414062 38.097656 M 65.417969 38.09375 C 65.515625 38.121094 65.648438 38.117188 65.71875 38.089844 C 65.785156 38.0625 65.707031 38.042969 65.542969 38.042969 C 65.378906 38.046875 65.324219 38.070312 65.417969 38.09375 M 70.824219 38.394531 C 70.894531 38.421875 70.980469 38.417969 71.015625 38.386719 C 71.046875 38.351562 70.988281 38.328125 70.882812 38.332031 C 70.769531 38.335938 70.746094 38.359375 70.824219 38.394531 M 30.347656 39.574219 C 30.347656 39.847656 30.367188 39.949219 30.390625 39.796875 C 30.414062 39.644531 30.410156 39.417969 30.386719 39.296875 C 30.363281 39.171875 30.347656 39.296875 30.347656 39.574219 M 13.582031 41.378906 C 13.585938 41.492188 13.609375 41.515625 13.640625 41.4375 C 13.671875 41.367188 13.667969 41.28125 13.632812 41.246094 C 13.601562 41.214844 13.578125 41.273438 13.582031 41.378906 M 51.40625 44.582031 C 51.476562 44.609375 51.5625 44.605469 51.59375 44.574219 C 51.628906 44.539062 51.570312 44.515625 51.464844 44.519531 C 51.347656 44.527344 51.324219 44.550781 51.40625 44.582031 M 50.816406 45.1875 C 50.691406 45.34375 50.695312 45.347656 50.851562 45.222656 C 51.019531 45.09375 51.070312 45.011719 50.988281 45.011719 C 50.96875 45.011719 50.890625 45.089844 50.816406 45.1875 M 70.632812 46.085938 C 70.507812 46.242188 70.511719 46.246094 70.667969 46.121094 C 70.765625 46.046875 70.84375 45.96875 70.84375 45.949219 C 70.84375 45.867188 70.761719 45.917969 70.632812 46.085938 M 39.519531 46.382812 C 39.398438 46.542969 39.402344 46.546875 39.558594 46.421875 C 39.722656 46.292969 39.777344 46.210938 39.695312 46.210938 C 39.671875 46.210938 39.59375 46.289062 39.519531 46.382812 M 36.476562 47.109375 C 36.476562 47.246094 36.5 47.300781 36.527344 47.230469 C 36.554688 47.164062 36.554688 47.050781 36.527344 46.984375 C 36.5 46.914062 36.476562 46.96875 36.476562 47.109375 M 36.875 47.109375 C 36.875 47.246094 36.894531 47.300781 36.921875 47.230469 C 36.949219 47.164062 36.949219 47.050781 36.921875 46.984375 C 36.894531 46.914062 36.875 46.96875 36.875 47.109375 M 45.78125 47.066406 C 45.789062 47.183594 45.8125 47.207031 45.84375 47.125 C 45.871094 47.054688 45.867188 46.96875 45.835938 46.933594 C 45.800781 46.902344 45.777344 46.960938 45.78125 47.066406 M 47.671875 47.109375 C 47.671875 47.246094 47.695312 47.300781 47.722656 47.230469 C 47.75 47.164062 47.75 47.050781 47.722656 46.984375 C 47.695312 46.914062 47.671875 46.96875 47.671875 47.109375 M 53.320312 47.109375 C 53.320312 47.246094 53.34375 47.300781 53.371094 47.230469 C 53.398438 47.164062 53.398438 47.050781 53.371094 46.984375 C 53.34375 46.914062 53.320312 46.96875 53.320312 47.109375 M 65.605469 47.109375 C 65.605469 47.246094 65.628906 47.300781 65.65625 47.230469 C 65.683594 47.164062 65.683594 47.050781 65.65625 46.984375 C 65.628906 46.914062 65.605469 46.96875 65.605469 47.109375 M 70.742188 47.746094 C 70.742188 47.765625 70.820312 47.84375 70.917969 47.917969 C 71.074219 48.042969 71.078125 48.039062 70.953125 47.882812 C 70.824219 47.714844 70.742188 47.660156 70.742188 47.746094 "/>
</g>
</svg>
